<svg width="61" height="91" viewBox="0 0 61 91" fill="none" xmlns="http://www.w3.org/2000/svg">
<path d="M55.9901 90.9961H4.39081C2.00327 90.9961 0.0594482 89.0635 0.0594482 86.6897V4.30638C0.0594482 1.9326 1.99934 0 4.38688 0H55.9861C58.3737 0 60.3175 1.9326 60.3175 4.30638V86.6936C60.3175 89.0674 58.3737 91 55.9861 91L55.9901 90.9961Z" fill="white"/>
<path d="M9.62927 6.5547C9.62927 6.5547 9.63309 6.5547 9.6369 6.55088C9.6369 6.54325 9.6369 6.53943 9.6369 6.53179C9.6369 6.53943 9.6369 6.54707 9.63309 6.5547H9.62927Z" fill="#ED1C24"/>
<path d="M50.7437 86.3144C50.7437 86.3144 50.7437 86.2991 50.7475 86.2915C50.7475 86.2915 50.7437 86.2915 50.7399 86.2953C50.7399 86.3029 50.7399 86.3068 50.7399 86.3144H50.7437Z" fill="#ED1C24"/>
<path d="M6.40928 10.5297C7.55986 11.822 8.09 13.9928 8.09 13.9928C8.09 13.9928 8.62009 11.822 9.77067 10.5297C10.556 9.64737 11.3453 9.24133 11.3453 9.24133C11.3453 9.24133 10.556 8.83529 9.77067 7.95294C8.62009 6.66063 8.09 4.48987 8.09 4.48987C8.09 4.48987 7.55986 6.66063 6.40928 7.95294C5.6239 8.83529 4.83459 9.24133 4.83459 9.24133C4.83459 9.24133 5.6239 9.64737 6.40928 10.5297Z" fill="#ED1C24"/>
<path d="M53.9678 81.2394C52.8172 79.9471 52.2871 77.7763 52.2871 77.7763C52.2871 77.7763 51.757 79.9471 50.6064 81.2394C49.821 82.1218 49.0317 82.5278 49.0317 82.5278C49.0317 82.5278 49.821 82.9338 50.6064 83.8162C51.757 85.1085 52.2871 87.2793 52.2871 87.2793C52.2871 87.2793 52.8172 85.1085 53.9678 83.8162C54.7532 82.9338 55.5425 82.5278 55.5425 82.5278C55.5425 82.5278 54.7532 82.1218 53.9678 81.2394Z" fill="#ED1C24"/>
<path d="M15.9555 72.2831C17.6559 74.1923 18.4374 77.3937 18.4374 77.3937C18.4374 77.3937 19.2227 74.1923 20.9191 72.2831C22.0815 70.9791 23.2439 70.3817 23.2439 70.3817C23.2439 70.3817 22.0815 69.7844 20.9191 68.4803C19.2188 66.5712 18.4374 63.3697 18.4374 63.3697C18.4374 63.3697 17.652 66.5712 15.9555 68.4803C14.7932 69.7844 13.6309 70.3817 13.6309 70.3817C13.6309 70.3817 14.7932 70.9791 15.9555 72.2831Z" fill="#ED1C24"/>
<path d="M20.9229 19.4861C19.2226 17.5769 18.4411 14.3754 18.4411 14.3754C18.4411 14.3754 17.6557 17.5769 15.9593 19.4861C14.797 20.7901 13.6346 21.3874 13.6346 21.3874C13.6346 21.3874 14.797 21.9848 15.9593 23.2888C17.6597 25.198 18.4411 28.3994 18.4411 28.3994C18.4411 28.3994 19.2265 25.198 20.9229 23.2888C22.0853 21.9848 23.2476 21.3874 23.2476 21.3874C23.2476 21.3874 22.0853 20.7901 20.9229 19.4861Z" fill="#ED1C24"/>
<path d="M20.923 43.9852C19.2227 42.076 18.4413 38.8745 18.4413 38.8745C18.4413 38.8745 17.6559 42.076 15.9594 43.9852C14.7971 45.2892 13.6348 45.8865 13.6348 45.8865C13.6348 45.8865 14.7971 46.4839 15.9594 47.7879C17.6598 49.6971 18.4413 52.8985 18.4413 52.8985C18.4413 52.8985 19.2266 49.6971 20.923 47.7879C22.0854 46.4839 23.2478 45.8865 23.2478 45.8865C23.2478 45.8865 22.0854 45.2892 20.923 43.9852Z" fill="#ED1C24"/>
<path d="M40.1058 72.2831C41.8062 74.1923 42.5876 77.3937 42.5876 77.3937C42.5876 77.3937 43.373 74.1923 45.0694 72.2831C46.2318 70.9791 47.3941 70.3817 47.3941 70.3817C47.3941 70.3817 46.2318 69.7844 45.0694 68.4803C43.3691 66.5712 42.5876 63.3697 42.5876 63.3697C42.5876 63.3697 41.8022 66.5712 40.1058 68.4803C38.9435 69.7844 37.7811 70.3817 37.7811 70.3817C37.7811 70.3817 38.9435 70.9791 40.1058 72.2831Z" fill="#ED1C24"/>
<path d="M45.0694 19.4861C43.3691 17.5769 42.5876 14.3754 42.5876 14.3754C42.5876 14.3754 41.8022 17.5769 40.1058 19.4861C38.9435 20.7901 37.7811 21.3874 37.7811 21.3874C37.7811 21.3874 38.9435 21.9848 40.1058 23.2888C41.8062 25.198 42.5876 28.3994 42.5876 28.3994C42.5876 28.3994 43.373 25.198 45.0694 23.2888C46.2318 21.9848 47.3941 21.3874 47.3941 21.3874C47.3941 21.3874 46.2318 20.7901 45.0694 19.4861Z" fill="#ED1C24"/>
<path d="M45.0694 43.9852C43.3691 42.076 42.5876 38.8745 42.5876 38.8745C42.5876 38.8745 41.8022 42.076 40.1058 43.9852C38.9435 45.2892 37.7811 45.8865 37.7811 45.8865C37.7811 45.8865 38.9435 46.4839 40.1058 47.7879C41.8062 49.6971 42.5876 52.8985 42.5876 52.8985C42.5876 52.8985 43.373 49.6971 45.0694 47.7879C46.2318 46.4839 47.3941 45.8865 47.3941 45.8865C47.3941 45.8865 46.2318 45.2892 45.0694 43.9852Z" fill="#ED1C24"/>
<path d="M9.62927 6.94122C9.62927 6.94122 9.63309 6.94122 9.6369 6.9374C9.6369 6.92977 9.6369 6.92595 9.6369 6.91831C9.6369 6.92595 9.6369 6.93359 9.63309 6.94122H9.62927Z" fill="#ED1C24"/>
<path d="M50.7437 86.7009C50.7437 86.7009 50.7437 86.6856 50.7475 86.678C50.7475 86.678 50.7437 86.678 50.7399 86.6818C50.7399 86.6895 50.7399 86.6933 50.7399 86.7009H50.7437Z" fill="#ED1C24"/>
<path d="M8.22348 20.6456C7.83864 20.6456 7.49701 20.548 7.19857 20.3528C6.90012 20.1576 6.66843 19.8804 6.5035 19.5212C6.33857 19.162 6.2561 18.7443 6.2561 18.2718C6.2561 17.7994 6.33857 17.3543 6.50743 16.9834C6.67629 16.6125 6.90798 16.3275 7.2025 16.1284C7.49701 15.9293 7.82687 15.8278 8.18815 15.8278C8.44339 15.8278 8.68292 15.8824 8.90675 15.9918C9.05597 16.062 9.17772 16.1479 9.26411 16.2494V15.8746H9.84921V17.2684H9.15808V17.2021C9.15808 17.0615 9.11485 16.9366 9.03239 16.8273C8.94992 16.718 8.83216 16.6321 8.68294 16.5696C8.53372 16.5071 8.36878 16.4759 8.18029 16.4759C7.92897 16.4759 7.70904 16.5423 7.52055 16.6789C7.33206 16.8156 7.18677 17.0069 7.0886 17.2489C6.99043 17.4949 6.93938 17.7682 6.93938 18.0766V18.1157C7.08075 17.9166 7.26532 17.7643 7.49308 17.655C7.72084 17.5456 7.97213 17.491 8.24701 17.491C8.60436 17.491 8.91852 17.5613 9.18947 17.6979C9.46043 17.8346 9.66466 18.0259 9.80995 18.264C9.95525 18.5022 10.0259 18.7677 10.0259 19.0527C10.0259 19.3377 9.95131 19.5954 9.80209 19.8374C9.65287 20.0795 9.44082 20.2747 9.16987 20.4231C8.89891 20.5714 8.58476 20.6456 8.23134 20.6456H8.22348ZM8.25094 20.06C8.45121 20.06 8.63186 20.017 8.79679 19.9311C8.96171 19.8452 9.0913 19.7281 9.18554 19.5759C9.27979 19.4236 9.32691 19.2596 9.32691 19.0761C9.32691 18.877 9.2759 18.7013 9.1738 18.5412C9.0717 18.3812 8.93424 18.2601 8.76539 18.1664C8.59653 18.0766 8.41589 18.0298 8.22348 18.0298C8.01142 18.0298 7.81902 18.0766 7.65017 18.1664C7.48131 18.2562 7.34779 18.3773 7.25355 18.5295C7.1593 18.6818 7.11219 18.8497 7.11219 19.0332C7.11219 19.1932 7.1593 19.3494 7.25355 19.5095C7.34779 19.6696 7.4852 19.7984 7.65798 19.9038C7.83469 20.0053 8.03104 20.06 8.25094 20.06Z" fill="#ED1C24"/>
<path d="M52.1535 71.1235C52.5383 71.1235 52.88 71.2211 53.1784 71.4163C53.4769 71.6115 53.7085 71.8888 53.8735 72.2479C54.0384 72.6071 54.1209 73.0249 54.1209 73.4973C54.1209 73.9697 54.0384 74.4148 53.8695 74.7857C53.7007 75.1566 53.469 75.4416 53.1745 75.6407C52.88 75.8398 52.5501 75.9413 52.1888 75.9413C51.9336 75.9413 51.6941 75.8867 51.4702 75.7774C51.321 75.7071 51.1993 75.6212 51.1129 75.5197V75.8945H50.5278V74.5007H51.2189V74.5671C51.2189 74.7076 51.2621 74.8325 51.3445 74.9419C51.427 75.0512 51.5448 75.1371 51.694 75.1995C51.8433 75.262 52.0082 75.2933 52.1967 75.2933C52.448 75.2933 52.6679 75.2269 52.8564 75.0902C53.0449 74.9536 53.1902 74.7623 53.2884 74.5202C53.3865 74.2742 53.4376 74.0009 53.4376 73.6925V73.6535C53.2962 73.8526 53.1117 74.0048 52.8839 74.1142C52.6561 74.2235 52.4048 74.2781 52.1299 74.2781C51.7726 74.2781 51.4585 74.2079 51.1875 74.0712C50.9165 73.9346 50.7123 73.7433 50.567 73.5051C50.4217 73.2669 50.3511 73.0015 50.3511 72.7164C50.3511 72.4314 50.4257 72.1738 50.5749 71.9317C50.7241 71.6896 50.9362 71.4944 51.2071 71.3461C51.4781 71.1977 51.7922 71.1235 52.1456 71.1235H52.1535ZM52.126 71.7092C51.9258 71.7092 51.7451 71.7521 51.5802 71.838C51.4153 71.9239 51.2857 72.041 51.1914 72.1933C51.0972 72.3455 51.05 72.5095 51.05 72.693C51.05 72.8921 51.1011 73.0678 51.2032 73.2279C51.3053 73.388 51.4427 73.509 51.6116 73.6027C51.7804 73.6925 51.9611 73.7394 52.1535 73.7394C52.3656 73.7394 52.558 73.6925 52.7268 73.6027C52.8957 73.5129 53.0292 73.3919 53.1234 73.2396C53.2177 73.0874 53.2648 72.9195 53.2648 72.736C53.2648 72.5759 53.2177 72.4197 53.1234 72.2597C53.0292 72.0996 52.8917 71.9707 52.7189 71.8653C52.5462 71.7638 52.3459 71.7092 52.126 71.7092Z" fill="#ED1C24"/>
</svg>
