<svg width="95" height="144" viewBox="0 0 95 144" fill="none" xmlns="http://www.w3.org/2000/svg">
<path d="M88.1761 143.363H6.88458C3.12314 143.363 0.060791 140.318 0.060791 136.579L0.060791 6.78859C0.060791 3.04885 3.12314 0.00415039 6.88458 0.00415039L88.1761 0.00415039C91.9376 0.00415039 95 3.04885 95 6.78859V136.585C95 140.325 91.9376 143.369 88.1761 143.369V143.363Z" fill="white"/>
<path d="M19.0474 14.2189C16.3253 11.2111 15.0694 6.16736 15.0694 6.16736C15.0694 6.16736 13.8135 11.2111 11.0914 14.2189C9.23546 16.2733 7.37329 17.2144 7.37329 17.2144C7.37329 17.2144 9.23546 18.1555 11.0914 20.2099C13.8135 23.2176 15.0694 28.2614 15.0694 28.2614C15.0694 28.2614 16.3253 23.2176 19.0474 20.2099C20.9033 18.1555 22.7655 17.2144 22.7655 17.2144C22.7655 17.2144 20.9033 16.2733 19.0474 14.2189Z" fill="#ED1C24"/>
<path d="M76.0071 129.567C78.7292 132.574 79.985 137.618 79.985 137.618C79.985 137.618 81.2409 132.574 83.963 129.567C85.819 127.512 87.6811 126.571 87.6811 126.571C87.6811 126.571 85.819 125.63 83.963 123.576C81.2409 120.568 79.985 115.524 79.985 115.524C79.985 115.524 78.7292 120.568 76.0071 123.576C74.1511 125.63 72.2889 126.571 72.2889 126.571C72.2889 126.571 74.1511 127.512 76.0071 129.567Z" fill="#ED1C24"/>
<path d="M10.7512 36.4913H11.6792L13.8136 31.4168L13.8012 31.3983H12.6629V30.3096H15.6634L18.1318 36.4974H19.0907V37.5861H15.6943V36.4974H16.8883L16.3996 35.2488H13.3248L12.8114 36.4974H14.0796V37.5861H10.7574V36.4974L10.7512 36.4913ZM15.9912 34.2031L14.9457 31.5398H14.8529L13.7579 34.2031H15.9974H15.9912Z" fill="#ED1C24"/>
<path d="M84.2538 107.491H83.3258L81.1915 112.566L81.2039 112.584H82.3422V113.673H79.3417L76.8733 107.485H75.9143V106.396H79.3108V107.485H78.1167L78.6055 108.734H81.6802L82.1937 107.485H80.9316V106.396H84.2538V107.485V107.491ZM79.02 109.779L80.0655 112.443H80.1583L81.2533 109.779H79.0138H79.02Z" fill="#ED1C24"/>
<path d="M16.2634 134.653C16.251 134.321 16.2201 133.989 16.1644 133.663L22.1654 132.464L22.0416 131.855L16.0407 133.054C15.9602 132.728 15.8675 132.415 15.7499 132.101L23.5759 128.841L23.3346 128.263L15.5086 131.529C15.3725 131.24 15.2179 130.957 15.0508 130.68L19.7031 127.574L19.3505 127.057L14.6982 130.163C14.5064 129.905 14.3084 129.659 14.0857 129.425L26.5455 117.037L26.1 116.594L13.6403 128.982C13.3866 128.749 13.1206 128.533 12.8422 128.33L16.2139 123.25L15.688 122.905L12.3225 127.986C12.0627 127.826 11.7905 127.685 11.5121 127.555L14.7601 119.799L14.1785 119.559L10.9306 127.315C10.646 127.211 10.349 127.112 10.0521 127.039L10.9429 122.788L10.3305 122.659L9.43959 126.91C9.09315 126.848 8.74051 126.811 8.3755 126.799L8.34458 21.5139H7.71973L7.75684 135.293H75.7597V134.672H16.2634V134.653ZM9.09934 134.653H8.38169V134.586V134.5V134.383V134.217V133.934V133.423V132.009L8.35694 127.408C8.36932 127.408 8.37551 127.408 8.38789 127.408C8.7034 127.42 9.01272 127.457 9.32205 127.506C9.53239 127.543 9.73656 127.586 9.93453 127.635C10.1944 127.703 10.4542 127.783 10.7017 127.875C10.8996 127.949 11.0914 128.029 11.277 128.121C11.5183 128.238 11.7534 128.361 11.9823 128.496C12.1617 128.607 12.3349 128.718 12.502 128.841C12.7494 129.019 12.9783 129.21 13.201 129.413C13.3557 129.554 13.5042 129.702 13.6465 129.856C13.8383 130.059 14.0115 130.28 14.1785 130.502C14.3022 130.668 14.4198 130.84 14.5311 131.018C14.6796 131.258 14.8095 131.504 14.9333 131.756C15.0199 131.947 15.1003 132.138 15.1746 132.335C15.2735 132.605 15.3601 132.882 15.4344 133.165C15.4839 133.368 15.521 133.571 15.5581 133.774C15.6014 134.057 15.6324 134.346 15.6447 134.641H9.10551L9.09934 134.653Z" fill="#ED1C24"/>
<path d="M26.2052 127.015L24.455 127.748L24.6976 128.321L26.4478 127.587L26.2052 127.015Z" fill="#ED1C24"/>
<path d="M15.1432 117.281L14.6608 118.434L15.2377 118.672L15.7201 117.52L15.1432 117.281Z" fill="#ED1C24"/>
<path d="M70.347 15.4171L68.5968 16.1503L68.8394 16.7228L70.5897 15.9896L70.347 15.4171Z" fill="#ED1C24"/>
<path d="M79.7938 25.1094L79.3114 26.2622L79.8883 26.5008L80.3707 25.348L79.7938 25.1094Z" fill="#ED1C24"/>
<path d="M87.3284 8.50468L19.2885 8.50468V9.12593L78.7847 9.12593C78.7971 9.45807 78.828 9.79022 78.8837 10.1162L72.8827 11.3156L73.0065 11.9246L79.0074 10.7252C79.0879 11.0512 79.1807 11.3649 79.2982 11.6785L71.4722 14.9385L71.7135 15.5167L79.5395 12.2506C79.6756 12.5397 79.8303 12.8226 79.9973 13.0994L75.345 16.2056L75.6976 16.7223L80.3499 13.6161C80.5417 13.8744 80.7397 14.1205 80.9624 14.3603L68.5026 26.7482L68.9481 27.1911L81.4078 14.8032C81.6615 15.0369 81.9275 15.2522 82.2059 15.4552L78.8342 20.5358L79.3601 20.8803L82.7256 15.7997C82.9854 15.9596 83.2576 16.101 83.536 16.2302L80.2881 23.9865L80.8696 24.2264L84.1175 16.4701C84.4021 16.5747 84.6991 16.6731 84.9961 16.7469L84.1052 20.9972L84.7177 21.1263L85.6085 16.8761C85.955 16.9376 86.3076 16.9745 86.6726 16.9868L86.7035 122.272H87.3284V8.50468ZM85.7384 16.2733C85.5281 16.2364 85.3239 16.1933 85.126 16.1441C84.8661 16.0764 84.6063 15.9965 84.3588 15.9042C84.1609 15.8304 83.9691 15.7504 83.7835 15.6582C83.5422 15.5413 83.3071 15.4183 83.0782 15.283C82.8988 15.1723 82.7256 15.0615 82.5586 14.9385C82.3111 14.7601 82.0822 14.5695 81.8595 14.3665C81.7048 14.225 81.5563 14.0774 81.414 13.9236C81.2222 13.7206 81.049 13.4992 80.882 13.2778C80.7582 13.1117 80.6407 12.9395 80.5293 12.7611C80.3809 12.5212 80.2509 12.2752 80.1272 12.023C80.0406 11.8323 79.9602 11.6416 79.8859 11.4448C79.787 11.1742 79.7003 10.8974 79.6261 10.6144C79.5766 10.4115 79.5395 10.2085 79.5024 10.0055C79.4591 9.72256 79.4281 9.43347 79.4158 9.13823H86.6726V9.20589V9.292V9.40887V9.57494V9.85788V10.3684V11.7831L86.6974 16.384C86.685 16.384 86.6788 16.384 86.6664 16.384C86.3509 16.3717 86.0416 16.3348 85.7322 16.2856L85.7384 16.2733Z" fill="#ED1C24"/>
<path d="M55.0533 66.2985C49.8999 60.6028 47.5242 51.0504 47.5242 51.0504C47.5242 51.0504 45.1486 60.6089 39.9952 66.2985C36.475 70.1859 32.9548 71.9697 32.9548 71.9697C32.9548 71.9697 36.4812 73.7534 39.9952 77.6408C45.1486 83.3365 47.5242 92.8889 47.5242 92.8889C47.5242 92.8889 49.8999 83.3304 55.0533 77.6408C58.5734 73.7534 62.0936 71.9697 62.0936 71.9697C62.0936 71.9697 58.5672 70.1859 55.0533 66.2985Z" fill="#ED1C24"/>
</svg>
