<svg width="61" height="91" viewBox="0 0 61 91" fill="none" xmlns="http://www.w3.org/2000/svg">
<path d="M56.6726 90.9961H5.07331C2.68576 90.9961 0.741943 89.0635 0.741943 86.6897V4.30638C0.741943 1.9326 2.68183 0 5.06938 0H56.6686C59.0562 0 60.9999 1.9326 60.9999 4.30638V86.6936C60.9999 89.0674 59.0562 91 56.6686 91L56.6726 90.9961Z" fill="white"/>
<path d="M10.3118 6.5547C10.3118 6.5547 10.3156 6.5547 10.3194 6.55088C10.3194 6.54325 10.3194 6.53943 10.3194 6.53179C10.3194 6.53943 10.3194 6.54707 10.3156 6.5547H10.3118Z" fill="#ED1C24"/>
<path d="M51.4262 86.3144C51.4262 86.3144 51.4261 86.2991 51.4299 86.2915C51.4299 86.2915 51.4262 86.2915 51.4224 86.2953C51.4224 86.3029 51.4224 86.3068 51.4224 86.3144H51.4262Z" fill="#ED1C24"/>
<path d="M6.66757 10.7679C6.95423 10.7679 7.21736 10.6742 7.43334 10.518C7.43334 10.518 7.43335 10.518 7.4412 10.5102C7.49225 10.4712 7.5747 10.4243 7.62182 10.3814C7.75927 10.2681 7.95169 10.1003 8.1716 9.96362C8.39936 9.81916 8.63103 9.90505 8.59568 10.2135C8.55249 10.6078 8.47787 10.9982 8.39541 11.3418C8.05377 12.7942 7.39408 13.2158 7.39408 13.2158L8.77237 12.6575L10.1507 13.2158C10.1507 13.2158 9.39675 12.5482 9.12187 11.3418C9.04334 10.9943 8.97266 10.6078 8.92946 10.2135C8.89412 9.87772 9.1258 9.84259 9.32215 9.96752C9.62844 10.1588 9.91121 10.3736 10.0447 10.4751C10.0565 10.4829 10.0643 10.4907 10.0761 10.4985C10.1036 10.5219 10.1232 10.5336 10.1232 10.5336C10.3353 10.682 10.5945 10.7718 10.8733 10.7718C11.5919 10.7718 12.1731 10.194 12.1731 9.47949C12.1731 8.76502 11.5919 8.18719 10.8733 8.18719C10.5866 8.18719 10.3235 8.28089 10.1075 8.43706C10.1075 8.43706 10.1075 8.43706 10.0997 8.44487C10.0486 8.48391 9.99756 8.52686 9.95044 8.57371C9.80514 8.69474 9.57348 8.87043 9.33001 9.01879C9.12188 9.14763 8.89804 9.08126 8.96872 8.78844C8.99228 8.68693 9.01194 8.59323 9.03942 8.51124C9.37321 7.48052 9.91118 6.76995 9.91118 6.76995C10.0604 6.55131 10.1468 6.28582 10.1468 6.00082C10.1468 5.24339 9.53031 4.63043 8.76849 4.63043C8.00668 4.63043 7.39015 5.24339 7.39015 6.00082C7.39015 6.29363 7.4844 6.56303 7.64148 6.78947C7.64148 6.78947 8.29331 7.7382 8.49751 8.48782C8.525 8.58542 8.54466 8.68303 8.56822 8.78454C8.6389 9.09688 8.39539 9.15154 8.18334 8.97975C7.91631 8.76111 7.62573 8.58542 7.49614 8.48782C7.48436 8.48001 7.47652 8.4722 7.46474 8.46439C7.43725 8.44096 7.41762 8.42925 7.41762 8.42925C7.20557 8.28089 6.94638 8.19109 6.66757 8.19109C5.94895 8.19109 5.3678 8.76892 5.3678 9.4834C5.3678 10.1979 5.94895 10.7757 6.66757 10.7757V10.7679Z" fill="#1A1A1A"/>
<path d="M55.0703 80.4312C54.7837 80.4312 54.5206 80.5249 54.3046 80.6811C54.3046 80.6811 54.3046 80.6811 54.2967 80.6889C54.2457 80.7279 54.1632 80.7748 54.1161 80.8177C53.9787 80.931 53.7862 81.0989 53.5663 81.2355C53.3386 81.38 53.1069 81.2941 53.1423 80.9856C53.1854 80.5913 53.26 80.2009 53.3425 79.8573C53.6841 78.4049 54.3439 77.9833 54.3439 77.9833L52.9655 78.5416L51.5872 77.9833C51.5872 77.9833 52.3411 78.6509 52.616 79.8573C52.6946 80.2048 52.7652 80.5913 52.8084 80.9856C52.8438 81.3214 52.6121 81.3565 52.4157 81.2316C52.1094 81.0403 51.8267 80.8256 51.6932 80.724C51.6814 80.7162 51.6736 80.7084 51.6618 80.7006C51.6343 80.6772 51.6147 80.6655 51.6147 80.6655C51.4026 80.5171 51.1434 80.4273 50.8646 80.4273C50.146 80.4273 49.5648 81.0051 49.5648 81.7196C49.5648 82.4341 50.146 83.0119 50.8646 83.0119C51.1513 83.0119 51.4144 82.9182 51.6304 82.7621C51.6304 82.7621 51.6304 82.7621 51.6382 82.7542C51.6893 82.7152 51.7403 82.6723 51.7874 82.6254C51.9327 82.5044 52.1645 82.3287 52.4079 82.1803C52.6161 82.0515 52.8399 82.1179 52.7692 82.4107C52.7456 82.5122 52.726 82.6059 52.6985 82.6879C52.3647 83.7186 51.8267 84.4292 51.8267 84.4292C51.6775 84.6478 51.5911 84.9133 51.5911 85.1983C51.5911 85.9557 52.2076 86.5687 52.9694 86.5687C53.7313 86.5687 54.3478 85.9557 54.3478 85.1983C54.3478 84.9055 54.2535 84.6361 54.0965 84.4096C54.0965 84.4096 53.4446 83.4609 53.2404 82.7113C53.2129 82.6137 53.1933 82.5161 53.1697 82.4146C53.099 82.1022 53.3425 82.0476 53.5545 82.2194C53.8216 82.438 54.1122 82.6137 54.2418 82.7113C54.2535 82.7191 54.2614 82.7269 54.2732 82.7347C54.3007 82.7582 54.3203 82.7699 54.3203 82.7699C54.5324 82.9182 54.7915 83.008 55.0703 83.008C55.7889 83.008 56.3701 82.4302 56.3701 81.7157C56.3701 81.0012 55.7889 80.4234 55.0703 80.4234V80.4312Z" fill="#1A1A1A"/>
<path d="M27.8569 23.933C28.2653 23.933 28.6423 23.8002 28.9525 23.5777C28.9525 23.5777 28.9564 23.5777 28.9643 23.566C29.0389 23.5113 29.1567 23.445 29.2235 23.3786C29.4198 23.2146 29.6947 22.9764 30.0088 22.7812C30.3348 22.5782 30.6685 22.6992 30.6175 23.1365C30.5547 23.7026 30.4486 24.2609 30.3308 24.749C29.84 26.826 28.8975 27.4312 28.8975 27.4312L30.8727 26.6347L32.848 27.4312C32.848 27.4312 31.772 26.4746 31.3793 24.749C31.2654 24.2531 31.1673 23.6948 31.1045 23.1365C31.0534 22.6602 31.3872 22.6055 31.6699 22.7812C32.1058 23.0545 32.5142 23.363 32.7027 23.5074C32.7184 23.5191 32.7341 23.5308 32.7498 23.5426C32.793 23.5738 32.8166 23.5933 32.8166 23.5933C33.1189 23.8041 33.4881 23.933 33.8886 23.933C34.9135 23.933 35.746 23.1053 35.746 22.0863C35.746 21.0673 34.9135 20.2396 33.8886 20.2396C33.4802 20.2396 33.1032 20.3723 32.793 20.5949C32.793 20.5949 32.7891 20.5949 32.7812 20.6066C32.7066 20.6612 32.6359 20.7237 32.5692 20.7901C32.3611 20.9619 32.0273 21.2156 31.6856 21.4265C31.3872 21.61 31.0691 21.5124 31.1673 21.0946C31.2026 20.9501 31.2301 20.8135 31.2694 20.6964C31.7484 19.2206 32.5142 18.2055 32.5142 18.2055C32.7262 17.8931 32.8519 17.5144 32.8519 17.1084C32.8519 16.023 31.9683 15.1445 30.8767 15.1445C29.785 15.1445 28.9014 16.023 28.9014 17.1084C28.9014 17.5261 29.035 17.9166 29.2588 18.2328C29.2588 18.2328 30.1934 19.5876 30.4801 20.6651C30.5154 20.8018 30.5507 20.9423 30.5822 21.0868C30.6803 21.5319 30.3347 21.6139 30.0284 21.364C29.6436 21.0517 29.2274 20.8018 29.0428 20.6612C29.0271 20.6495 29.0114 20.6378 28.9957 20.6261C28.9525 20.5949 28.929 20.5753 28.929 20.5753C28.6266 20.3645 28.2575 20.2357 27.8569 20.2357C26.832 20.2357 25.9995 21.0634 25.9995 22.0824C25.9995 23.1014 26.832 23.9291 27.8569 23.9291V23.933Z" fill="#1A1A1A"/>
<path d="M27.857 48.2408C28.2654 48.2408 28.6424 48.108 28.9526 47.8855C28.9526 47.8855 28.9565 47.8855 28.9644 47.8738C29.039 47.8191 29.1568 47.7527 29.2236 47.6864C29.4199 47.5224 29.6948 47.2842 30.009 47.089C30.3349 46.886 30.6687 47.007 30.6176 47.4443C30.5548 48.0104 30.4488 48.5687 30.3309 49.0568C29.8401 51.1338 28.8976 51.739 28.8976 51.739L30.8729 50.9425L32.8481 51.739C32.8481 51.739 31.7721 50.7824 31.3794 49.0568C31.2656 48.5609 31.1674 48.0026 31.1046 47.4443C31.0535 46.968 31.3873 46.9133 31.67 47.089C32.1059 47.3623 32.5143 47.6708 32.7028 47.8152C32.7185 47.8269 32.7342 47.8386 32.7499 47.8504C32.7931 47.8816 32.8167 47.9011 32.8167 47.9011C33.1191 48.1119 33.4882 48.2408 33.8887 48.2408C34.9136 48.2408 35.7461 47.4131 35.7461 46.3941C35.7461 45.3751 34.9136 44.5474 33.8887 44.5474C33.4803 44.5474 33.1033 44.6801 32.7931 44.9027C32.7931 44.9027 32.7892 44.9027 32.7813 44.9144C32.7067 44.969 32.6361 45.0315 32.5693 45.0979C32.3612 45.2697 32.0274 45.5234 31.6858 45.7343C31.3873 45.9178 31.0692 45.8201 31.1674 45.4024C31.2027 45.2579 31.2302 45.1213 31.2695 45.0042C31.7486 43.5284 32.5143 42.5133 32.5143 42.5133C32.7264 42.2009 32.852 41.8222 32.852 41.4162C32.852 40.3308 31.9685 39.4523 30.8768 39.4523C29.7851 39.4523 28.9016 40.3308 28.9016 41.4162C28.9016 41.8339 29.0351 42.2243 29.2589 42.5406C29.2589 42.5406 30.1935 43.8954 30.4802 44.9729C30.5155 45.1096 30.5509 45.2501 30.5823 45.3946C30.6804 45.8397 30.3349 45.9217 30.0286 45.6718C29.6437 45.3594 29.2275 45.1096 29.043 44.969C29.0273 44.9573 29.0115 44.9456 28.9958 44.9339C28.9526 44.9027 28.9291 44.8831 28.9291 44.8831C28.6267 44.6723 28.2576 44.5435 27.857 44.5435C26.8321 44.5435 25.9996 45.3712 25.9996 46.3902C25.9996 47.4092 26.8321 48.2369 27.857 48.2369V48.2408Z" fill="#1A1A1A"/>
<path d="M33.8848 67.27C33.4764 67.27 33.0994 67.4028 32.7892 67.6253C32.7892 67.6253 32.7853 67.6253 32.7774 67.637C32.7028 67.6917 32.585 67.7581 32.5183 67.8244C32.3219 67.9884 32.047 68.2266 31.7329 68.4218C31.407 68.6248 31.0732 68.5038 31.1242 68.0665C31.187 67.5004 31.2931 66.9421 31.4109 66.4541C31.9017 64.377 32.8442 63.7718 32.8442 63.7718L30.869 64.5683L28.8938 63.7718C28.8938 63.7718 29.9697 64.7284 30.3624 66.4541C30.4763 66.9499 30.5745 67.5082 30.6373 68.0665C30.6883 68.5428 30.3546 68.5975 30.0718 68.4218C29.636 68.1485 29.2276 67.8401 29.0391 67.6956C29.0234 67.6839 29.0076 67.6722 28.9919 67.6605C28.9487 67.6292 28.9252 67.6097 28.9252 67.6097C28.6228 67.3989 28.2537 67.27 27.8531 67.27C26.8282 67.27 25.9957 68.0977 25.9957 69.1167C25.9957 70.1357 26.8282 70.9634 27.8531 70.9634C28.2615 70.9634 28.6385 70.8307 28.9487 70.6082C28.9487 70.6082 28.9526 70.6082 28.9605 70.5964C29.0351 70.5418 29.1058 70.4793 29.1726 70.4129C29.3807 70.2412 29.7145 69.9874 30.0561 69.7766C30.3546 69.5931 30.6726 69.6907 30.5744 70.1084C30.5391 70.2529 30.5116 70.3895 30.4723 70.5066C29.9933 71.9824 29.2275 72.9976 29.2275 72.9976C29.0155 73.3099 28.8898 73.6886 28.8898 74.0946C28.8898 75.18 29.7734 76.0585 30.865 76.0585C31.9567 76.0585 32.8403 75.18 32.8403 74.0946C32.8403 73.6769 32.7067 73.2865 32.4829 72.9702C32.4829 72.9702 31.5483 71.6155 31.2616 70.5379C31.2263 70.4012 31.191 70.2607 31.1595 70.1162C31.0614 69.6711 31.4069 69.5892 31.7132 69.839C32.0981 70.1514 32.5143 70.4012 32.6989 70.5418C32.7146 70.5535 32.7303 70.5652 32.746 70.5769C32.7892 70.6082 32.8128 70.6277 32.8128 70.6277C33.1152 70.8385 33.4843 70.9674 33.8848 70.9674C34.9097 70.9674 35.7422 70.1396 35.7422 69.1206C35.7422 68.1016 34.9097 67.2739 33.8848 67.2739V67.27Z" fill="#1A1A1A"/>
<path d="M10.3118 6.65621C10.3118 6.65621 10.3156 6.65621 10.3194 6.65239C10.3194 6.64476 10.3194 6.64094 10.3194 6.6333C10.3194 6.64094 10.3194 6.64858 10.3156 6.65621H10.3118Z" fill="#ED1C24"/>
<path d="M51.4262 86.4159C51.4262 86.4159 51.4261 86.4006 51.4299 86.393C51.4299 86.393 51.4262 86.393 51.4224 86.3968C51.4224 86.4044 51.4224 86.4083 51.4224 86.4159H51.4262Z" fill="#ED1C24"/>
<path d="M6.92676 18.5139H7.54331V18.6662C7.54331 18.8887 7.59043 19.0839 7.6886 19.2518C7.78677 19.4158 7.92025 19.5446 8.09696 19.6344C8.26974 19.7242 8.47002 19.7711 8.68992 19.7711C8.89805 19.7711 9.08263 19.732 9.24363 19.65C9.40463 19.568 9.53027 19.4587 9.61666 19.3182C9.70305 19.1776 9.74628 19.0215 9.74628 18.8497C9.74628 18.6779 9.70306 18.5334 9.62059 18.4046C9.53813 18.2757 9.42032 18.1742 9.27503 18.1001C9.12973 18.0259 8.96874 17.9907 8.79203 17.9907C8.68207 17.9907 8.57214 18.0024 8.46611 18.0298C8.36009 18.0571 8.27762 18.0961 8.21479 18.1469L8.1598 18.1938L7.83389 17.7526L9.55387 16.2729H7.72393H7.71607C7.71607 16.2729 7.71607 16.2729 7.71607 16.2807V16.96H7.08384V15.3749H7.71607V15.6404H10.3431V16.2924L8.89806 17.5261C8.93733 17.5222 8.97661 17.5183 9.01196 17.5144C9.0473 17.5144 9.0826 17.5144 9.11794 17.5144C9.36141 17.5144 9.58921 17.573 9.79733 17.694C10.0055 17.815 10.1743 17.979 10.2999 18.1898C10.4256 18.4007 10.4845 18.6271 10.4845 18.8809C10.4845 19.1659 10.4099 19.4236 10.2567 19.6461C10.1036 19.8687 9.89548 20.0444 9.62452 20.1693C9.3575 20.2942 9.06298 20.3567 8.73705 20.3567C8.54855 20.3567 8.36792 20.3294 8.19513 20.2747C8.02628 20.2201 7.87706 20.1459 7.75532 20.0522C7.71606 20.0209 7.6807 19.9858 7.64536 19.9507C7.61395 19.9116 7.58254 19.8765 7.55505 19.8335V20.2552H6.93069V18.5061L6.92676 18.5139Z" fill="black"/>
<path d="M54.815 72.6852H54.1985V72.5329C54.1985 72.3104 54.1514 72.1152 54.0532 71.9473C53.9551 71.7833 53.8215 71.6545 53.6448 71.5647C53.4681 71.4749 53.2718 71.428 53.0519 71.428C52.8437 71.428 52.6592 71.4671 52.4982 71.5491C52.3372 71.6311 52.2115 71.7404 52.1251 71.8809C52.0387 72.0215 51.9956 72.1777 51.9956 72.3494C51.9956 72.5212 52.0387 72.6657 52.1212 72.7945C52.2037 72.9234 52.3215 73.0249 52.4668 73.0991C52.6121 73.1732 52.7731 73.2084 52.9498 73.2084C53.0597 73.2084 53.1697 73.1967 53.2757 73.1693C53.3817 73.142 53.4642 73.103 53.527 73.0522L53.582 73.0054L53.9079 73.4465L52.188 74.9262H54.0218H54.0297C54.0297 74.9262 54.0297 74.9262 54.0297 74.9184V74.2391H54.6619V75.8242H54.0297V75.5587H51.4026V74.9067L52.8477 73.673C52.8084 73.6769 52.7692 73.6808 52.7338 73.6847C52.6985 73.6847 52.6631 73.6847 52.6278 73.6847C52.3843 73.6847 52.1566 73.6261 51.9484 73.5051C51.7403 73.3841 51.5714 73.2201 51.4458 73.0093C51.3201 72.7984 51.2612 72.572 51.2612 72.3182C51.2612 72.0332 51.3358 71.7755 51.489 71.553C51.6421 71.3304 51.8502 71.1547 52.1212 71.0298C52.3882 70.9049 52.6827 70.8424 53.0087 70.8424C53.1972 70.8424 53.3778 70.8697 53.5506 70.9244C53.7234 70.9791 53.8687 71.0532 53.9904 71.1469C54.0297 71.1782 54.065 71.2133 54.1004 71.2485C54.1318 71.2875 54.1632 71.3226 54.1907 71.3656V70.9439H54.815V72.693V72.6852Z" fill="black"/>
</svg>
