<svg width="95" height="144" viewBox="0 0 95 144" fill="none" xmlns="http://www.w3.org/2000/svg">
<path d="M88.1154 143.363H6.82379C3.06235 143.363 0 140.318 0 136.579L0 6.78859C0 3.04885 3.06235 0.00415039 6.82379 0.00415039L88.1154 0.00415039C91.8768 0.00415039 94.9392 3.04885 94.9392 6.78859V136.585C94.9392 140.325 91.8768 143.369 88.1154 143.369V143.363Z" fill="white"/>
<path d="M20.0196 15.2338C19.3762 15.2338 18.7823 15.4429 18.2936 15.7935C18.2936 15.7935 18.2874 15.7935 18.275 15.812C18.1575 15.8981 18.0461 15.9965 17.941 16.101C17.6131 16.3717 17.0872 16.7715 16.549 17.1036C16.0788 17.3927 15.5777 17.239 15.7324 16.5808C15.788 16.3532 15.8313 16.138 15.8932 15.9534C16.648 13.6284 17.8543 12.0292 17.8543 12.0292C18.1884 11.5371 18.3864 10.9404 18.3864 10.3008C18.3864 8.5908 16.9944 7.20685 15.2745 7.20685C13.5547 7.20685 12.1627 8.5908 12.1627 10.3008C12.1627 10.9589 12.373 11.574 12.7257 12.0722C12.7257 12.0722 14.1981 14.2066 14.6497 15.9042C14.7054 16.1195 14.7611 16.3409 14.8106 16.5685C14.9652 17.2697 14.4208 17.3989 13.9382 17.0052C13.332 16.5132 12.6762 16.1195 12.3854 15.8981C12.3607 15.8796 12.3359 15.8612 12.3112 15.8427C12.2431 15.7935 12.206 15.7627 12.206 15.7627C11.7296 15.4306 11.1481 15.2276 10.5171 15.2276C8.90237 15.2276 7.59082 16.5316 7.59082 18.137C7.59082 19.7424 8.90237 21.0464 10.5171 21.0464C11.1605 21.0464 11.7544 20.8372 12.2431 20.4866C12.2431 20.4866 12.2493 20.4866 12.2617 20.4682C12.3792 20.3821 12.5648 20.2775 12.67 20.1729C12.9793 19.9146 13.4124 19.5394 13.9073 19.2319C14.4208 18.912 14.9467 19.1027 14.8662 19.7916C14.7672 20.6835 14.6002 21.563 14.4146 22.3319C13.6413 25.6042 12.1565 26.5576 12.1565 26.5576L15.2684 25.3028L18.3802 26.5576C18.3802 26.5576 16.6851 25.0506 16.0664 22.3319C15.887 21.5507 15.7324 20.6712 15.6334 19.7916C15.5529 19.0412 16.0788 18.9551 16.5242 19.2319C17.2109 19.6624 17.8543 20.1483 18.1513 20.3759C18.176 20.3944 18.2008 20.4128 18.2255 20.4313C18.2936 20.4805 18.3307 20.5112 18.3307 20.5112C18.8071 20.8434 19.3886 21.0464 20.0196 21.0464C21.6343 21.0464 22.9459 19.7424 22.9459 18.137C22.9459 16.5316 21.6343 15.2276 20.0196 15.2276V15.2338Z" fill="#1A1A1A"/>
<path d="M11.2905 36.1837H12.3361V31.0908H11.2905V30.0021H14.4271V31.0908H13.4868V33.139H14.6993L16.3635 31.0908H15.2128V30.0021H18.4855V31.0908H17.6565L15.6892 33.5266L18.0648 36.1899H18.7763V37.2786H15.2437V36.1899H16.5491L14.7179 34.1293H13.4868V36.1899H14.3158V37.2786H11.2967V36.1899L11.2905 36.1837Z" fill="#1A1A1A"/>
<path d="M74.9194 128.134C75.5628 128.134 76.1567 127.924 76.6455 127.574C76.6455 127.574 76.6517 127.574 76.664 127.555C76.7816 127.469 76.8929 127.371 76.9981 127.266C77.326 126.996 77.8518 126.596 78.3901 126.264C78.8603 125.975 79.3614 126.128 79.2067 126.786C79.151 127.014 79.1077 127.229 79.0459 127.414C78.2911 129.739 77.0847 131.338 77.0847 131.338C76.7506 131.83 76.5527 132.427 76.5527 133.067C76.5527 134.777 77.9446 136.16 79.6645 136.16C81.3844 136.16 82.7764 134.777 82.7764 133.067C82.7764 132.408 82.566 131.793 82.2134 131.295C82.2134 131.295 80.741 129.161 80.2894 127.463C80.2337 127.248 80.178 127.026 80.1285 126.799C79.9738 126.098 80.5183 125.968 81.0008 126.362C81.6071 126.854 82.2629 127.248 82.5536 127.469C82.5784 127.488 82.6031 127.506 82.6279 127.525C82.6959 127.574 82.7331 127.605 82.7331 127.605C83.2094 127.937 83.791 128.14 84.422 128.14C86.0367 128.14 87.3482 126.836 87.3482 125.23C87.3482 123.625 86.0367 122.321 84.422 122.321C83.7786 122.321 83.1847 122.53 82.6959 122.881C82.6959 122.881 82.6897 122.881 82.6774 122.899C82.5598 122.985 82.3742 123.09 82.2691 123.194C81.9597 123.453 81.5267 123.828 81.0317 124.135C80.5183 124.455 79.9924 124.265 80.0728 123.576C80.1718 122.684 80.3389 121.804 80.5244 121.035C81.2978 117.763 82.7825 116.81 82.7825 116.81L79.6707 118.065L76.5589 116.81C76.5589 116.81 78.254 118.317 78.8726 121.035C79.052 121.817 79.2067 122.696 79.3057 123.576C79.3861 124.326 78.8603 124.412 78.4148 124.135C77.7281 123.705 77.0847 123.219 76.7878 122.991C76.763 122.973 76.7383 122.954 76.7135 122.936C76.6455 122.887 76.6083 122.856 76.6083 122.856C76.132 122.524 75.5504 122.321 74.9194 122.321C73.3047 122.321 71.9932 123.625 71.9932 125.23C71.9932 126.836 73.3047 128.14 74.9194 128.14V128.134Z" fill="#1A1A1A"/>
<path d="M83.6487 107.177H82.6032V112.27H83.6487V113.359H80.5121V112.27H81.4525V110.222H80.2399L78.5757 112.27H79.7264V113.359H76.4537V112.27H77.2827L79.2501 109.835L76.8744 107.171H76.163V106.083H79.6955V107.171H78.3901L80.2214 109.232H81.4525V107.171H80.6235V106.083H83.6425V107.171L83.6487 107.177Z" fill="#1A1A1A"/>
<path d="M70.2251 14.1386L68.4749 14.8719L68.7175 15.4443L70.4677 14.7111L70.2251 14.1386Z" fill="#1A1A1A"/>
<path d="M79.6898 23.8193L79.2074 24.9721L79.7843 25.2107L80.2667 24.0579L79.6898 23.8193Z" fill="#1A1A1A"/>
<path d="M87.1689 7.53285V7.20685L20.8364 7.20685V7.82809L78.6623 7.82809C78.6747 8.16024 78.7056 8.49239 78.7613 8.81838L72.7603 10.0178L72.8841 10.6267L78.885 9.42732C78.9655 9.75332 79.0583 10.067 79.1758 10.3807L71.3498 13.6468L71.5911 14.2189L79.4171 10.9527C79.5532 11.2418 79.7079 11.5248 79.8749 11.8016L75.2226 14.9078L75.5752 15.4244L80.2275 12.3182C80.4193 12.5766 80.6173 12.8226 80.84 13.0564L68.3802 25.4443L68.8257 25.8871L81.2854 13.4992C81.5391 13.733 81.8051 13.9482 82.0835 14.1512L78.7118 19.2319L79.2377 19.5763L82.6032 14.4957C82.863 14.6556 83.1352 14.7971 83.4136 14.9262L80.1657 22.6825L80.7472 22.9224L83.9952 15.1661C84.2797 15.2707 84.5767 15.3691 84.8736 15.4429L83.9828 19.6932L84.5952 19.8223L85.4861 15.5721C85.8326 15.6336 86.1852 15.6705 86.5502 15.6828L86.5811 118.913H87.206L87.1689 7.52054V7.53285ZM85.6098 14.9754C85.3995 14.9385 85.1953 14.8955 84.9974 14.8463C84.7375 14.7786 84.4777 14.6986 84.2302 14.6064C84.0323 14.5326 83.8405 14.4526 83.6549 14.3603C83.4136 14.2435 83.1785 14.1205 82.9496 13.9851C82.7702 13.8744 82.597 13.7637 82.43 13.6407C82.1825 13.4623 81.9536 13.2716 81.7309 13.0687C81.5762 12.9272 81.4277 12.7796 81.2854 12.6258C81.0936 12.4228 80.9204 12.2014 80.7534 11.9799C80.6297 11.8139 80.5121 11.6416 80.4008 11.4633C80.2523 11.2234 80.1224 10.9773 79.9986 10.7252C79.912 10.5345 79.8316 10.3438 79.7573 10.147C79.6584 9.87634 79.5718 9.59955 79.4975 9.31661C79.448 9.11363 79.4109 8.91065 79.3738 8.70767C79.3305 8.42473 79.2995 8.13563 79.2872 7.84039H86.544V7.90805V7.99416V8.11103V8.2771V8.56005V9.07057V10.4853L86.5688 15.0862C86.5564 15.0862 86.5502 15.0862 86.5378 15.0862C86.2223 15.0738 85.913 15.0369 85.6037 14.9877L85.6098 14.9754Z" fill="#1A1A1A"/>
<path d="M26.087 125.725L24.3368 126.458L24.5794 127.03L26.3297 126.297L26.087 125.725Z" fill="#1A1A1A"/>
<path d="M15.0119 115.975L14.5293 117.128L15.1062 117.367L15.5888 116.214L15.0119 115.975Z" fill="#1A1A1A"/>
<path d="M16.0355 132.365L22.0365 131.166L21.9127 130.557L15.9118 131.756C15.8313 131.43 15.7385 131.117 15.621 130.803L23.447 127.537L23.2057 126.959L15.3797 130.225C15.2436 129.936 15.0889 129.653 14.9219 129.376L19.5742 126.27L19.2216 125.753L14.5693 128.859C14.3775 128.601 14.1795 128.355 13.9568 128.121L26.4166 115.733L25.9711 115.29L13.5114 127.678C13.2577 127.445 12.9917 127.229 12.7133 127.026L16.085 121.946L15.5591 121.601L12.1936 126.682C11.9338 126.522 11.6616 126.381 11.3832 126.251L14.6311 118.495L14.0496 118.255L10.8017 126.011C10.5171 125.907 10.2201 125.808 9.92316 125.735L10.814 121.484L10.2016 121.355L9.31069 125.606C8.96424 125.544 8.6116 125.507 8.2466 125.495L8.21566 22.2643H7.59082L7.62794 133.983H73.9604V133.362H16.1345C16.1221 133.03 16.0912 132.697 16.0355 132.371V132.365ZM8.97043 133.356H8.25278V133.288V133.202V133.085V132.919V132.636V132.125V130.711L8.22804 126.11C8.24041 126.11 8.2466 126.11 8.25897 126.11C8.57449 126.122 8.88381 126.159 9.19314 126.208C9.40349 126.245 9.60764 126.288 9.80561 126.337C10.0654 126.405 10.3253 126.485 10.5727 126.577C10.7707 126.651 10.9625 126.731 11.1481 126.817C11.3894 126.934 11.6245 127.057 11.8534 127.192C12.0328 127.303 12.206 127.414 12.373 127.537C12.6205 127.715 12.8494 127.906 13.0721 128.109C13.2268 128.25 13.3753 128.398 13.5176 128.552C13.7093 128.755 13.8826 128.976 14.0496 129.198C14.1733 129.364 14.2909 129.536 14.4022 129.714C14.5507 129.954 14.6806 130.2 14.8044 130.452C14.891 130.643 14.9714 130.834 15.0456 131.031C15.1446 131.301 15.2312 131.578 15.3055 131.861C15.355 132.064 15.3921 132.267 15.4292 132.47C15.4725 132.753 15.5034 133.042 15.5158 133.337H8.97661L8.97043 133.356Z" fill="#1A1A1A"/>
<path d="M66.2706 51.727C67.3904 50.2508 68.1885 48.7254 68.4112 47.6367L67.7987 47.5137C67.5946 48.5101 66.8336 49.9494 65.7695 51.3518L66.2706 51.727Z" fill="#1A1A1A"/>
<path d="M58.1477 63.217C59.2861 60.7259 61.4452 57.8226 62.6144 56.5617L62.1505 56.1373C60.9564 57.429 58.7417 60.406 57.5724 62.9586L58.1416 63.217H58.1477Z" fill="#1A1A1A"/>
<path d="M28.0561 49.2913L27.5303 49.6358C27.6973 49.888 27.9262 50.1955 28.1861 50.5461C29.0584 51.7271 30.3761 53.5108 30.6854 54.9686L31.2979 54.8394C30.9576 53.2525 29.6461 51.4749 28.6933 50.1771C28.4397 49.8326 28.217 49.5312 28.0561 49.2913Z" fill="#1A1A1A"/>
<path d="M79.3737 84.6159C79.3428 84.6036 79.3119 84.5913 79.2809 84.579H74.276V85.4094C74.0904 85.5755 73.9419 85.7846 73.8553 86.0306V84.579H69.9516V85.5693C69.766 85.8154 69.6608 86.1229 69.6608 86.4489V87.6422L69.5371 87.5499V84.579H65.4539L64.8848 84.1608H79.2438C79.2871 84.0931 79.3304 84.0316 79.3675 83.9639C79.8748 83.9147 80.277 83.4288 80.277 82.8322C80.277 82.3155 79.9738 81.8788 79.5531 81.7435C79.5284 81.6943 79.5098 81.6512 79.4851 81.6081C79.4665 81.5774 79.448 81.5405 79.4232 81.5097H65.6334V81.0915H69.5309V77.0196C69.135 77.1733 68.7576 77.3579 68.3864 77.567C68.3616 77.567 68.3431 77.5793 68.3183 77.5793H68.3554C66.5304 78.6373 65.0766 80.3042 64.3094 81.602C64.2909 81.6389 64.2723 81.6758 64.2538 81.7066C63.7712 81.7865 63.4062 82.2601 63.4062 82.826C63.4062 82.9244 63.4186 83.0167 63.4371 83.109L62.7937 82.6415L62.8308 67.4303H62.206L62.1689 82.1863L54.6522 76.712C54.9058 71.902 56.5082 68.0823 57.4485 66.2309L57.9991 67.5533L58.2157 66.5815C58.5683 64.9761 60.9006 61.1503 62.3668 59.2681C63.0721 58.3762 63.5299 57.8534 64.0496 57.2506C64.1176 57.1706 64.1857 57.0968 64.2538 57.0107L64.9652 58.4008L65.0951 57.3921C65.2127 56.4756 65.8375 55.3869 66.5366 54.3289L67.6749 55.2638C70.1805 57.3182 71.6158 60.3445 71.6158 63.5737V69.2633C71.0095 69.3617 70.5517 69.8845 70.5517 70.5119C70.5517 71.3177 71.0404 71.3177 71.3498 72.2649C71.3745 72.3387 71.3931 72.4249 71.4178 72.5233C71.4797 72.7939 71.2755 72.8554 71.0837 72.7386C70.861 72.6032 70.6445 72.4372 70.5146 72.3264C70.4713 72.2834 70.428 72.2465 70.3785 72.2096L70.3723 72.2034C70.1743 72.062 69.933 71.9758 69.667 71.9758C69.005 71.9758 68.4668 72.511 68.4668 73.1691C68.4668 73.8273 69.005 74.3624 69.667 74.3624C69.9268 74.3624 70.1619 74.2824 70.3599 74.141C70.3599 74.141 70.3785 74.1287 70.4032 74.1102C70.4156 74.1041 70.4218 74.0979 70.4341 74.0856C70.5579 73.9933 70.8177 73.7904 71.1023 73.6181C71.2817 73.5013 71.4982 73.5382 71.4673 73.8457C71.4302 74.2086 71.2508 75.1559 70.9105 75.7156C70.7064 76.0477 70.4094 76.466 69.9701 76.8227V81.0853H73.8739V76.8043C73.348 76.4475 72.9335 76.0477 72.7417 75.6848C72.42 75.0759 72.3149 74.4854 72.2654 74.0856V73.655C72.3272 73.5382 72.4819 73.5197 72.6304 73.612C72.8345 73.7411 73.0078 73.8949 73.1377 73.9995C73.181 74.0425 73.2552 74.0856 73.3047 74.1225L73.3109 74.1287C73.5089 74.2701 73.7501 74.3562 74.0162 74.3562C74.6781 74.3562 75.2164 73.8211 75.2164 73.163C75.2164 72.5048 74.6781 71.9697 74.0162 71.9697C73.7563 71.9697 73.5212 72.0497 73.3233 72.1911C73.3233 72.1911 73.3047 72.2034 73.28 72.2219C73.2676 72.228 73.2614 72.2342 73.249 72.2465C73.1315 72.3387 72.8593 72.4987 72.6118 72.7016C72.4633 72.8185 72.3087 72.8247 72.2592 72.7016V72.511C72.2777 72.4249 72.2963 72.3387 72.321 72.2526C72.5066 71.5576 73.1129 71.3177 73.1129 70.5181C73.1129 69.9645 72.7541 69.497 72.2592 69.3248V63.5799C72.2592 60.1661 70.7373 56.9615 68.0894 54.7902L66.9016 53.8184C67.013 53.6585 67.1243 53.4985 67.2295 53.3386C67.7739 52.5513 68.2812 51.8132 68.6091 51.155C68.77 50.866 68.9246 50.583 69.0607 50.3124L69.8402 51.5549L69.9207 50.6261C69.9516 50.2878 69.9825 49.9556 70.0196 49.6358C70.1496 48.3933 70.2733 47.2123 70.131 45.4532H70.1248C70.0877 44.426 69.9268 43.4172 69.6423 42.4392L70.2671 42.6237L70.1929 42.1378C70.1681 41.9718 69.599 38.6257 65.3178 35.6117C65.2684 35.5318 65.2127 35.458 65.1508 35.3841L58.3085 26.9328V14.7602C58.3085 14.5879 58.1662 14.4465 57.9929 14.4465C57.7393 14.4465 57.1454 14.4465 56.7618 14.8278C56.5453 15.0431 56.4401 15.3445 56.4463 15.7074C56.4525 16.2487 56.5144 16.4763 56.601 16.833C56.6133 16.8822 56.6257 16.9376 56.6381 16.993C56.4649 16.8453 56.236 16.7285 55.939 16.7285C55.1595 16.7285 54.5285 17.3559 54.5285 18.1309C54.5285 18.9059 55.1595 19.5333 55.939 19.5333C56.3535 19.5333 56.6195 19.3303 56.7927 19.1396C56.7742 19.4656 56.7061 19.89 56.4772 20.3144C56.4092 20.4375 56.3349 20.5543 56.2607 20.6712C55.1533 19.5271 53.6623 18.6168 51.9239 18.0386C52.2456 17.7065 52.4436 17.2574 52.4436 16.7592C52.4436 15.7382 51.6084 14.9078 50.5814 14.9078C50.1855 14.9078 49.8019 15.0308 49.4802 15.2645C49.4802 15.2645 49.4678 15.2707 49.4617 15.2768C49.3874 15.3322 49.3194 15.3876 49.2637 15.4491C49.1585 15.5352 48.9172 15.732 48.6327 15.9104C48.6512 15.8366 48.6698 15.7628 48.6883 15.7013C48.8492 15.1969 49.0472 14.9324 49.2451 14.6741C49.4988 14.3358 49.7339 14.0159 49.7339 13.3393C49.7339 12.2629 48.8554 11.3895 47.7727 11.3895C46.6901 11.3895 45.8116 12.2629 45.8116 13.3393C45.8116 14.0344 46.1209 14.4588 46.3993 14.834C46.5849 15.0923 46.7643 15.3322 46.8509 15.6582C46.8695 15.7259 46.888 15.7935 46.9004 15.8612C46.7024 15.7074 46.4983 15.5721 46.3498 15.4675C46.2632 15.4122 46.1951 15.363 46.158 15.3384C46.1457 15.3261 46.1333 15.3199 46.1085 15.3015L46.0529 15.2584C46.0529 15.2584 46.0343 15.2399 46.0219 15.2338C45.7126 15.0185 45.3476 14.9078 44.9702 14.9078C43.9432 14.9078 43.108 15.7382 43.108 16.7592C43.108 17.2205 43.2813 17.6449 43.5659 17.9709C41.6913 18.5553 40.089 19.5333 38.9321 20.7573C38.8269 20.5851 38.7403 20.419 38.6599 20.2714C38.4062 19.7978 38.3815 19.3364 38.3629 18.9981C38.53 19.2196 38.8146 19.5394 39.3342 19.5394C40.1137 19.5394 40.7448 18.912 40.7448 18.137C40.7448 17.362 40.1137 16.7346 39.3342 16.7346C38.9507 16.7346 38.6785 16.9376 38.4867 17.1344C38.5176 17.0422 38.5485 16.9499 38.5795 16.8699C38.697 16.5562 38.8022 16.261 38.8269 15.7259C38.8393 15.363 38.7403 15.0677 38.53 14.8463C38.1526 14.4526 37.5401 14.4526 37.2803 14.4526C37.1071 14.4526 36.9648 14.5941 36.9648 14.7663V26.9943L30.1719 35.3903C30.0482 35.5441 29.943 35.704 29.8564 35.8701C25.897 38.8102 25.3588 41.9471 25.334 42.1071L25.2598 42.5684L25.8908 42.4146C25.6 43.4049 25.433 44.4321 25.4021 45.4716H25.3959C25.3959 45.6131 25.2536 49.0207 25.3959 50.6384L25.4639 51.3888L26.429 50.2509C26.6208 50.6876 26.8435 51.1181 27.0848 51.5364C27.1034 51.5672 27.1281 51.6041 27.1467 51.6348C27.2704 51.8501 27.4003 52.0592 27.5426 52.2622C27.5736 52.3053 27.6045 52.3545 27.6354 52.4037C27.9262 52.8588 28.2726 53.3878 28.6067 53.9476L27.5674 54.8025C27.1034 55.1839 26.6703 55.6021 26.2744 56.045L18.0153 50.0294L17.9101 49.9556L17.5389 50.46L77.06 93.7992L77.4312 93.2949L76.466 92.5937L72.5747 89.7581C72.6366 89.592 72.6737 89.4136 72.6737 89.223V89.0507C72.7541 89.0384 72.8345 89.0261 72.915 89.0138C72.8531 89.6904 73.2614 90.3486 73.9357 90.57C74.0904 90.6192 74.2513 90.6438 74.4059 90.6438C75.0369 90.6438 75.6247 90.244 75.835 89.6228L76.1877 88.571L79.3181 87.3777C79.6954 87.2362 79.9862 86.9533 80.1532 86.5904C80.3141 86.2275 80.3265 85.8215 80.1842 85.4463C80.0419 85.0711 79.7573 84.782 79.3923 84.6159H79.3737ZM79.2871 82.1187C79.4913 82.1187 79.6645 82.2478 79.7697 82.4508C79.8254 82.5615 79.8625 82.6969 79.8625 82.8383C79.8625 83.0536 79.7882 83.2443 79.6645 83.3735C79.5655 83.4842 79.4356 83.5518 79.2871 83.5518C78.9716 83.5518 78.7118 83.232 78.7118 82.8322C78.7118 82.4324 78.9654 82.1125 79.2871 82.1125V82.1187ZM76.0887 82.1187C76.5341 82.1187 76.8929 82.4385 76.8929 82.8383C76.8929 83.2381 76.5341 83.558 76.0887 83.558C75.6432 83.558 75.2844 83.2381 75.2844 82.8383C75.2844 82.4385 75.6432 82.1187 76.0887 82.1187ZM71.6158 82.1433C71.6838 82.131 71.7581 82.1187 71.8385 82.1187C71.987 82.1187 72.1231 82.1494 72.2468 82.2048C72.5252 82.3278 72.7108 82.5615 72.7108 82.8383C72.7108 83.1151 72.519 83.3489 72.2468 83.4719C72.1231 83.5272 71.987 83.558 71.8385 83.558C71.7643 83.558 71.69 83.5457 71.6158 83.5334C71.2384 83.4534 70.96 83.1766 70.96 82.8383C70.96 82.5 71.2384 82.2232 71.6158 82.1433ZM67.6069 82.1187C68.0523 82.1187 68.4111 82.4385 68.4111 82.8383C68.4111 83.2381 68.0523 83.558 67.6069 83.558C67.1614 83.558 66.8026 83.2381 66.8026 82.8383C66.8026 82.4385 67.1614 82.1187 67.6069 82.1187ZM70.0939 73.286C70.0939 73.0276 69.8835 72.8185 69.6237 72.8185V72.4002C70.1124 72.4002 70.5146 72.8001 70.5146 73.286H70.0939ZM73.8924 72.4002C74.3812 72.4002 74.7833 72.8001 74.7833 73.286H74.3626C74.3626 73.0276 74.1523 72.8185 73.8924 72.8185V72.4002ZM72.8717 76.8781V77.2964H71.2879V76.8781H72.8717ZM71.7581 69.6631C71.9375 69.6631 72.1045 69.7185 72.2468 69.8107C72.4881 69.9706 72.6489 70.2413 72.6489 70.5488H72.2282C72.2282 70.2905 72.0179 70.0814 71.7581 70.0814V69.6631ZM56.0194 27.3695H57.8507L57.9311 27.4679L57.9868 27.5356L57.9991 27.5479L58.3023 27.9231L58.426 28.0707L60.8016 31.0047L60.8635 31.0785L63.7155 34.603L64.6621 35.7716C64.7363 35.8639 64.8044 35.9623 64.86 36.0607C65.0518 36.3867 65.157 36.7496 65.1756 37.1187C65.1756 37.211 65.1756 37.3094 65.1756 37.4078C65.1508 37.6907 65.0828 37.9737 64.9528 38.2443C64.5569 39.0624 63.7465 39.5667 62.837 39.5667H62.0328C62.3854 39.29 62.6824 38.9332 62.8865 38.5088C63.1959 37.8629 63.2577 37.1618 63.0907 36.5036C63.0164 36.2022 62.8865 35.9193 62.7133 35.6486C62.6514 35.5564 62.5896 35.4641 62.5215 35.378L59.4282 31.5583H59.4159C59.4159 31.5583 59.3911 31.5091 59.3725 31.4845L58.3332 30.1989L58.3208 30.1866L58.0177 29.8114L58.0053 29.7991L57.7022 29.4239L57.6898 29.4116L57.2506 28.8703L57.0464 28.6182L56.8361 28.3598L56.038 27.3695H56.0194ZM60.2387 38.5149C60.7398 37.4816 60.5975 36.276 59.8737 35.3841L58.3085 33.4528V31.1954L58.8591 31.8781L62.0142 35.7716C62.5834 36.479 62.6947 37.4262 62.305 38.2443C61.909 39.0624 61.0986 39.5667 60.1892 39.5667H59.3849C59.7376 39.29 60.0345 38.9332 60.2387 38.5088V38.5149ZM58.3146 39.4499V34.4492L59.3911 35.7778C59.9603 36.4852 60.0716 37.4324 59.6819 38.2505C59.4035 38.8348 58.9086 39.2592 58.3208 39.456L58.3146 39.4499ZM51.497 48.75C51.5032 48.8854 51.5218 49.0084 51.5403 49.1252C51.6208 49.5743 51.7754 49.8757 51.9239 50.1463C52.1157 50.503 52.2827 50.8167 52.2827 51.4749C52.2827 52.133 52.1157 52.4467 51.9239 52.8035C51.7198 53.1848 51.4909 53.6093 51.4909 54.4273C51.4909 55.2454 51.7198 55.676 51.9239 56.0512C52.1157 56.4079 52.2827 56.7216 52.2827 57.3798C52.2827 57.4228 52.2827 57.4659 52.2827 57.5089C52.2827 57.5151 52.2827 57.5274 52.2827 57.5397C52.2518 58.0441 52.0724 58.3577 51.8806 58.6776C51.6208 59.1082 51.33 59.6002 51.5094 60.486C51.6455 61.1687 51.9054 61.6239 52.1157 61.9929C52.2951 62.3066 52.425 62.5342 52.4374 62.811H43.5782C43.4916 62.6203 43.4174 62.4604 43.3493 62.3189C43.0152 61.6177 42.9348 61.4516 42.9348 60.3445C42.9348 59.6863 43.1019 59.3726 43.2936 59.0159C43.4978 58.6345 43.7267 58.2101 43.7267 57.3921C43.7267 56.574 43.4978 56.1434 43.2936 55.7682C43.1019 55.4115 42.9348 55.0978 42.9348 54.4396C42.9348 53.7815 43.1019 53.4678 43.2936 53.111C43.4978 52.7297 43.7267 52.3053 43.7267 51.4872C43.7267 51.0505 43.6587 50.7245 43.5659 50.46C43.5659 50.4538 43.5659 50.4415 43.5597 50.4354C43.4792 50.214 43.3864 50.0356 43.2936 49.8634C43.139 49.5804 43.0091 49.3221 42.9534 48.9038C42.941 48.7931 42.9286 48.6701 42.9286 48.5348C42.9286 48.504 42.9286 48.4794 42.9286 48.4548C42.9286 48.3133 42.941 48.1842 42.9596 48.0734C42.9596 48.055 42.9658 48.0365 42.9719 48.0181C42.9905 47.9135 43.0152 47.8213 43.0462 47.7351C43.1142 47.5383 43.1947 47.3784 43.2875 47.2062C43.4916 46.8248 43.7205 46.4004 43.7205 45.5823C43.7205 44.8319 43.4112 44.3398 43.1575 43.94C43.1452 43.9216 43.1328 43.9031 43.1204 43.8847H45.2239C46.6035 43.8847 47.3087 43.2942 47.649 42.8267C48.0078 43.2942 48.7255 43.8847 50.0865 43.8847H52.0043C52.2271 44.3768 52.2889 44.6351 52.2889 45.5762C52.2889 46.2343 52.1219 46.548 51.9301 46.9048C51.7445 47.2554 51.5342 47.649 51.5032 48.3502C51.5032 48.4117 51.497 48.4671 51.497 48.5286C51.497 48.6086 51.497 48.6824 51.5032 48.7562L51.497 48.75ZM52.2827 63.4322C52.1281 63.6229 51.9858 63.8074 51.8682 63.9674C51.8126 63.789 51.7569 63.6106 51.7012 63.4322H52.2827ZM42.8297 43.2511H41.9635C42.1244 41.4612 43.6401 40.0527 45.4775 40.0527H49.7957C51.6331 40.0527 53.155 41.4612 53.3097 43.2511H50.0865C49.2018 43.2511 48.6636 42.9559 48.3481 42.6545C48.0449 42.3716 47.9459 42.0886 47.9398 42.064L47.6242 41.086L47.3397 42.0763C47.3397 42.0763 47.2592 42.3408 47.0118 42.6053C46.721 42.919 46.1828 43.2511 45.23 43.2511H42.8358H42.8297ZM52.4745 47.1939C52.6787 46.8125 52.9076 46.3881 52.9076 45.57C52.9076 44.6782 52.8457 44.2968 52.6787 43.8785H53.9469V43.5648C53.9469 41.2829 52.0848 39.4314 49.7895 39.4314H48.8677V33.6065C48.8677 33.5204 48.8677 33.4343 48.8677 33.3482C48.8677 33.2375 48.8739 33.1329 48.8801 33.0345C48.8863 32.9238 48.8925 32.8192 48.9049 32.7208C49.1028 30.7587 50.0432 30.3219 51.9054 29.8975L51.7631 29.2886C49.8329 29.7315 48.5027 30.2358 48.2738 32.77C48.2676 32.8684 48.2553 32.9791 48.2491 33.0837C48.2491 33.1821 48.2429 33.2867 48.2367 33.3974C48.2367 33.4712 48.2367 33.5389 48.2367 33.6127V39.4376H45.4713C43.1823 39.4376 41.3139 41.289 41.3139 43.571V43.8847H42.3904C42.4585 44.02 42.5389 44.1492 42.6193 44.2722C42.8606 44.6535 43.0833 45.0103 43.0833 45.5823C43.0833 46.2405 42.9163 46.5542 42.7245 46.9109C42.6564 47.0339 42.5884 47.1631 42.5265 47.3046L41.1902 46.179L38.9816 44.3152L38.9136 44.2599C38.0722 43.5525 37.5896 42.5192 37.5896 41.4182V40.2064V39.5852V30.4819L37.6267 30.4388L38.431 29.4485L38.629 29.2025L38.8331 28.9503L40.1014 27.3818H55.209L56.4525 28.9195L56.6566 29.1717L56.8546 29.4178L57.6712 30.4265V39.5852V40.2064V41.4243C57.6712 42.5192 57.1887 43.5525 56.3473 44.266L52.2271 47.7413C52.2951 47.5445 52.3817 47.3845 52.4745 47.2123V47.1939ZM49.5235 16.8822C49.5235 16.2856 50.0123 15.7997 50.6124 15.7997H50.8227V16.2179H50.6124C50.2412 16.2179 49.9442 16.5193 49.9442 16.8822V17.0914H49.5235V16.8822ZM49.2513 18.0755C49.307 18.1124 49.3503 18.1493 49.3874 18.1801C49.3998 18.1924 49.4122 18.1985 49.4369 18.217L49.4926 18.26C49.4926 18.26 49.5112 18.2785 49.5235 18.2846C49.8329 18.4999 50.1979 18.6106 50.5752 18.6106C50.8165 18.6106 51.0392 18.5614 51.2496 18.4815C53.1241 19.0166 54.7264 19.9577 55.8586 21.1571C55.0481 21.9998 53.8665 22.3319 52.3384 22.1474C51.033 21.8952 49.9937 21.1387 49.2389 19.89C49.2266 19.8654 49.2142 19.8408 49.1956 19.8162C50.5629 20.0192 51.8435 20.4805 52.9014 21.1633L53.2417 20.6404C52.0105 19.8408 50.501 19.3303 48.9049 19.1458C48.775 18.7644 48.676 18.3523 48.6203 18.014C48.8306 18.0263 49.0348 18.0509 49.2389 18.0755H49.2513ZM46.7643 13.5546V13.3455C46.7643 12.7488 47.253 12.2629 47.8531 12.2629H48.0635V12.6812H47.8531C47.482 12.6812 47.185 12.9826 47.185 13.3455V13.5546H46.7643ZM44.0175 16.8822C44.0175 16.2856 44.5062 15.7997 45.1063 15.7997H45.3167V16.2179H45.1063C44.7351 16.2179 44.4382 16.5193 44.4382 16.8822V17.0914H44.0175V16.8822ZM44.1783 18.4261C44.4196 18.5368 44.6856 18.6045 44.9702 18.6045C45.3661 18.6045 45.7497 18.4815 46.0714 18.2477C46.0714 18.2477 46.0838 18.2416 46.09 18.2354C46.1085 18.2231 46.1271 18.2108 46.1457 18.1985C46.2013 18.1616 46.2694 18.1186 46.3251 18.0632L46.356 18.0386C46.5416 18.0202 46.7334 18.0078 46.919 17.9955C46.8757 18.3031 46.8076 18.6906 46.6653 19.115C44.9207 19.2626 43.2751 19.8039 41.9512 20.6835L42.2976 21.2063C43.4545 20.4436 44.8774 19.9515 46.3993 19.7732C46.3807 19.8039 46.3684 19.8347 46.356 19.8654C45.9106 20.7081 44.4629 21.7045 42.9781 22.1843C40.9675 22.621 39.9158 21.9936 39.3033 21.2678C40.4788 19.9823 42.1801 18.9735 44.1907 18.4323L44.1783 18.4261ZM39.1796 24.7677H55.9081V25.1859H39.1796V24.7677ZM37.7072 24.2695V22.8917H38.0227V26.2255H37.7072V24.2695ZM30.3513 36.2822C30.4318 36.1038 30.5369 35.9316 30.6607 35.7716L31.434 34.8183L34.4592 31.0785L34.5211 31.0047L36.8967 28.0707L36.971 27.9785L37.2865 27.5909L37.3236 27.5479L37.3607 27.5048L37.4721 27.3634H39.3033L38.4743 28.3844L38.264 28.6428L38.0598 28.8949L37.6329 29.4178L37.5958 29.4608L37.3174 29.8053L37.2803 29.8483L37.0019 30.1928L36.9648 30.2358L35.9626 31.4783C35.9626 31.4783 35.9316 31.5275 35.9192 31.5583H35.9069L32.8136 35.3718C32.3496 35.95 32.1269 36.6512 32.1578 37.3524C32.1702 37.5923 32.2073 37.8322 32.2815 38.0721C32.3249 38.2197 32.3805 38.3612 32.4486 38.5026C32.6527 38.9271 32.9435 39.2838 33.3023 39.5606H32.4981C32.0588 39.5606 31.6443 39.4437 31.2855 39.2285C31.1803 39.1669 31.0813 39.0931 30.9886 39.0193C30.9205 38.9578 30.8524 38.8963 30.7844 38.8286C30.7473 38.7917 30.7163 38.7548 30.6854 38.7118C30.6174 38.6318 30.5617 38.5457 30.506 38.4596C30.4627 38.3919 30.4194 38.3181 30.3823 38.2382C30.3823 38.2259 30.3761 38.2136 30.3699 38.2074C30.0791 37.58 30.0853 36.885 30.3637 36.276L30.3513 36.2822ZM35.4429 35.3841C34.7191 36.276 34.5768 37.4816 35.0779 38.5149C35.282 38.9394 35.5728 39.2961 35.9316 39.5729H35.1274C34.2179 39.5729 33.4075 39.0624 33.0116 38.2505C32.9064 38.029 32.8383 37.8014 32.8074 37.5739C32.8012 37.5247 32.795 37.4754 32.795 37.4262C32.7455 36.8419 32.9188 36.2576 33.3023 35.7839L36.4575 31.8904L36.971 31.2507V33.5081L35.4429 35.3903V35.3841ZM36.9648 34.4923V39.4376C36.3894 39.2346 35.9131 38.8163 35.6409 38.2443C35.2449 37.4262 35.3563 36.479 35.9316 35.7716L36.971 34.4923H36.9648ZM26.7693 56.4141C27.1343 56.0081 27.5303 55.6329 27.9509 55.2823L28.916 54.495C29.4914 55.4976 29.9987 56.5555 30.1657 57.429L30.2957 58.0994L31.1989 56.9615C31.2917 57.0661 31.3783 57.1706 31.4649 57.269C31.9537 57.8349 32.3867 58.3331 33.0301 59.1389C33.0487 59.1635 33.0734 59.1881 33.092 59.2189C33.092 59.2189 33.092 59.2189 33.0982 59.225C33.7478 60.0554 34.5582 61.3225 35.282 62.608L26.7755 56.4141H26.7693ZM50.8165 73.9257C50.7423 73.7411 50.6557 73.4951 50.5938 73.1999C50.5443 72.9784 50.4948 72.7262 50.4515 72.4679C50.4144 72.2526 50.4886 72.2157 50.5629 72.2895C50.6742 72.4064 50.7856 72.5356 50.8351 72.5971C50.8351 72.5971 50.8413 72.6094 50.8475 72.6094C50.8598 72.6217 50.866 72.634 50.866 72.634C50.9464 72.7262 51.033 72.7755 51.1258 72.7632C51.3609 72.7386 51.5094 72.3387 51.4599 71.8774C51.4104 71.41 51.1815 71.0532 50.9464 71.0778C50.8536 71.0901 50.7732 71.1578 50.7113 71.2685C50.699 71.2931 50.6804 71.3238 50.6742 71.3546C50.6371 71.4407 50.5691 71.5637 50.501 71.6683C50.4391 71.7606 50.3649 71.7237 50.3649 71.5268C50.3649 71.4592 50.3649 71.3977 50.3649 71.3423C50.402 70.6534 50.5257 70.1736 50.5257 70.1736C50.5567 70.026 50.5691 69.8476 50.5505 69.6631C50.501 69.1649 50.2535 68.7897 50.0061 68.8143C49.7586 68.8389 49.5978 69.2633 49.6534 69.7615C49.672 69.9522 49.7215 70.1244 49.7895 70.2659C49.7895 70.2659 50.0679 70.8625 50.1855 71.3484C50.1979 71.41 50.2164 71.4715 50.2288 71.5391C50.2721 71.7421 50.1979 71.7852 50.1174 71.6806C50.0123 71.5453 49.9071 71.4407 49.8576 71.3854C49.8576 71.3854 49.8514 71.3731 49.8452 71.3731C49.8329 71.3607 49.8267 71.3484 49.8267 71.3484C49.7462 71.2562 49.6596 71.207 49.5668 71.2193C49.3317 71.2439 49.1833 71.6437 49.2328 72.105C49.2822 72.5725 49.5112 72.9292 49.7462 72.9046C49.839 72.8923 49.9195 72.8247 49.9813 72.7139C49.9937 72.6893 50.0185 72.6524 50.0308 72.6217C50.0679 72.5417 50.1174 72.4249 50.1793 72.3264C50.2412 72.228 50.3278 72.2711 50.334 72.4741C50.3463 72.7324 50.3525 72.9907 50.3463 73.2183C50.3463 73.3475 50.3402 73.4644 50.334 73.5689L38.6042 65.0253C37.7567 62.8848 35.5233 59.0713 34.1808 57.5889L33.7168 58.0071C34.8428 59.2558 36.6245 62.1959 37.6082 64.2995L36.4389 63.4507C35.6594 61.9376 34.6634 60.3014 33.8344 59.1697H33.8406C33.7106 58.9913 33.5869 58.8375 33.4694 58.6899C33.457 58.6776 33.4446 58.6591 33.4322 58.6407C32.826 57.8841 32.3991 57.3921 31.9289 56.8446C31.7681 56.6601 31.601 56.4633 31.4154 56.2541L31.168 55.965L30.6112 56.6663C30.1224 55.1162 28.947 53.3017 28.1427 52.0469C27.9448 51.7394 27.7715 51.4687 27.6416 51.2535C27.3137 50.6999 27.0353 50.1217 26.8002 49.5251L26.6085 49.033L25.9712 49.7895C25.9217 48.3994 25.9836 46.4619 26.0084 45.7546H26.0207C26.0331 44.4936 26.2496 43.2511 26.6579 42.064L26.8435 41.5227L26.0764 41.7134C26.3548 40.84 27.2024 38.884 29.5223 36.9219C29.4667 37.4385 29.5533 37.9737 29.7822 38.4657C29.7079 38.5272 29.6337 38.6011 29.5656 38.6872C29.2316 39.0931 29.1449 39.5421 29.3058 39.6406C29.3677 39.6775 29.4605 39.659 29.5656 39.6037C29.5656 39.6037 29.5718 39.6037 29.5904 39.5914C29.5904 39.5914 29.6028 39.5914 29.6089 39.5852C29.677 39.5483 29.8193 39.4683 29.9616 39.413C30.0544 39.3761 30.0853 39.4314 29.9492 39.6037C29.7945 39.8066 29.6461 40.0158 29.5223 40.2064C29.0831 40.8707 28.7861 41.2767 28.7861 41.2767C28.9717 41.1721 29.0645 41.1229 29.2563 41.0307C29.3429 41.2152 29.3924 41.3075 29.4914 41.4797C29.4914 41.4797 29.3367 41.1475 29.6956 40.2926C29.7822 40.0896 29.8935 39.8681 30.0296 39.6529C30.1348 39.4868 30.2152 39.4806 30.2152 39.5914C30.2152 39.6959 30.1905 39.8066 30.1843 39.8866C30.1843 39.9173 30.1843 39.9543 30.1843 39.9789C30.1843 40.0896 30.209 40.1757 30.2771 40.2126C30.4379 40.311 30.7349 40.1203 30.9824 39.8128C30.9947 39.8005 31.0009 39.7882 31.0071 39.7759C31.4464 40.0281 31.9537 40.1695 32.4919 40.1695H36.971V40.6739H33.6178V41.2952H36.971V41.3751C36.971 41.5227 36.9772 41.6704 36.9957 41.818H35.4243V42.4392H37.1071C37.3298 43.3065 37.8123 44.0938 38.5176 44.6843L40.9366 46.7264C41.3882 47.1631 41.8522 47.6367 42.3162 48.1473C42.3038 48.2518 42.2976 48.3625 42.2976 48.4856C42.2976 48.7562 42.3224 48.9776 42.3657 49.1745C40.8438 47.6859 39.3281 46.4189 39.3095 46.4004L38.9074 46.8802C38.9074 46.8802 41.2335 48.83 42.9967 50.7122C43.0524 50.909 43.0895 51.1366 43.0895 51.438C43.0895 52.0961 42.9224 52.4098 42.7307 52.7666C42.5265 53.1479 42.2976 53.5723 42.2976 54.3904C42.2976 55.2085 42.5265 55.639 42.7307 56.0143C42.9224 56.371 43.0895 56.6847 43.0895 57.3428C43.0895 58.001 42.9224 58.3147 42.7307 58.6714C42.5265 59.0528 42.2976 59.4772 42.2976 60.2953C42.2976 61.5439 42.4152 61.7961 42.774 62.5404C42.8606 62.7187 42.9596 62.934 43.0833 63.1985L43.1637 63.383H51.0578C52.2085 66.9998 52.9447 71.0409 52.9942 75.4572L50.8165 73.8765V73.9257ZM53.6252 75.9678C53.6252 75.3281 53.6067 74.6884 53.5757 74.0548C54.1325 69.6816 56.0132 66.1325 56.5762 65.1483L56.0318 64.8408C55.5616 65.665 54.1944 68.2361 53.3963 71.5883C53.3283 70.9179 53.2417 70.2474 53.1365 69.577C53.5077 68.4206 53.9655 67.092 54.7141 65.8618L54.1758 65.542C53.6314 66.44 53.2355 67.3811 52.9138 68.273C52.8148 67.7563 52.7158 67.2458 52.5982 66.7353C52.9261 65.9849 53.7675 64.5886 54.2934 64.0104L53.8294 63.5922C53.3778 64.0904 52.7838 65.0376 52.3693 65.7942C52.2766 65.4251 52.1776 65.0622 52.0786 64.6932L52.1157 64.7116C52.3075 64.3672 53.551 62.811 54.0459 62.3927L53.6438 61.913C53.4891 62.0421 53.2664 62.2697 53.0313 62.5404C52.9818 62.282 52.8705 62.0544 52.7405 61.8269C53.0622 61.5255 53.7675 60.8796 54.1016 60.5844L53.6871 60.1169C53.3839 60.3875 52.7838 60.935 52.425 61.2671C52.3137 61.0457 52.2147 60.7935 52.1404 60.486C52.2704 60.3568 52.4807 60.1292 52.7405 59.8401C53.1983 59.3296 53.8294 58.6284 54.2624 58.2593L53.8541 57.7857C53.3963 58.1855 52.7777 58.8683 52.2765 59.4219C52.2209 59.4834 52.1714 59.5387 52.1219 59.5941C52.1838 59.3788 52.2889 59.1943 52.4127 58.9913C52.6044 58.6714 52.8148 58.3147 52.8828 57.7734C53.4953 57.1276 54.6151 56.1496 55.0358 55.8543L54.6769 55.3438C54.3243 55.5898 53.5201 56.2726 52.8766 56.8938C52.8333 56.5863 52.7529 56.3403 52.6663 56.1373C53.0189 55.8174 53.6747 55.2146 54.1016 54.8456L53.6871 54.3781C53.3035 54.7103 52.7405 55.2208 52.3693 55.5652C52.2456 55.3254 52.1528 55.0732 52.1219 54.6795L52.1343 54.6918L52.3322 54.5073C52.9571 53.9291 54.6213 52.3852 54.943 52.1638L54.5841 51.6533C54.2934 51.8501 53.2417 52.8158 52.1838 53.7938C52.2518 53.517 52.357 53.3202 52.4745 53.0987C52.623 52.8281 52.7838 52.5205 52.8581 52.0715C53.8479 51.155 55.1038 50.0663 55.7782 49.5989L55.4193 49.0883C54.7945 49.5189 53.7675 50.3985 52.8952 51.192C52.8643 50.7798 52.7715 50.4846 52.6601 50.2324C53.3778 49.6419 55.475 47.9135 57.0835 46.7449L56.7123 46.2405C55.1657 47.3599 53.1736 48.9899 52.3632 49.6604C52.2271 49.3897 52.1219 49.1068 52.1033 48.6332L56.7433 44.7212C57.4423 44.1307 57.9311 43.3434 58.1538 42.4761H59.088V41.8549H58.2652C58.2775 41.7073 58.2899 41.5596 58.2899 41.412V41.3321H61.3832V40.7108H58.2899V40.2064H62.8185C63.9754 40.2064 65.0023 39.5606 65.5034 38.5273C65.7757 37.9614 65.8561 37.3463 65.7571 36.7619C68.2317 38.7733 69.1288 40.8215 69.4257 41.7442L68.6586 41.5166L68.8566 42.0886C69.2649 43.2757 69.4814 44.5182 69.4938 45.7792H69.5123C69.6237 47.3415 69.5062 48.4363 69.3824 49.5866C69.3824 49.6173 69.3762 49.6481 69.37 49.6727L68.9246 48.9653L68.6957 49.5435C68.3802 50.3493 67.6997 51.481 67.1614 52.2745L67.1738 52.2868C67.0192 52.5205 66.8521 52.7543 66.6851 52.9942C66.5119 53.2402 66.3386 53.4985 66.1654 53.7569L66.0169 53.9353L66.0355 53.9537C65.4787 54.7902 64.9528 55.6637 64.6683 56.4879L64.3775 55.922L64.0743 56.2787C63.8887 56.494 63.7217 56.6847 63.567 56.8692C63.0907 57.4167 62.6638 57.9087 62.0575 58.6714C62.0575 58.6714 62.0142 58.7268 61.9895 58.7514C61.8781 58.8867 61.7668 59.0282 61.643 59.1881C60.3624 60.8981 58.5807 63.789 57.8568 65.6281L57.5104 64.7916L57.1949 65.3636C56.3535 66.8952 54.4047 70.9732 54.0397 76.2938L53.6005 75.9739L53.6252 75.9678ZM64.4084 83.558C64.328 83.558 64.2538 83.5395 64.1857 83.5026C63.9815 83.3919 63.8331 83.1397 63.8331 82.8383C63.8331 82.5984 63.9259 82.3893 64.0743 82.254C64.1671 82.1679 64.2847 82.1187 64.4084 82.1187C64.7239 82.1187 64.9838 82.4385 64.9838 82.8383C64.9838 83.2381 64.7301 83.558 64.4084 83.558ZM68.8009 87.0209L67.2604 85.9015C67.4213 85.7108 67.6564 85.5878 67.9286 85.5878C68.4111 85.5878 68.8009 85.9753 68.8009 86.4551V87.0209ZM72.0365 88.1835V89.223C72.0365 89.2722 72.0303 89.3214 72.0241 89.3644L71.6591 89.0999L70.2919 88.1035V86.4551C70.2919 85.9753 70.6816 85.5878 71.1642 85.5878C71.3312 85.5878 71.4859 85.637 71.622 85.7169C71.8694 85.8707 72.0365 86.1414 72.0365 86.4551V88.1835ZM76.101 86.7934L75.7732 87.7714L75.668 88.0912L75.5443 88.4664L75.4329 88.8047L75.2287 89.4198C75.0803 89.875 74.5791 90.121 74.1275 89.9734C73.6697 89.8258 73.4223 89.3337 73.5707 88.8785L73.5831 88.8478L73.8615 88.0112L73.8739 87.9743L74.0471 87.4515L74.276 86.7564L74.3502 86.535L74.443 86.2459C74.474 86.1475 74.5297 86.0553 74.5915 85.9753C74.7586 85.7723 75.006 85.6493 75.272 85.6493C75.3153 85.6493 75.3587 85.6493 75.4081 85.6616C75.4576 85.6677 75.5009 85.68 75.5504 85.6923C75.6494 85.7231 75.736 85.7785 75.8165 85.84C75.9031 85.9076 75.9773 85.9937 76.033 86.0922C76.1505 86.3013 76.1876 86.5473 76.1072 86.7934H76.101ZM79.5593 86.332C79.4665 86.5412 79.2933 86.7072 79.0768 86.7872L76.4289 87.796L76.664 87.0886C77.3878 86.4797 78.0189 85.7969 78.5385 85.1388C78.6128 85.1203 78.687 85.1019 78.7675 85.1019C78.8912 85.1019 79.0087 85.1265 79.1201 85.1757C79.3304 85.2679 79.4975 85.4402 79.5779 85.6554C79.6645 85.8707 79.6583 86.1106 79.5593 86.3197V86.332Z" fill="#1A1A1A"/>
<path d="M74.2761 77.0749V81.0976H79.1635C78.3531 79.9043 77.0601 78.5327 75.4825 77.61C75.0989 77.3824 74.6968 77.1856 74.2761 77.0257V77.0811V77.0749Z" fill="#1A1A1A"/>
<path d="M42.4461 29.0364C42.1244 28.9749 41.7965 28.9503 41.4563 28.9503C41.1779 28.9503 40.8871 28.9687 40.6025 29.0118C40.2128 29.0672 39.8168 29.1656 39.4209 29.2947L39.5941 29.8053L39.6251 29.8852C39.6251 29.8852 39.656 29.8729 39.6684 29.8729C39.7673 29.8422 39.8725 29.8114 39.9777 29.7807C40.2561 29.7068 40.5778 29.6392 40.9242 29.6023C41.3573 29.5592 41.8275 29.5592 42.3224 29.6515L42.4276 29.6699C43.3803 29.8483 44.2093 30.0082 44.8403 30.242L45.0569 29.6576C44.3702 29.4055 43.5226 29.2455 42.5389 29.061L42.4338 29.0425L42.4461 29.0364Z" fill="#1A1A1A"/>
<path d="M54.6337 28.9134C54.3924 28.8887 54.1264 28.8887 53.8418 28.9318C53.7366 28.9503 53.6253 28.9687 53.5139 28.9933L53.6686 29.5961C53.8975 29.5407 54.1202 29.5161 54.3244 29.5223C54.6894 29.5223 55.0049 29.6023 55.2647 29.6884C55.3884 29.7314 55.506 29.7745 55.5988 29.8114C55.6174 29.8175 55.6297 29.8237 55.6483 29.8298C55.704 29.8544 55.7535 29.8729 55.8029 29.8852L55.9143 29.5592L56.0071 29.2947C55.9576 29.2763 55.9019 29.2578 55.8339 29.227C55.5617 29.1225 55.1534 28.9626 54.6399 28.9072L54.6337 28.9134Z" fill="#1A1A1A"/>
<path d="M51.367 32.567H51.1876V33.1882H51.7073C51.5031 33.3851 51.3732 33.6619 51.3732 33.9694C51.3732 34.5722 51.862 35.0581 52.4682 35.0581C53.0745 35.0581 53.5633 34.5722 53.5633 33.9694C53.5633 33.6619 53.4333 33.3851 53.2292 33.1882H53.8788V32.567H51.3547H51.367ZM52.4744 33.2067C52.8951 33.2067 53.2416 33.5511 53.2416 33.9694H52.8209C52.8209 33.7787 52.6662 33.625 52.4744 33.625V33.2067Z" fill="#1A1A1A"/>
<path d="M42.91 32.567H41.5737V33.1882H41.9882C41.7841 33.3851 41.6542 33.6619 41.6542 33.9694C41.6542 34.5722 42.1429 35.0581 42.7492 35.0581C43.3555 35.0581 43.8442 34.5722 43.8442 33.9694C43.8442 33.6619 43.7143 33.3851 43.5101 33.1882H44.2649V32.567H42.9038H42.91ZM43.5163 33.9694H43.0956C43.0956 33.7787 42.941 33.625 42.7492 33.625V33.2067C43.1699 33.2067 43.5163 33.5511 43.5163 33.9694Z" fill="#1A1A1A"/>
<path d="M46.0528 45.57C46.0528 45.2194 45.9847 44.8873 45.8425 44.5613L45.2671 44.8073C45.3723 45.0533 45.428 45.2994 45.428 45.5639C45.428 46.222 45.2609 46.5357 45.0691 46.8925C44.865 47.2738 44.6361 47.6982 44.6361 48.5163C44.6361 48.7377 44.6546 48.9223 44.6794 49.0945C44.7103 49.2975 44.766 49.4697 44.8217 49.6235C44.8959 49.8203 44.9825 49.9864 45.0691 50.1401C45.0939 50.1832 45.1186 50.2324 45.1434 50.2755C45.2547 50.4846 45.3413 50.6937 45.3908 50.9828C45.4156 51.1243 45.428 51.2781 45.428 51.4687C45.428 51.6779 45.4094 51.8439 45.3785 51.9977C45.3166 52.3299 45.199 52.5513 45.0629 52.7973C44.8588 53.1787 44.6299 53.6031 44.6299 54.4212C44.6299 55.2392 44.8588 55.6698 45.0629 56.045C45.2547 56.4018 45.4218 56.7155 45.4218 57.3736C45.4218 58.0317 45.2547 58.3454 45.0629 58.7022C44.8588 59.0836 44.6299 59.508 44.6299 60.326C44.6299 61.2671 44.6918 61.6485 44.9268 62.1836L45.5022 61.9314C45.3166 61.5132 45.2609 61.2241 45.2609 60.326C45.2609 59.6679 45.4279 59.3542 45.6197 58.9974C45.8239 58.6161 46.0528 58.1917 46.0528 57.3736C46.0528 56.5555 45.8239 56.125 45.6197 55.7498C45.4279 55.393 45.2609 55.0793 45.2609 54.4212C45.2609 53.763 45.4279 53.4493 45.6197 53.0926C45.694 52.9573 45.7682 52.8158 45.8363 52.6559C45.9229 52.4467 45.9971 52.2007 46.028 51.887C46.0404 51.7578 46.0528 51.6225 46.0528 51.4749C46.0528 51.1796 46.0219 50.9398 45.9724 50.7306C45.9414 50.583 45.8981 50.4538 45.8486 50.3308C45.7744 50.1463 45.694 49.9925 45.6136 49.8449C45.6136 49.8449 45.6136 49.8449 45.6136 49.8387C45.4218 49.482 45.2547 49.1745 45.2547 48.5163C45.2547 47.8582 45.4218 47.5445 45.6136 47.1877C45.8177 46.8064 46.0466 46.3819 46.0466 45.5639L46.0528 45.57Z" fill="#1A1A1A"/>
<path d="M48.3852 45.57H47.7603C47.7603 46.2281 47.5933 46.5418 47.4015 46.8986C47.1974 47.2799 46.9685 47.7043 46.9685 48.5224C46.9685 49.3405 47.1974 49.771 47.4015 50.1462C47.4572 50.2447 47.5067 50.3369 47.55 50.4353C47.5933 50.5338 47.6366 50.6322 47.6675 50.7429C47.6985 50.8352 47.717 50.9397 47.7356 51.0566C47.7542 51.1796 47.7603 51.3149 47.7603 51.4687C47.7603 52.1268 47.5933 52.4405 47.4015 52.7973C47.2964 53.0003 47.1788 53.2155 47.0922 53.4923C47.018 53.7384 46.9623 54.0336 46.9623 54.415C46.9623 55.233 47.1912 55.6636 47.3953 56.0388C47.5871 56.3956 47.7542 56.7093 47.7542 57.3674C47.7542 58.0256 47.5871 58.3392 47.3953 58.696C47.1912 59.0774 46.9623 59.5018 46.9623 60.3198C46.9623 61.3716 47.0489 61.7222 47.3149 62.3066L47.8841 62.0482C47.6614 61.5623 47.5871 61.3224 47.5871 60.3198C47.5871 59.6617 47.7542 59.348 47.9459 58.9912C48.1501 58.6099 48.379 58.1855 48.379 57.3674C48.379 57.189 48.3666 57.0353 48.3481 56.8876C48.28 56.371 48.1068 56.0388 47.9459 55.7436C47.7542 55.3868 47.5871 55.0731 47.5871 54.415C47.5871 54.3781 47.5871 54.3412 47.5871 54.3043C47.6057 53.7199 47.7603 53.4185 47.9459 53.0802C48.1501 52.6989 48.379 52.2745 48.379 51.4564C48.379 51.2842 48.3666 51.1304 48.3481 50.9828C48.3357 50.8721 48.3171 50.7675 48.2924 50.6691C48.2676 50.5584 48.2367 50.4599 48.1996 50.3677C48.1254 50.1586 48.0326 49.9863 47.9459 49.8264C47.7542 49.4697 47.5871 49.156 47.5871 48.4978C47.5871 47.8397 47.7542 47.526 47.9459 47.1692C48.1501 46.7879 48.379 46.3634 48.379 45.5454L48.3852 45.57Z" fill="#1A1A1A"/>
<path d="M50.7176 45.57C50.7176 45.2194 50.6495 44.8873 50.5072 44.5613L49.9319 44.8073C50.0371 45.0533 50.0927 45.2932 50.0927 45.5639C50.0927 46.222 49.9257 46.5357 49.7339 46.8925C49.5298 47.2738 49.3009 47.6982 49.3009 48.5163C49.3009 49.1498 49.4432 49.5497 49.5978 49.8757C49.6411 49.9679 49.6906 50.054 49.7339 50.1401C49.7339 50.1401 49.7339 50.1463 49.7401 50.1524C49.7896 50.2447 49.8391 50.337 49.8824 50.4354C50.0061 50.6999 50.0927 50.9951 50.0927 51.4749C50.0927 52.133 49.9257 52.4467 49.7339 52.8035C49.5298 53.1848 49.3009 53.6093 49.3009 54.4273C49.3009 55.2454 49.5298 55.676 49.7339 56.0512C49.9257 56.4079 50.0927 56.7216 50.0927 57.3797C50.0927 57.9395 49.969 58.247 49.8143 58.5484C49.7896 58.6038 49.7587 58.653 49.7277 58.7083C49.6411 58.8683 49.5483 59.0466 49.4741 59.2496C49.3689 59.5264 49.2947 59.8647 49.2947 60.3322C49.2947 61.3963 49.3751 61.7407 49.6659 62.3497L50.235 62.0852C49.9999 61.5808 49.9257 61.3348 49.9257 60.3322C49.9257 60.326 49.9257 60.3137 49.9257 60.3076C49.9257 59.834 50.0185 59.5387 50.1422 59.2742C50.1855 59.182 50.235 59.0958 50.2845 59.0036C50.4887 58.6222 50.7176 58.1978 50.7176 57.3797C50.7176 56.5617 50.4887 56.1311 50.2845 55.7559C50.0927 55.3992 49.9257 55.0855 49.9257 54.4273C49.9257 53.7692 50.0927 53.4555 50.2845 53.0987C50.4887 52.7174 50.7176 52.293 50.7176 51.4749C50.7176 50.8106 50.5629 50.4046 50.4021 50.0725C50.365 49.9925 50.3216 49.9187 50.2845 49.8511C50.2722 49.8326 50.266 49.8141 50.2536 49.7957C50.2041 49.7034 50.1546 49.605 50.1113 49.5066C49.9999 49.2544 49.9257 48.9715 49.9257 48.5225C49.9257 47.8643 50.0927 47.5506 50.2845 47.1939C50.4887 46.8125 50.7176 46.3881 50.7176 45.57Z" fill="#1A1A1A"/>
<path d="M56.0442 52.9142C56.0442 52.9142 56.3474 52.5574 56.9413 52.0899C57.1083 51.9546 57.3001 51.8008 57.4919 51.6409C57.6528 51.5056 57.6961 51.561 57.6589 51.6717C57.5971 51.8378 57.5105 52.0038 57.4733 52.0838C57.4733 52.0899 57.4672 52.0961 57.461 52.1022C57.4548 52.1207 57.4486 52.1268 57.4486 52.1268C57.3929 52.2437 57.3682 52.3544 57.3867 52.4467C57.4424 52.6743 57.795 52.6804 58.1724 52.4036C58.5498 52.1268 58.7911 51.6655 58.7107 51.4256C58.6797 51.3334 58.6055 51.2842 58.5003 51.2842C58.4756 51.2842 58.4508 51.2842 58.4199 51.2903C58.3457 51.2965 58.2281 51.2965 58.1291 51.2903C58.0425 51.278 58.0487 51.1796 58.2034 51.075C58.2529 51.0381 58.3023 51.0012 58.3457 50.9766C58.8839 50.6199 59.286 50.4107 59.286 50.4107C59.4097 50.3431 59.5458 50.2324 59.6758 50.0724C60.0222 49.6542 60.1893 49.0575 60.0593 48.8115C59.9294 48.5655 59.5768 48.7561 59.2613 49.1867C59.1375 49.3528 59.0324 49.525 58.9581 49.6972C58.9581 49.6972 58.6302 50.3923 58.2962 50.7921C58.2529 50.8413 58.2095 50.8967 58.1601 50.9459C58.0178 51.1058 57.9621 51.0504 58.0178 50.909C58.092 50.7306 58.1353 50.5645 58.1601 50.4846C58.1601 50.4784 58.1601 50.4723 58.1662 50.4661C58.1724 50.4476 58.1786 50.4353 58.1786 50.4353C58.2219 50.3062 58.2219 50.1832 58.1786 50.1032C58.0734 49.8941 57.7332 50.0109 57.4053 50.3062C57.0774 50.6076 56.8794 50.9705 56.9599 51.1735C56.9908 51.2534 57.0712 51.2965 57.1702 51.3026C57.195 51.3026 57.2259 51.3088 57.2568 51.3026C57.3311 51.3026 57.43 51.2965 57.5228 51.3026C57.6218 51.3149 57.6033 51.4195 57.4486 51.5241C57.2444 51.6594 57.0403 51.7701 56.8609 51.8562C56.0937 52.2253 55.8215 52.0961 55.8215 52.0961C55.9824 52.1945 56.0628 52.2437 56.2237 52.3483C56.1556 52.5697 56.1185 52.6804 56.0381 52.8957L56.0442 52.9142Z" fill="#1A1A1A"/>
<path d="M56.267 61.0641C56.7434 60.6397 57.1455 60.3998 57.1455 60.3998C57.2631 60.326 57.3868 60.2153 57.4982 60.08C57.7889 59.7171 57.8817 59.3111 57.7023 59.1635C57.5229 59.0159 57.1393 59.1943 56.8486 59.551C56.7372 59.6925 56.6506 59.8401 56.6073 59.9754C56.6073 59.9754 56.397 60.5475 56.1557 60.9473C56.1247 60.9965 56.0938 61.0518 56.0567 61.101C55.9515 61.261 55.8711 61.2425 55.8897 61.1195C55.9082 60.9657 55.9082 60.8242 55.9144 60.7566C55.9144 60.7566 55.9144 60.7443 55.9144 60.7381C55.9144 60.7197 55.9144 60.7135 55.9144 60.7135C55.9206 60.6028 55.8958 60.5106 55.8278 60.4552C55.6546 60.3199 55.2957 60.4859 55.0235 60.8242C54.7513 61.1625 54.6647 61.5501 54.8318 61.6854C54.8998 61.7407 54.9988 61.7469 55.1101 61.71C55.1349 61.7038 55.172 61.6977 55.2029 61.6792C55.2772 61.6485 55.3885 61.6054 55.4937 61.587C55.6051 61.5624 55.6236 61.6485 55.4937 61.7838C55.3329 61.9622 55.1658 62.1344 55.0112 62.282C54.3678 62.9094 54.0522 62.9832 54.0522 62.9832H54.5967L54.708 63.506C54.708 63.506 54.7884 63.0447 55.1906 62.4173C55.3081 62.239 55.438 62.036 55.5803 61.8453C55.6979 61.6792 55.7721 61.7038 55.7721 61.8022C55.7721 61.9499 55.7536 62.1098 55.7474 62.1836C55.7474 62.1836 55.7474 62.1959 55.7474 62.2021C55.7474 62.2205 55.7474 62.2267 55.7474 62.2267C55.7412 62.3374 55.7659 62.4296 55.834 62.485C56.0072 62.6203 56.366 62.4542 56.6382 62.1159C56.9104 61.7776 56.9971 61.3901 56.83 61.2548C56.762 61.1995 56.663 61.1933 56.5516 61.2302C56.5269 61.2364 56.4959 61.2487 56.465 61.261C56.3846 61.2917 56.2609 61.3286 56.1433 61.3532C56.0443 61.3778 56.0196 61.2979 56.1433 61.1748C56.1866 61.1318 56.2299 61.0887 56.267 61.058V61.0641Z" fill="#1A1A1A"/>
<path d="M40.0581 61.3593C39.9715 61.1502 40.021 61.0949 40.1076 61.1441C40.2375 61.2179 40.3674 61.3224 40.4293 61.3655C40.4293 61.3655 40.4417 61.3716 40.4417 61.3778C40.454 61.3901 40.4602 61.3962 40.4602 61.3962C40.553 61.4639 40.6458 61.4885 40.7262 61.4455C40.9242 61.3409 40.949 60.8488 40.7448 60.3875C40.5406 59.9262 40.2004 59.674 40.021 59.8032C39.9467 59.8524 39.9096 59.9508 39.8972 60.0861C39.8972 60.0861 39.8972 60.0861 39.8972 60.0923C39.8972 60.123 39.8972 60.1599 39.8972 60.1907C39.8972 60.2891 39.8849 60.4306 39.8601 60.5597C39.8416 60.6704 39.7611 60.6643 39.6993 60.4736C39.6745 60.406 39.656 60.3506 39.6374 60.2952C39.4271 59.6309 39.3033 59.145 39.3033 59.145C39.2662 58.9974 39.192 58.8375 39.0868 58.6837C38.8084 58.2777 38.4248 58.1055 38.2454 58.2531C38.066 58.4008 38.1526 58.7944 38.4125 59.1819C38.5114 59.3295 38.6228 59.4587 38.7403 59.551C38.7403 59.551 39.2105 59.9569 39.4827 60.369C39.5199 60.4244 39.5508 60.4798 39.5879 60.5351C39.6931 60.7135 39.6436 60.7812 39.5384 60.7074C39.4085 60.6151 39.2786 60.5597 39.2167 60.5228C39.2167 60.5228 39.2043 60.5228 39.2043 60.5167C39.192 60.5105 39.1796 60.5044 39.1796 60.5044C39.0806 60.449 38.9878 60.4367 38.9136 60.4798C38.7218 60.5843 38.728 60.978 38.895 61.3962C39.062 61.8145 39.3404 62.1036 39.5446 62.0175C39.625 61.9806 39.6807 61.8883 39.7055 61.7653C39.7055 61.7653 39.7055 61.7653 39.7055 61.7592C39.7116 61.7284 39.724 61.6915 39.724 61.6546C39.7364 61.5623 39.7488 61.4332 39.7797 61.3163C39.8106 61.1933 39.891 61.2117 39.9591 61.4147C40.0395 61.673 40.1014 61.9375 40.1447 62.1713C40.3303 63.1739 40.1509 63.5552 40.1509 63.5552C40.287 63.3461 40.355 63.2415 40.4788 63.0201C40.6767 63.1123 40.7695 63.1554 40.9675 63.2538C40.9675 63.2538 40.6706 62.8479 40.3489 62.079C40.2561 61.8576 40.1509 61.6115 40.0457 61.3655L40.0581 61.3593Z" fill="#1A1A1A"/>
<path d="M37.2245 49.3589C37.0575 49.2236 36.8781 49.0637 36.7049 48.9038C36.5564 48.7623 36.5935 48.7008 36.6863 48.7131C36.8348 48.7316 36.9895 48.7685 37.0637 48.7869C37.0637 48.7869 37.0761 48.7869 37.0823 48.7869C37.1008 48.7869 37.107 48.7869 37.107 48.7869C37.2184 48.8054 37.3112 48.7869 37.373 48.7316C37.5339 48.5839 37.4101 48.2026 37.107 47.8889C36.8039 47.5752 36.4327 47.4399 36.2718 47.5936C36.2099 47.6552 36.1914 47.7474 36.2099 47.8643C36.2099 47.895 36.2223 47.9196 36.2285 47.9504C36.2471 48.0365 36.2718 48.1595 36.2842 48.2764C36.2904 48.3748 36.2161 48.3933 36.1048 48.2518C36.0677 48.2026 36.0305 48.1534 35.9996 48.1165C35.6346 47.5936 35.449 47.1631 35.449 47.1631C35.3871 47.0339 35.2943 46.8986 35.1768 46.7756C34.8551 46.4434 34.4591 46.302 34.2921 46.4619C34.1251 46.6218 34.2488 47.0216 34.5705 47.3538C34.6942 47.4829 34.8303 47.5813 34.9603 47.649C34.9603 47.649 35.5047 47.9319 35.8697 48.221C35.9192 48.2579 35.9625 48.2948 36.012 48.3379C36.1605 48.4609 36.1295 48.5347 36.012 48.504C35.8573 48.4609 35.7212 48.4486 35.6532 48.4302C35.6532 48.4302 35.6408 48.4302 35.6346 48.4302C35.616 48.4302 35.6098 48.4302 35.6098 48.4302C35.4985 48.4117 35.4057 48.4302 35.3438 48.4855C35.183 48.6331 35.3067 49.0145 35.6098 49.3282C35.913 49.6419 36.2842 49.7772 36.445 49.6234C36.5069 49.5619 36.5255 49.4697 36.5069 49.3528C36.5069 49.322 36.5007 49.2851 36.4883 49.2605C36.4698 49.1806 36.4388 49.0699 36.4327 48.9591C36.4203 48.8484 36.5069 48.8361 36.6306 48.9776C36.7915 49.1621 36.94 49.3466 37.0637 49.5189C37.6081 50.2324 37.639 50.5584 37.639 50.5584L37.7071 50.0232L38.2453 49.9802C38.2453 49.9802 37.7937 49.8449 37.2184 49.3651L37.2245 49.3589Z" fill="#1A1A1A"/>
<path d="M65.9488 41.3074C65.9488 41.3074 66.3509 41.781 66.5241 42.23C66.5489 42.2854 66.5674 42.3469 66.586 42.4084C66.6478 42.5991 66.586 42.6483 66.5117 42.5499C66.4128 42.433 66.3138 42.3469 66.2643 42.2977C66.2643 42.2977 66.2581 42.2915 66.2519 42.2854C66.2395 42.2731 66.2333 42.2669 66.2333 42.2669C66.1529 42.1931 66.0725 42.1624 66.0044 42.187C65.8188 42.2423 65.7694 42.5868 65.8312 42.9743C65.8931 43.3618 66.0477 43.6755 66.2395 43.6755C66.3138 43.6755 66.388 43.6201 66.4375 43.5217C66.4499 43.4971 66.4684 43.4664 66.4808 43.4418C66.5117 43.3679 66.555 43.2634 66.6045 43.1711C66.654 43.0789 66.7283 43.1219 66.7345 43.3187C66.7406 43.5709 66.7221 43.8231 66.6912 44.0384C66.5612 44.9549 66.2581 45.164 66.2581 45.164C66.4313 45.0656 66.5241 45.0102 66.6912 44.8934C66.8087 45.0656 66.8644 45.1517 66.9695 45.3362C66.9695 45.3362 66.9201 44.838 66.8829 44.0445C66.8706 43.817 66.852 43.5648 66.8211 43.3126C66.7963 43.0973 66.852 43.0665 66.9139 43.1404C67.0067 43.2572 67.0933 43.3987 67.1304 43.4664C67.1304 43.4664 67.1304 43.4787 67.1366 43.4848C67.1428 43.4971 67.149 43.5094 67.149 43.5094C67.2108 43.6078 67.2789 43.6693 67.3531 43.6693C67.5449 43.6693 67.6996 43.2326 67.6191 42.7159C67.5387 42.1993 67.2603 41.8302 67.0809 41.8856C67.0067 41.904 66.9572 41.9901 66.9324 42.107C66.9324 42.107 66.9324 42.107 66.9324 42.1132C66.9262 42.1439 66.9201 42.1747 66.9139 42.2054C66.8953 42.2915 66.8644 42.4207 66.8211 42.5314C66.7839 42.6237 66.7221 42.5929 66.6973 42.4023C66.6911 42.3346 66.6788 42.2731 66.6726 42.2239C66.586 41.5534 66.4932 41.0614 66.4932 41.0614C66.4684 40.9076 66.4004 40.7354 66.3076 40.5693C66.0477 40.1141 65.6456 39.8804 65.4848 40.0034C65.3239 40.1264 65.4415 40.5262 65.6704 40.926C65.757 41.0798 65.856 41.2151 65.9549 41.3258L65.9488 41.3074Z" fill="#1A1A1A"/>
<path d="M28.6624 92.0093C27.5426 93.4855 26.7446 95.0109 26.5219 96.0997L27.1343 96.2227C27.3385 95.2262 28.0994 93.7869 29.1635 92.3845L28.6624 92.0093Z" fill="#1A1A1A"/>
<path d="M36.7915 80.5133C35.6532 83.0044 33.4941 85.9076 32.3248 87.1686L32.7888 87.593C33.9828 86.3013 36.1976 83.3242 37.3669 80.7716L36.7977 80.5133H36.7915Z" fill="#1A1A1A"/>
<path d="M66.8829 94.445L67.4087 94.1006C67.2417 93.8484 67.0128 93.5409 66.753 93.1903C65.8807 92.0093 64.5629 90.2255 64.2536 88.7678L63.6411 88.8969C63.9814 90.4839 65.2929 92.2615 66.2457 93.5593C66.4993 93.9038 66.722 94.2052 66.8829 94.445Z" fill="#1A1A1A"/>
<path d="M15.5653 59.1143C15.5963 59.1266 15.6272 59.1389 15.6581 59.1512H20.6631V58.3208C20.8487 58.1547 20.9972 57.9456 21.0838 57.6996V59.1512H24.9875V58.1609C25.1731 57.9149 25.2783 57.6073 25.2783 57.2813V56.088L25.402 56.1803V59.1512H29.4851L30.0543 59.5694H15.6953C15.652 59.6371 15.6087 59.6986 15.5715 59.7663C15.0642 59.8155 14.6621 60.3014 14.6621 60.898C14.6621 61.4147 14.9653 61.8514 15.3859 61.9867C15.4107 62.0359 15.4292 62.079 15.454 62.1221C15.4725 62.1528 15.4911 62.1897 15.5159 62.2205H29.3057V62.6387H25.4082V66.7106C25.8041 66.5569 26.1815 66.3723 26.5527 66.1632C26.5774 66.1632 26.596 66.1509 26.6208 66.1509H26.5836C28.4087 65.0929 29.8625 63.4261 30.6297 62.1282C30.6482 62.0913 30.6668 62.0544 30.6853 62.0237C31.1679 61.9437 31.5329 61.4701 31.5329 60.9042C31.5329 60.8058 31.5205 60.7135 31.502 60.6212L32.1454 61.0887L32.1082 76.2999H32.7331L32.7702 61.5439L40.2869 67.0182C40.0332 71.8282 38.4309 75.6479 37.4906 77.4993L36.94 76.1769L36.7234 77.1487C36.3708 78.7541 34.0385 82.58 32.5722 84.4621C31.867 85.354 31.4092 85.8768 30.8895 86.4796C30.8214 86.5596 30.7534 86.6334 30.6853 86.7195L29.9739 85.3294L29.844 86.3382C29.7264 87.2546 29.1016 88.3433 28.4025 89.4013L27.2642 88.4664C24.7586 86.412 23.3233 83.3857 23.3233 80.1565V74.4669C23.9296 74.3685 24.3874 73.8457 24.3874 73.2183C24.3874 72.4125 23.8987 72.4125 23.5893 71.4653C23.5646 71.3915 23.546 71.3054 23.5213 71.2069C23.4594 70.9363 23.6636 70.8748 23.8554 70.9917C24.0781 71.127 24.2946 71.2931 24.4245 71.4038C24.4678 71.4468 24.5111 71.4837 24.5606 71.5206L24.5668 71.5268C24.7648 71.6683 25.0061 71.7544 25.2721 71.7544C25.934 71.7544 26.4723 71.2192 26.4723 70.5611C26.4723 69.903 25.934 69.3678 25.2721 69.3678C25.0122 69.3678 24.7772 69.4478 24.5792 69.5893C24.5792 69.5893 24.5606 69.6016 24.5359 69.62C24.5235 69.6262 24.5173 69.6323 24.5049 69.6446C24.3812 69.7369 24.1214 69.9399 23.8368 70.1121C23.6574 70.229 23.4409 70.192 23.4718 69.8845C23.5089 69.5216 23.6883 68.5744 24.0286 68.0146C24.2327 67.6825 24.5297 67.2642 24.9689 66.9075V62.6449H21.0652V66.9259C21.5911 67.2827 22.0056 67.6825 22.1974 68.0454C22.5191 68.6543 22.6242 69.2448 22.6737 69.6446V70.0752C22.6119 70.192 22.4572 70.2105 22.3087 70.1182C22.1046 69.9891 21.9313 69.8353 21.8014 69.7307C21.7581 69.6877 21.6839 69.6446 21.6344 69.6077L21.6282 69.6016C21.4302 69.4601 21.1889 69.374 20.9229 69.374C20.261 69.374 19.7227 69.9091 19.7227 70.5672C19.7227 71.2254 20.261 71.7605 20.9229 71.7605C21.1828 71.7605 21.4178 71.6806 21.6158 71.5391C21.6158 71.5391 21.6344 71.5268 21.6591 71.5083C21.6715 71.5022 21.6777 71.496 21.6901 71.4837C21.8076 71.3915 22.0798 71.2315 22.3273 71.0286C22.4758 70.9117 22.6304 70.9055 22.6799 71.0286V71.2192C22.6613 71.3054 22.6428 71.3915 22.618 71.4776C22.4324 72.1726 21.8262 72.4125 21.8262 73.2121C21.8262 73.7657 22.185 74.2332 22.6799 74.4054V80.1504C22.6799 83.5641 24.2018 86.7687 26.8497 88.94L28.0375 89.9118C27.9261 90.0717 27.8148 90.2317 27.7096 90.3916C27.1652 91.1789 26.6579 91.917 26.33 92.5752C26.1691 92.8643 26.0145 93.1472 25.8784 93.4178L25.0989 92.1754L25.0184 93.1041C24.9875 93.4424 24.9566 93.7746 24.9194 94.0944C24.7895 95.3369 24.6658 96.5179 24.8081 98.2771H24.8143C24.8514 99.3043 25.0122 100.313 25.2968 101.291L24.672 101.106L24.7462 101.592C24.771 101.758 25.3401 105.105 29.6212 108.118C29.6707 108.198 29.7264 108.272 29.7883 108.346L36.6306 116.797V128.97C36.6306 129.142 36.7729 129.284 36.9461 129.284C37.1998 129.284 37.7937 129.284 38.1773 128.902C38.3938 128.687 38.499 128.386 38.4928 128.023C38.4866 127.482 38.4247 127.254 38.3381 126.897C38.3258 126.848 38.3134 126.793 38.301 126.737C38.4742 126.885 38.7031 127.002 39.0001 127.002C39.7796 127.002 40.4106 126.374 40.4106 125.599C40.4106 124.824 39.7796 124.197 39.0001 124.197C38.5856 124.197 38.3196 124.4 38.1463 124.591C38.1649 124.265 38.233 123.84 38.4619 123.416C38.5299 123.293 38.6041 123.176 38.6784 123.059C39.7858 124.203 41.2767 125.113 43.0152 125.692C42.6935 126.024 42.4955 126.473 42.4955 126.971C42.4955 127.992 43.3307 128.822 44.3577 128.822C44.7536 128.822 45.1372 128.699 45.4589 128.466C45.4589 128.466 45.4712 128.46 45.4774 128.453C45.5517 128.398 45.6197 128.343 45.6754 128.281C45.7806 128.195 46.0218 127.998 46.3064 127.82C46.2879 127.894 46.2693 127.967 46.2508 128.029C46.0899 128.533 45.8919 128.798 45.694 129.056C45.4403 129.394 45.2052 129.714 45.2052 130.391C45.2052 131.467 46.0837 132.341 47.1664 132.341C48.249 132.341 49.1275 131.467 49.1275 130.391C49.1275 129.696 48.8182 129.271 48.5398 128.896C48.3542 128.638 48.1748 128.398 48.0882 128.072C48.0696 128.004 48.051 127.937 48.0387 127.869C48.2366 128.023 48.4408 128.158 48.5893 128.263C48.6759 128.318 48.7439 128.367 48.7811 128.392C48.7934 128.404 48.8058 128.41 48.8306 128.429L48.8862 128.472C48.8862 128.472 48.911 128.49 48.9172 128.496C49.2265 128.712 49.5915 128.822 49.9689 128.822C50.9958 128.822 51.831 127.992 51.831 126.971C51.831 126.51 51.6578 126.085 51.3732 125.759C53.2478 125.175 54.8501 124.197 56.007 122.973C56.1121 123.145 56.1988 123.311 56.2792 123.459C56.5328 123.932 56.5576 124.394 56.5761 124.732C56.4091 124.511 56.1245 124.191 55.6048 124.191C54.8253 124.191 54.1943 124.818 54.1943 125.593C54.1943 126.368 54.8253 126.996 55.6048 126.996C55.9884 126.996 56.2606 126.793 56.4524 126.596C56.4215 126.688 56.3905 126.78 56.3596 126.86C56.2421 127.174 56.1369 127.469 56.1121 128.004C56.0998 128.367 56.1988 128.662 56.4091 128.884C56.7865 129.278 57.399 129.278 57.6588 129.278C57.832 129.278 57.9743 129.136 57.9743 128.964V116.736L64.7672 108.34C64.8909 108.186 64.9961 108.026 65.0827 107.86C69.0421 104.92 69.5803 101.783 69.6051 101.623L69.6793 101.162L69.0483 101.316C69.339 100.325 69.5061 99.2981 69.537 98.2586H69.5432C69.5432 98.1171 69.6855 94.7095 69.5432 93.0918L69.4751 92.3414L68.51 93.4793C68.3183 93.0426 68.0955 92.6121 67.8543 92.1938C67.8357 92.1631 67.811 92.1262 67.7924 92.0954C67.6687 91.8801 67.5387 91.671 67.3965 91.468C67.3655 91.4249 67.3346 91.3757 67.3037 91.3265C67.0129 90.8714 66.6664 90.3424 66.3324 89.7827L67.3717 88.9277C67.8357 88.5463 68.2688 88.1281 68.6647 87.6852L76.9238 93.7008L77.0289 93.7746L77.4001 93.2702L17.8915 49.9371L17.5203 50.4415L18.4854 51.1427L22.3768 53.9783C22.3149 54.1443 22.2778 54.3227 22.2778 54.5134V54.6856C22.1974 54.6979 22.1169 54.7102 22.0365 54.7225C22.0984 54.0459 21.6901 53.3878 21.0157 53.1664C20.8611 53.1171 20.7002 53.0925 20.5455 53.0925C19.9145 53.0925 19.3268 53.4924 19.1164 54.1136L18.7638 55.1654L15.6334 56.3587C15.256 56.5001 14.9653 56.7831 14.7982 57.146C14.6374 57.5089 14.625 57.9149 14.7673 58.2901C14.9096 58.6653 15.1942 58.9544 15.5592 59.1204L15.5653 59.1143ZM15.652 61.6177C15.4478 61.6177 15.2746 61.4885 15.1694 61.2855C15.1137 61.1748 15.0766 61.0395 15.0766 60.898C15.0766 60.6828 15.1508 60.4921 15.2746 60.3629C15.3736 60.2522 15.5035 60.1845 15.652 60.1845C15.9675 60.1845 16.2273 60.5044 16.2273 60.9042C16.2273 61.304 15.9737 61.6238 15.652 61.6238V61.6177ZM18.8504 61.6177C18.405 61.6177 18.0462 61.2978 18.0462 60.898C18.0462 60.4982 18.405 60.1784 18.8504 60.1784C19.2959 60.1784 19.6547 60.4982 19.6547 60.898C19.6547 61.2978 19.2959 61.6177 18.8504 61.6177ZM23.3171 61.5869C23.2491 61.5992 23.1748 61.6115 23.0944 61.6115C22.9459 61.6115 22.8098 61.5808 22.6861 61.5254C22.4077 61.4024 22.2221 61.1687 22.2221 60.8919C22.2221 60.6151 22.4139 60.3814 22.6861 60.2583C22.8098 60.203 22.9459 60.1722 23.0944 60.1722C23.1686 60.1722 23.2429 60.1845 23.3171 60.1968C23.6945 60.2768 23.9729 60.5536 23.9729 60.8919C23.9729 61.2302 23.6945 61.507 23.3171 61.5869ZM27.3322 61.6177C26.8868 61.6177 26.528 61.2978 26.528 60.898C26.528 60.4982 26.8868 60.1784 27.3322 60.1784C27.7776 60.1784 28.1365 60.4982 28.1365 60.898C28.1365 61.2978 27.7776 61.6177 27.3322 61.6177ZM24.8452 70.4504C24.8452 70.7087 25.0556 70.9179 25.3154 70.9179V71.3361C24.8266 71.3361 24.4245 70.9363 24.4245 70.4504H24.8452ZM21.0467 71.3361C20.5579 71.3361 20.1558 70.9363 20.1558 70.4504H20.5765C20.5765 70.7087 20.7868 70.9179 21.0467 70.9179V71.3361ZM22.0674 66.8583V66.44H23.6512V66.8583H22.0674ZM23.181 74.0733C23.0016 74.0733 22.8346 74.0179 22.6923 73.9256C22.451 73.7657 22.2902 73.4951 22.2902 73.1875H22.7108C22.7108 73.4459 22.9212 73.655 23.181 73.655V74.0733ZM38.9197 116.367H37.0884L37.008 116.268L36.9523 116.201L36.94 116.188L36.6368 115.813L36.5131 115.666L34.1374 112.732L34.0756 112.658L31.2236 109.133L30.277 107.965C30.2028 107.872 30.1347 107.774 30.079 107.676C29.8873 107.35 29.7821 106.987 29.7635 106.618C29.7635 106.525 29.7635 106.427 29.7635 106.329C29.7883 106.046 29.8563 105.763 29.9863 105.492C30.3822 104.674 31.1926 104.17 32.1021 104.17H32.9063C32.5537 104.446 32.2567 104.803 32.0526 105.228C31.7432 105.873 31.6814 106.575 31.8484 107.233C31.9226 107.534 32.0526 107.817 32.2258 108.088C32.2877 108.18 32.3495 108.272 32.4176 108.358L35.5109 112.178H35.5232C35.5232 112.178 35.548 112.227 35.5665 112.252L36.6059 113.537L36.6183 113.55L36.9214 113.925L36.9338 113.937L37.2369 114.312L37.2493 114.325L37.6885 114.866L37.8927 115.118L38.103 115.377L38.9011 116.367H38.9197ZM34.6942 105.221C34.1931 106.255 34.3354 107.46 35.0592 108.352L36.6244 110.284V112.541L36.0738 111.858L32.9187 107.965C32.3495 107.257 32.2382 106.31 32.6279 105.492C33.0239 104.674 33.8343 104.17 34.7437 104.17H35.548C35.1953 104.446 34.8984 104.803 34.6942 105.228V105.221ZM36.6244 104.286V109.287L35.548 107.959C34.9788 107.251 34.8675 106.304 35.2572 105.486C35.5356 104.902 36.0305 104.477 36.6183 104.28L36.6244 104.286ZM43.442 94.9863C43.4359 94.851 43.4173 94.728 43.3987 94.6111C43.3183 94.1621 43.1636 93.8607 43.0152 93.5901C42.8234 93.2333 42.6563 92.9196 42.6563 92.2615C42.6563 91.6033 42.8234 91.2896 43.0152 90.9329C43.2193 90.5515 43.4482 90.1271 43.4482 89.309C43.4482 88.491 43.2193 88.0604 43.0152 87.6852C42.8234 87.3284 42.6563 87.0148 42.6563 86.3566C42.6563 86.3135 42.6563 86.2705 42.6563 86.2274C42.6563 86.2213 42.6563 86.209 42.6563 86.1967C42.6873 85.6923 42.8667 85.3786 43.0585 85.0588C43.3183 84.6282 43.6091 84.1361 43.4297 83.2504C43.2936 82.5676 43.0337 82.1125 42.8234 81.7434C42.644 81.4297 42.5141 81.2022 42.5017 80.9254H51.3609C51.4475 81.116 51.5217 81.276 51.5898 81.4174C51.9238 82.1186 52.0043 82.2847 52.0043 83.3919C52.0043 84.05 51.8372 84.3637 51.6454 84.7205C51.4413 85.1018 51.2124 85.5262 51.2124 86.3443C51.2124 87.1624 51.4413 87.5929 51.6454 87.9681C51.8372 88.3249 52.0043 88.6386 52.0043 89.2967C52.0043 89.9549 51.8372 90.2686 51.6454 90.6253C51.4413 91.0067 51.2124 91.4311 51.2124 92.2492C51.2124 92.6859 51.2804 93.0119 51.3732 93.2764C51.3732 93.2825 51.3732 93.2948 51.3794 93.301C51.4598 93.5224 51.5526 93.7008 51.6454 93.873C51.8001 94.1559 51.93 94.4143 51.9857 94.8325C51.9981 94.9433 52.0104 95.0663 52.0104 95.2016C52.0104 95.2324 52.0104 95.257 52.0104 95.2816C52.0104 95.423 51.9981 95.5522 51.9795 95.6629C51.9795 95.6814 51.9733 95.6998 51.9671 95.7183C51.9486 95.8228 51.9238 95.9151 51.8929 96.0012C51.8249 96.198 51.7444 96.358 51.6516 96.5302C51.4475 96.9115 51.2186 97.336 51.2186 98.154C51.2186 98.9044 51.5279 99.3965 51.7815 99.7963C51.7939 99.8148 51.8063 99.8332 51.8187 99.8517H49.7152C48.3356 99.8517 47.6304 100.442 47.2901 100.91C46.9313 100.442 46.2136 99.8517 44.8526 99.8517H42.9347C42.712 99.3596 42.6502 99.1013 42.6502 98.1602C42.6502 97.502 42.8172 97.1883 43.009 96.8316C43.1946 96.481 43.4049 96.0873 43.4359 95.3861C43.4359 95.3246 43.442 95.2693 43.442 95.2077C43.442 95.1278 43.442 95.054 43.4359 94.9802L43.442 94.9863ZM42.6563 80.298C42.811 80.1073 42.9533 79.9228 43.0709 79.7628C43.1265 79.9412 43.1822 80.1196 43.2379 80.298H42.6563ZM52.1094 100.485H52.9756C52.8147 102.275 51.299 103.684 49.4616 103.684H45.1434C43.3059 103.684 41.784 102.275 41.6294 100.485H44.8526C45.7373 100.485 46.2755 100.78 46.591 101.082C46.8942 101.365 46.9931 101.648 46.9993 101.672L47.3148 102.65L47.5994 101.66C47.5994 101.66 47.6798 101.396 47.9273 101.131C48.2181 100.817 48.7563 100.485 49.709 100.485H52.1032H52.1094ZM42.4646 96.5425C42.2604 96.9238 42.0315 97.3483 42.0315 98.1663C42.0315 99.0582 42.0934 99.4396 42.2604 99.8578H40.9922V100.172C40.9922 102.454 42.8543 104.305 45.1495 104.305H46.0713V110.13C46.0713 110.216 46.0713 110.302 46.0713 110.388C46.0713 110.499 46.0652 110.603 46.059 110.702C46.0528 110.813 46.0466 110.917 46.0342 111.016C45.8363 112.978 44.8959 113.414 43.0337 113.839L43.176 114.448C45.1062 114.005 46.4363 113.501 46.6652 110.966C46.6714 110.868 46.6838 110.757 46.69 110.653C46.69 110.554 46.6962 110.45 46.7024 110.339C46.7024 110.265 46.7024 110.197 46.7024 110.124V104.299H49.4678C51.7568 104.299 53.6251 102.447 53.6251 100.165V99.8517H52.5487C52.4806 99.7164 52.4002 99.5872 52.3198 99.4642C52.0785 99.0828 51.8558 98.7261 51.8558 98.154C51.8558 97.4959 52.0228 97.1822 52.2146 96.8254C52.2827 96.7024 52.3507 96.5733 52.4126 96.4318L53.7489 97.5574L55.9575 99.4211L56.0255 99.4765C56.8669 100.184 57.3495 101.217 57.3495 102.318V103.53V104.151V113.254L57.3123 113.298L56.5081 114.288L56.3101 114.534L56.106 114.786L54.8377 116.355H39.7301L38.4866 114.817L38.2824 114.565L38.0845 114.319L37.2678 113.31V104.151V103.53V102.312C37.2678 101.217 37.7504 100.184 38.5918 99.4703L42.712 95.9951C42.644 96.1919 42.5574 96.3518 42.4646 96.524V96.5425ZM45.4156 126.854C45.4156 127.451 44.9268 127.937 44.3267 127.937H44.1164V127.518H44.3267C44.6979 127.518 44.9949 127.217 44.9949 126.854V126.645H45.4156V126.854ZM45.6816 125.661C45.6259 125.624 45.5826 125.587 45.5455 125.556C45.5331 125.544 45.5207 125.538 45.496 125.519L45.4403 125.476C45.4403 125.476 45.4156 125.458 45.4094 125.452C45.1 125.236 44.735 125.126 44.3577 125.126C44.1164 125.126 43.8937 125.175 43.6833 125.255C41.8088 124.72 40.2065 123.779 39.0743 122.579C39.8848 121.737 41.0664 121.404 42.5945 121.589C43.8999 121.841 44.9392 122.598 45.694 123.846C45.7063 123.871 45.7187 123.896 45.7373 123.92C44.37 123.717 43.0894 123.256 42.0315 122.573L41.6912 123.096C42.9224 123.896 44.4319 124.406 46.028 124.591C46.158 124.972 46.2569 125.384 46.3126 125.722C46.1023 125.71 45.8981 125.685 45.694 125.661H45.6816ZM48.1686 130.182V130.391C48.1686 130.988 47.6798 131.473 47.0798 131.473H46.8694V131.055H47.0798C47.4509 131.055 47.7479 130.754 47.7479 130.391V130.182H48.1686ZM50.9216 126.854C50.9216 127.451 50.4329 127.937 49.8328 127.937H49.6224V127.518H49.8328C50.204 127.518 50.5009 127.217 50.5009 126.854V126.645H50.9216V126.854ZM50.7608 125.31C50.5195 125.2 50.2535 125.132 49.9689 125.132C49.5729 125.132 49.1894 125.255 48.8677 125.489C48.8677 125.489 48.8553 125.495 48.8491 125.501C48.8306 125.513 48.812 125.526 48.7934 125.538C48.7378 125.575 48.6697 125.618 48.614 125.673L48.5831 125.698C48.3975 125.716 48.2057 125.729 48.0201 125.741C48.0634 125.433 48.1315 125.046 48.2738 124.621C50.0184 124.474 51.664 123.932 52.9879 123.053L52.6415 122.53C51.4846 123.293 50.0617 123.785 48.5398 123.963C48.5583 123.932 48.5707 123.902 48.5831 123.871C49.0285 123.028 50.4762 122.032 51.961 121.552C53.9716 121.115 55.0233 121.743 55.6358 122.469C54.4603 123.754 52.759 124.763 50.7484 125.304L50.7608 125.31ZM55.7533 118.969H39.0248V118.55H55.7533V118.969ZM57.2319 119.467V120.845H56.9164V117.511H57.2319V119.467ZM64.5877 107.448C64.5073 107.626 64.4022 107.799 64.2784 107.959L63.5051 108.912L60.4799 112.652L60.418 112.726L58.0424 115.659L57.9681 115.752L57.6526 116.139L57.6155 116.182L57.5784 116.225L57.467 116.367H55.6358L56.4648 115.346L56.6751 115.087L56.8793 114.835L57.3062 114.312L57.3433 114.269L57.6217 113.925L57.6588 113.882L57.9372 113.537L57.9743 113.494L58.9765 112.252C58.9765 112.252 59.0075 112.203 59.0198 112.172H59.0322L62.1255 108.358C62.5895 107.78 62.8122 107.079 62.7813 106.378C62.7689 106.138 62.7318 105.898 62.6575 105.658C62.6142 105.511 62.5586 105.369 62.4905 105.228C62.2863 104.803 61.9956 104.446 61.6368 104.17H62.441C62.8803 104.17 63.2948 104.286 63.6536 104.502C63.7588 104.563 63.8577 104.637 63.9505 104.711C64.0186 104.772 64.0866 104.834 64.1547 104.902C64.1918 104.938 64.2227 104.975 64.2537 105.018C64.3217 105.098 64.3774 105.185 64.4331 105.271C64.4764 105.338 64.5197 105.412 64.5568 105.492C64.5568 105.504 64.563 105.517 64.5692 105.523C64.86 106.15 64.8538 106.845 64.5754 107.454L64.5877 107.448ZM59.4962 108.352C60.22 107.46 60.3623 106.255 59.8612 105.221C59.6571 104.797 59.3663 104.44 59.0075 104.163H59.8117C60.7211 104.163 61.5316 104.674 61.9275 105.486C62.0327 105.707 62.1007 105.935 62.1317 106.162C62.1379 106.212 62.1441 106.261 62.1441 106.31C62.1936 106.894 62.0203 107.479 61.6368 107.952L58.4816 111.846L57.9681 112.486V110.228L59.4962 108.346V108.352ZM57.9681 109.238V104.293C58.5435 104.496 59.0198 104.914 59.292 105.486C59.688 106.304 59.5766 107.251 59.0013 107.959L57.9619 109.238H57.9681ZM68.1698 87.3223C67.8048 87.7283 67.4088 88.1035 66.9881 88.4541L66.023 89.2414C65.4477 88.2388 64.9404 87.1808 64.7733 86.3074L64.6434 85.637L63.7402 86.7749C63.6474 86.6703 63.5608 86.5657 63.4742 86.4673C62.9854 85.9014 62.5524 85.4032 61.909 84.5974C61.8904 84.5728 61.8657 84.5482 61.8471 84.5175C61.8471 84.5175 61.8471 84.5175 61.8409 84.5113C61.1913 83.681 60.3809 82.4139 59.6571 81.1283L68.1636 87.3223H68.1698ZM44.1164 69.8107C44.1906 69.9952 44.2772 70.2412 44.3391 70.5365C44.3886 70.7579 44.4381 71.0101 44.4814 71.2685C44.5185 71.4837 44.4443 71.5206 44.37 71.4468C44.2587 71.33 44.1473 71.2008 44.0978 71.1393C44.0978 71.1393 44.0916 71.127 44.0855 71.127C44.0731 71.1147 44.0669 71.1024 44.0669 71.1024C43.9865 71.0101 43.8999 70.9609 43.8071 70.9732C43.572 70.9978 43.4235 71.3976 43.473 71.8589C43.5225 72.3264 43.7514 72.6832 43.9865 72.6586C44.0793 72.6463 44.1597 72.5786 44.2216 72.4679C44.2339 72.4433 44.2525 72.4125 44.2587 72.3818C44.2958 72.2957 44.3638 72.1726 44.4319 72.0681C44.4938 71.9758 44.568 72.0127 44.568 72.2095C44.568 72.2772 44.568 72.3387 44.568 72.3941C44.5309 73.083 44.4072 73.5627 44.4072 73.5627C44.3762 73.7104 44.3638 73.8887 44.3824 74.0733C44.4319 74.5715 44.6794 74.9467 44.9268 74.9221C45.1743 74.8975 45.3351 74.4731 45.2795 73.9748C45.2609 73.7842 45.2114 73.6119 45.1434 73.4705C45.1434 73.4705 44.865 72.8738 44.7474 72.3879C44.735 72.3264 44.7165 72.2649 44.7041 72.1972C44.6608 71.9943 44.735 71.9512 44.8155 72.0558C44.9206 72.1911 45.0258 72.2957 45.0753 72.351C45.0753 72.351 45.0815 72.3633 45.0877 72.3633C45.1 72.3756 45.1062 72.3879 45.1062 72.3879C45.1867 72.4802 45.2733 72.5294 45.3661 72.5171C45.6012 72.4925 45.7496 72.0927 45.7001 71.6314C45.6507 71.1639 45.4217 70.8071 45.1867 70.8317C45.0939 70.844 45.0134 70.9117 44.9516 71.0224C44.9392 71.047 44.9145 71.0839 44.9021 71.1147C44.865 71.1946 44.8155 71.3115 44.7536 71.4099C44.6917 71.5083 44.6051 71.4653 44.5989 71.2623C44.5866 71.004 44.5804 70.7456 44.5866 70.518C44.5866 70.3889 44.5927 70.272 44.5989 70.1674L56.3287 78.711C57.1762 80.8516 59.4096 84.6651 60.7521 86.1475L61.2161 85.7292C60.0901 84.4806 58.3084 81.5405 57.3247 79.4368L58.494 80.2857C59.2735 81.7988 60.2695 83.4349 61.0985 84.5667H61.0923C61.2223 84.7451 61.346 84.8988 61.4635 85.0465C61.4759 85.0588 61.4883 85.0772 61.5007 85.0957C62.1069 85.8522 62.5338 86.3443 63.004 86.8917C63.1648 87.0763 63.3319 87.2731 63.5175 87.4822L63.7649 87.7713L64.3217 87.0701C64.8105 88.6201 65.9859 90.4347 66.7902 91.6894C66.9881 91.997 67.1614 92.2676 67.2913 92.4829C67.6192 93.0365 67.8976 93.6147 68.1327 94.2113L68.3244 94.7034L68.9617 93.9468C69.0112 95.3369 68.9493 97.2744 68.9245 97.9818H68.9122C68.8998 99.2427 68.6833 100.485 68.275 101.672L68.0894 102.214L68.8565 102.023C68.5781 102.896 67.7305 104.852 65.4106 106.814C65.4662 106.298 65.3796 105.763 65.1507 105.271C65.225 105.209 65.2992 105.135 65.3673 105.049C65.7013 104.643 65.788 104.194 65.6271 104.096C65.5652 104.059 65.4724 104.077 65.3673 104.133C65.3673 104.133 65.3611 104.133 65.3425 104.145C65.3425 104.145 65.3301 104.145 65.324 104.151C65.2559 104.188 65.1136 104.268 64.9713 104.323C64.8785 104.36 64.8476 104.305 64.9837 104.133C65.1384 103.93 65.2868 103.721 65.4106 103.53C65.8498 102.866 66.1468 102.46 66.1468 102.46C65.9612 102.564 65.8684 102.613 65.6766 102.706C65.59 102.521 65.5405 102.429 65.4415 102.257C65.4415 102.257 65.5962 102.589 65.2373 103.444C65.1507 103.647 65.0394 103.868 64.9033 104.083C64.7981 104.25 64.7177 104.256 64.7177 104.145C64.7177 104.04 64.7424 103.93 64.7486 103.85C64.7486 103.819 64.7486 103.782 64.7486 103.757C64.7486 103.647 64.7239 103.561 64.6558 103.524C64.495 103.425 64.198 103.616 63.9505 103.924C63.9443 103.936 63.932 103.948 63.9258 103.96C63.4865 103.708 62.9792 103.567 62.441 103.567H57.9619V103.062H61.3151V102.441H57.9619V102.361C57.9619 102.214 57.9557 102.066 57.9372 101.918H59.5086V101.297H57.8258C57.6031 100.43 57.1206 99.6425 56.4153 99.0521L53.9963 97.01C53.5447 96.5733 53.0807 96.0996 52.6167 95.5891C52.6291 95.4845 52.6353 95.3738 52.6353 95.2508C52.6353 94.9802 52.6105 94.7587 52.5672 94.5619C54.0891 96.0504 55.6049 97.3175 55.6234 97.336L56.0255 96.8562C56.0255 96.8562 53.6994 94.9064 51.9362 93.0242C51.8805 92.8274 51.8434 92.5998 51.8434 92.2984C51.8434 91.6402 52.0104 91.3265 52.2022 90.9698C52.4064 90.5884 52.6353 90.164 52.6353 89.3459C52.6353 88.5279 52.4064 88.0973 52.2022 87.7221C52.0104 87.3654 51.8434 87.0517 51.8434 86.3935C51.8434 85.7354 52.0104 85.4217 52.2022 85.0649C52.4064 84.6836 52.6353 84.2591 52.6353 83.4411C52.6353 82.1924 52.5177 81.9403 52.1589 81.196C52.0723 81.0176 51.9733 80.8023 51.8496 80.5379L51.7692 80.3533H43.8751C42.7244 76.7366 41.9882 72.6955 41.9387 68.2791L44.1164 69.8599V69.8107ZM41.3139 67.7686C41.3139 68.4083 41.3324 69.048 41.3634 69.6815C40.8066 74.0548 38.9258 77.6039 38.3629 78.588L38.9073 78.8956C39.3775 78.0713 40.7447 75.5003 41.5428 72.148C41.6108 72.8185 41.6974 73.4889 41.8026 74.1594C41.4314 75.3157 40.9736 76.6443 40.225 77.8745L40.7633 78.1944C41.3077 77.2963 41.7036 76.3552 42.0253 75.4634C42.1243 75.98 42.2233 76.4906 42.3408 77.0011C42.0129 77.7515 41.1716 79.1478 40.6457 79.7259L41.1097 80.1442C41.5613 79.646 42.1552 78.6987 42.5697 77.9422C42.6625 78.3112 42.7615 78.6741 42.8605 79.0432L42.8234 79.0247C42.6316 79.3692 41.3881 80.9254 40.8932 81.3436L41.2953 81.8234C41.45 81.6942 41.6727 81.4666 41.9078 81.196C41.9573 81.4543 42.0686 81.6819 42.1985 81.9095C41.8768 82.2109 41.1716 82.8567 40.8375 83.152L41.252 83.6195C41.5551 83.3488 42.1552 82.8014 42.5141 82.4692C42.6254 82.6907 42.7244 82.9429 42.7986 83.2504C42.6687 83.3796 42.4584 83.6072 42.1985 83.8962C41.7407 84.4068 41.1097 85.108 40.6766 85.477L41.085 85.9506C41.5428 85.5508 42.1614 84.8681 42.6625 84.3145C42.7182 84.253 42.7677 84.1976 42.8172 84.1423C42.7553 84.3576 42.6502 84.5421 42.5264 84.7451C42.3346 85.0649 42.1243 85.4217 42.0563 85.9629C41.4438 86.6088 40.324 87.5868 39.9033 87.882L40.2621 88.3926C40.6148 88.1465 41.419 87.4638 42.0624 86.8425C42.1057 87.1501 42.1862 87.3961 42.2728 87.5991C41.9202 87.9189 41.2644 88.5217 40.8375 88.8908L41.252 89.3582C41.6356 89.0261 42.1985 88.5156 42.5697 88.1711C42.6935 88.411 42.7863 88.6632 42.8172 89.0569L42.8048 89.0445L42.6069 89.2291C41.982 89.8073 40.3178 91.3511 39.9961 91.5726L40.3549 92.0831C40.6457 91.8863 41.6974 90.9206 42.7553 89.9426C42.6873 90.2194 42.5821 90.4162 42.4646 90.6376C42.3161 90.9083 42.1552 91.2158 42.081 91.6648C41.0911 92.5813 39.8353 93.67 39.1609 94.1375L39.5198 94.648C40.1446 94.2175 41.1716 93.3379 42.0439 92.5444C42.0748 92.9565 42.1676 93.2518 42.279 93.5039C41.5613 94.0944 39.4641 95.8228 37.8556 96.9915L38.2268 97.4959C39.7734 96.3764 41.7655 94.7464 42.5759 94.076C42.712 94.3466 42.8172 94.6296 42.8358 95.1032L38.1958 99.0152C37.4967 99.6056 37.008 100.393 36.7853 101.26H35.8511V101.881H36.6739C36.6616 102.029 36.6492 102.177 36.6492 102.324V102.404H33.5559V103.026H36.6492V103.53H32.1206C30.9637 103.53 29.9368 104.176 29.4356 105.209C29.1634 105.775 29.083 106.39 29.182 106.974C26.7074 104.963 25.8103 102.915 25.5134 101.992L26.2805 102.22L26.0825 101.648C25.6742 100.461 25.4577 99.2181 25.4453 97.9572H25.4267C25.3154 96.3949 25.4329 95.3 25.5567 94.1498C25.5567 94.119 25.5629 94.0883 25.569 94.0637L26.0145 94.771L26.2434 94.1929C26.5589 93.3871 27.2394 92.2553 27.7776 91.4619L27.7653 91.4496C27.9199 91.2158 28.087 90.9821 28.254 90.7422C28.4272 90.4962 28.6005 90.2378 28.7737 89.9795L28.9222 89.8011L28.9036 89.7827C29.4604 88.9461 29.9862 88.0727 30.2708 87.2485L30.5616 87.8144L30.8647 87.4576C31.0503 87.2423 31.2174 87.0517 31.372 86.8671C31.8484 86.3197 32.2753 85.8276 32.8816 85.0649C32.8816 85.0649 32.9249 85.0096 32.9496 84.985C33.061 84.8496 33.1723 84.7082 33.2961 84.5482C34.5767 82.8383 36.3584 79.9474 37.0822 78.1083L37.4287 78.9448L37.7442 78.3727C38.5856 76.8412 40.5344 72.7631 40.8994 67.4426L41.3386 67.7624L41.3139 67.7686ZM30.5245 60.1784C30.6049 60.1784 30.6791 60.1968 30.7472 60.2337C30.9514 60.3445 31.0998 60.5966 31.0998 60.898C31.0998 61.1379 31.007 61.347 30.8586 61.4824C30.7658 61.5685 30.6482 61.6177 30.5245 61.6177C30.209 61.6177 29.9491 61.2978 29.9491 60.898C29.9491 60.4982 30.2028 60.1784 30.5245 60.1784ZM26.1382 56.7154L27.6787 57.8349C27.5178 58.0256 27.2827 58.1486 27.0105 58.1486C26.528 58.1486 26.1382 57.7611 26.1382 57.2813V56.7154ZM22.9026 55.5529V54.5134C22.9026 54.4642 22.9088 54.415 22.915 54.3719L23.28 54.6364L24.6472 55.6329V57.2813C24.6472 57.7611 24.2575 58.1486 23.7749 58.1486C23.6079 58.1486 23.4532 58.0994 23.3171 58.0194C23.0697 57.8656 22.9026 57.595 22.9026 57.2813V55.5529ZM18.838 56.943L19.1659 55.965L19.2711 55.6452L19.3948 55.27L19.5062 54.9317L19.7104 54.3166C19.8588 53.8614 20.3599 53.6154 20.8116 53.763C21.2694 53.9106 21.5168 54.4027 21.3684 54.8579L21.356 54.8886L21.0776 55.7251L21.0652 55.762L20.892 56.2849L20.6631 56.9799L20.5888 57.2013L20.496 57.4904C20.4651 57.5889 20.4094 57.6811 20.3476 57.7611C20.1805 57.9641 19.9331 58.0871 19.667 58.0871C19.6237 58.0871 19.5804 58.0871 19.5309 58.0748C19.4814 58.0686 19.4381 58.0563 19.3887 58.044C19.2897 58.0133 19.2031 57.9579 19.1226 57.8964C19.036 57.8287 18.9618 57.7426 18.9061 57.6442C18.7886 57.4351 18.7514 57.189 18.8319 56.943H18.838ZM15.3736 57.3982C15.4664 57.189 15.6396 57.023 15.8561 56.943L18.504 55.9343L18.2689 56.6416C17.5451 57.2506 16.914 57.9333 16.3943 58.5914C16.3201 58.6099 16.2459 58.6284 16.1654 58.6284C16.0417 58.6284 15.9242 58.6038 15.8128 58.5545C15.6025 58.4623 15.4354 58.2901 15.355 58.0748C15.2684 57.8595 15.2746 57.6196 15.3736 57.4105V57.3982Z" fill="#1A1A1A"/>
<path d="M20.6632 66.6614V62.6387H15.7758C16.5862 63.832 17.8792 65.2037 19.4568 66.1263C19.8403 66.3539 20.2425 66.5507 20.6632 66.7106V66.6553V66.6614Z" fill="#1A1A1A"/>
<path d="M52.4931 114.7C52.8148 114.761 53.1426 114.786 53.4829 114.786C53.7613 114.786 54.0521 114.768 54.3367 114.725C54.7264 114.669 55.1224 114.571 55.5183 114.442L55.3451 113.931L55.3141 113.851C55.3141 113.851 55.2832 113.863 55.2708 113.863C55.1718 113.894 55.0667 113.925 54.9615 113.956C54.6831 114.03 54.3614 114.097 54.015 114.134C53.5819 114.177 53.1117 114.177 52.6168 114.085L52.5116 114.066C51.5589 113.888 50.7299 113.728 50.0989 113.494L49.8823 114.079C50.569 114.331 51.4166 114.491 52.4003 114.675L52.5054 114.694L52.4931 114.7Z" fill="#1A1A1A"/>
<path d="M40.2992 114.823C40.5405 114.848 40.8065 114.848 41.0911 114.804C41.1963 114.786 41.3076 114.768 41.419 114.743L41.2643 114.14C41.0354 114.196 40.8127 114.22 40.6085 114.214C40.2435 114.214 39.928 114.134 39.6682 114.048C39.5444 114.005 39.4269 113.962 39.3341 113.925C39.3155 113.919 39.3032 113.913 39.2846 113.906C39.2289 113.882 39.1794 113.863 39.1299 113.851L39.0186 114.177L38.9258 114.442C38.9753 114.46 39.031 114.479 39.099 114.509C39.3712 114.614 39.7795 114.774 40.293 114.829L40.2992 114.823Z" fill="#1A1A1A"/>
<path d="M43.5657 111.169H43.7451V110.548H43.2254C43.4296 110.351 43.5595 110.075 43.5595 109.767C43.5595 109.164 43.0708 108.678 42.4645 108.678C41.8582 108.678 41.3695 109.164 41.3695 109.767C41.3695 110.075 41.4994 110.351 41.7035 110.548H41.054V111.169H43.5781H43.5657ZM42.4583 110.53C42.0376 110.53 41.6912 110.185 41.6912 109.767H42.1119C42.1119 109.958 42.2665 110.111 42.4583 110.111V110.53Z" fill="#1A1A1A"/>
<path d="M52.0228 111.169H53.3591V110.548H52.9446C53.1488 110.351 53.2787 110.075 53.2787 109.767C53.2787 109.164 52.79 108.678 52.1837 108.678C51.5774 108.678 51.0887 109.164 51.0887 109.767C51.0887 110.075 51.2186 110.351 51.4227 110.548H50.668V111.169H52.029H52.0228ZM51.4165 109.767H51.8372C51.8372 109.958 51.9919 110.111 52.1837 110.111V110.53C51.763 110.53 51.4165 110.185 51.4165 109.767Z" fill="#1A1A1A"/>
<path d="M48.8862 98.1663C48.8862 98.5169 48.9543 98.8491 49.0966 99.1751L49.6719 98.9291C49.5668 98.683 49.5111 98.437 49.5111 98.1725C49.5111 97.5143 49.6781 97.2007 49.8699 96.8439C50.0741 96.4625 50.303 96.0381 50.303 95.2201C50.303 94.9986 50.2844 94.8141 50.2597 94.6419C50.2287 94.4389 50.173 94.2667 50.1174 94.1129C50.0431 93.9161 49.9565 93.75 49.8699 93.5962C49.8452 93.5532 49.8204 93.504 49.7957 93.4609C49.6843 93.2518 49.5977 93.0426 49.5482 92.7535C49.5234 92.6121 49.5111 92.4583 49.5111 92.2676C49.5111 92.0585 49.5296 91.8924 49.5606 91.7387C49.6224 91.4065 49.74 91.1851 49.8761 90.939C50.0802 90.5577 50.3091 90.1333 50.3091 89.3152C50.3091 88.4971 50.0802 88.0666 49.8761 87.6914C49.6843 87.3346 49.5173 87.0209 49.5173 86.3628C49.5173 85.7046 49.6843 85.3909 49.8761 85.0342C50.0802 84.6528 50.3091 84.2284 50.3091 83.4103C50.3091 82.4693 50.2473 82.0879 50.0122 81.5528L49.4368 81.805C49.6224 82.2232 49.6781 82.5123 49.6781 83.4103C49.6781 84.0685 49.5111 84.3822 49.3193 84.7389C49.1151 85.1203 48.8862 85.5447 48.8862 86.3628C48.8862 87.1808 49.1151 87.6114 49.3193 87.9866C49.5111 88.3434 49.6781 88.6571 49.6781 89.3152C49.6781 89.9733 49.5111 90.287 49.3193 90.6438C49.2451 90.7791 49.1708 90.9206 49.1028 91.0805C49.0162 91.2896 48.9419 91.5357 48.911 91.8494C48.8986 91.9785 48.8862 92.1139 48.8862 92.2615C48.8862 92.5567 48.9172 92.7966 48.9667 93.0057C48.9976 93.1534 49.0409 93.2825 49.0904 93.4056C49.1646 93.5901 49.2451 93.7438 49.3255 93.8915C49.3255 93.8915 49.3255 93.8915 49.3255 93.8976C49.5173 94.2544 49.6843 94.5619 49.6843 95.2201C49.6843 95.8782 49.5173 96.1919 49.3255 96.5487C49.1213 96.93 48.8924 97.3544 48.8924 98.1725L48.8862 98.1663Z" fill="#1A1A1A"/>
<path d="M46.5477 98.1663H47.1726C47.1726 97.5082 47.3396 97.1945 47.5314 96.8377C47.7356 96.4564 47.9645 96.032 47.9645 95.2139C47.9645 94.3958 47.7356 93.9653 47.5314 93.5901C47.4757 93.4917 47.4262 93.3994 47.3829 93.301C47.3396 93.2026 47.2963 93.1041 47.2654 92.9934C47.2344 92.9012 47.2159 92.7966 47.1973 92.6797C47.1788 92.5567 47.1726 92.4214 47.1726 92.2676C47.1726 91.6095 47.3396 91.2958 47.5314 90.939C47.6366 90.7361 47.7541 90.5208 47.8407 90.244C47.915 89.998 47.9706 89.7027 47.9706 89.3214C47.9706 88.5033 47.7417 88.0727 47.5376 87.6975C47.3458 87.3408 47.1788 87.0271 47.1788 86.3689C47.1788 85.7108 47.3458 85.3971 47.5376 85.0403C47.7417 84.659 47.9706 84.2346 47.9706 83.4165C47.9706 82.3647 47.884 82.0141 47.618 81.4297L47.0488 81.6881C47.2716 82.174 47.3458 82.4139 47.3458 83.4165C47.3458 84.0746 47.1788 84.3883 46.987 84.7451C46.7828 85.1264 46.5539 85.5508 46.5539 86.3689C46.5539 86.5473 46.5663 86.7011 46.5849 86.8487C46.6529 87.3654 46.8261 87.6975 46.987 87.9928C47.1788 88.3495 47.3458 88.6632 47.3458 89.3214C47.3458 89.3583 47.3458 89.3952 47.3458 89.4321C47.3272 90.0164 47.1726 90.3178 46.987 90.6561C46.7828 91.0375 46.5539 91.4619 46.5539 92.2799C46.5539 92.4522 46.5663 92.6059 46.5849 92.7535C46.5972 92.8643 46.6158 92.9688 46.6405 93.0672C46.6653 93.178 46.6962 93.2764 46.7333 93.3686C46.8076 93.5778 46.9004 93.75 46.987 93.9099C47.1788 94.2667 47.3458 94.5804 47.3458 95.2385C47.3458 95.8967 47.1788 96.2104 46.987 96.5671C46.7828 96.9485 46.5539 97.3729 46.5539 98.1909L46.5477 98.1663Z" fill="#1A1A1A"/>
<path d="M44.2153 98.1664C44.2153 98.517 44.2834 98.8491 44.4257 99.1751L45.001 98.9291C44.8959 98.683 44.8402 98.4432 44.8402 98.1725C44.8402 97.5144 45.0072 97.2007 45.199 96.8439C45.4032 96.4626 45.6321 96.0382 45.6321 95.2201C45.6321 94.5865 45.4898 94.1867 45.3351 93.8607C45.2918 93.7685 45.2423 93.6824 45.199 93.5963C45.199 93.5963 45.199 93.5901 45.1928 93.584C45.1433 93.4917 45.0938 93.3994 45.0505 93.301C44.9268 93.0365 44.8402 92.7413 44.8402 92.2615C44.8402 91.6034 45.0072 91.2897 45.199 90.9329C45.4032 90.5516 45.6321 90.1271 45.6321 89.3091C45.6321 88.491 45.4032 88.0604 45.199 87.6852C45.0072 87.3285 44.8402 87.0148 44.8402 86.3566C44.8402 85.7969 44.9639 85.4894 45.1186 85.188C45.1433 85.1326 45.1743 85.0834 45.2052 85.028C45.2918 84.8681 45.3846 84.6898 45.4588 84.4868C45.564 84.21 45.6382 83.8717 45.6382 83.4042C45.6382 82.3401 45.5578 81.9957 45.267 81.3867L44.6979 81.6512C44.933 82.1556 45.0072 82.4016 45.0072 83.4042C45.0072 83.4104 45.0072 83.4227 45.0072 83.4288C45.0072 83.9024 44.9144 84.1977 44.7907 84.4622C44.7474 84.5544 44.6979 84.6405 44.6484 84.7328C44.4442 85.1142 44.2153 85.5386 44.2153 86.3566C44.2153 87.1747 44.4442 87.6053 44.6484 87.9805C44.8402 88.3372 45.0072 88.6509 45.0072 89.3091C45.0072 89.9672 44.8402 90.2809 44.6484 90.6377C44.4442 91.019 44.2153 91.4434 44.2153 92.2615C44.2153 92.9258 44.37 93.3318 44.5308 93.6639C44.568 93.7439 44.6113 93.8177 44.6484 93.8853C44.6608 93.9038 44.667 93.9223 44.6793 93.9407C44.7288 94.033 44.7783 94.1314 44.8216 94.2298C44.933 94.482 45.0072 94.7649 45.0072 95.2139C45.0072 95.8721 44.8402 96.1858 44.6484 96.5425C44.4442 96.9239 44.2153 97.3483 44.2153 98.1664Z" fill="#1A1A1A"/>
<path d="M38.8889 90.816C38.8889 90.816 38.5857 91.1728 37.9918 91.6403C37.8248 91.7756 37.633 91.9294 37.4412 92.0893C37.2804 92.2246 37.2371 92.1692 37.2742 92.0585C37.336 91.8924 37.4226 91.7264 37.4598 91.6464C37.4598 91.6403 37.466 91.6341 37.4721 91.628C37.4783 91.6095 37.4845 91.6034 37.4845 91.6034C37.5402 91.4865 37.5649 91.3758 37.5464 91.2835C37.4907 91.0559 37.1381 91.0498 36.7607 91.3266C36.3833 91.6034 36.142 92.0647 36.2225 92.3046C36.2534 92.3968 36.3276 92.446 36.4328 92.446C36.4575 92.446 36.4823 92.446 36.5132 92.4399C36.5875 92.4337 36.705 92.4337 36.804 92.4399C36.8906 92.4522 36.8844 92.5506 36.7298 92.6552C36.6741 92.6921 36.6308 92.729 36.5875 92.7536C36.0492 93.1103 35.6471 93.3195 35.6471 93.3195C35.5234 93.3871 35.3873 93.4978 35.2574 93.6578C34.9109 94.076 34.7439 94.6727 34.8738 94.9187C35.0037 95.1647 35.3563 94.974 35.6718 94.5435C35.7956 94.3774 35.9008 94.2052 35.975 94.033C35.975 94.033 36.3029 93.3379 36.637 92.9381C36.6803 92.8889 36.7236 92.8335 36.7731 92.7843C36.9153 92.6244 36.971 92.6798 36.9153 92.8212C36.8411 92.9996 36.7978 93.1657 36.7731 93.2456C36.7731 93.2518 36.7731 93.2579 36.7669 93.2641C36.7607 93.2825 36.7545 93.2949 36.7545 93.2949C36.7112 93.424 36.7112 93.547 36.7545 93.627C36.8597 93.8361 37.1999 93.7193 37.5278 93.424C37.8557 93.1226 38.0537 92.7597 37.9733 92.5567C37.9423 92.4768 37.8619 92.4337 37.7629 92.4276C37.7382 92.4276 37.7072 92.4214 37.6763 92.4276C37.6021 92.4276 37.5031 92.4337 37.4103 92.4276C37.3113 92.4153 37.3299 92.3107 37.4845 92.2061C37.6887 92.0708 37.8928 91.9601 38.0722 91.874C38.8394 91.5049 39.1116 91.6341 39.1116 91.6341C38.9507 91.5357 38.8703 91.4865 38.7095 91.3819C38.7775 91.1605 38.8146 91.0498 38.8951 90.8345L38.8889 90.816Z" fill="#1A1A1A"/>
<path d="M38.6722 82.6661C38.1958 83.0905 37.7937 83.3304 37.7937 83.3304C37.6762 83.4042 37.5524 83.5149 37.4411 83.6502C37.1503 84.0131 37.0575 84.4191 37.2369 84.5667C37.4163 84.7143 37.7999 84.5359 38.0907 84.1792C38.202 84.0377 38.2886 83.8901 38.3319 83.7548C38.3319 83.7548 38.5423 83.1827 38.7836 82.7829C38.8145 82.7337 38.8454 82.6784 38.8826 82.6292C38.9877 82.4692 39.0682 82.4877 39.0496 82.6107C39.031 82.7645 39.031 82.9059 39.0248 82.9736C39.0248 82.9736 39.0248 82.9859 39.0248 82.9921C39.0248 83.0105 39.0248 83.0167 39.0248 83.0167C39.0187 83.1274 39.0434 83.2196 39.1115 83.275C39.2847 83.4103 39.6435 83.2442 39.9157 82.9059C40.1879 82.5676 40.2745 82.1801 40.1075 82.0448C40.0394 81.9895 39.9405 81.9833 39.8291 82.0202C39.8044 82.0264 39.7672 82.0325 39.7363 82.051C39.6621 82.0817 39.5507 82.1248 39.4455 82.1432C39.3342 82.1678 39.3156 82.0817 39.4455 81.9464C39.6064 81.768 39.7734 81.5958 39.9281 81.4482C40.5715 80.8208 40.887 80.747 40.887 80.747H40.3426L40.2312 80.2242C40.2312 80.2242 40.1508 80.6855 39.7487 81.3129C39.6311 81.4912 39.5012 81.6942 39.3589 81.8849C39.2414 82.051 39.1671 82.0264 39.1671 81.928C39.1671 81.7803 39.1857 81.6204 39.1919 81.5466C39.1919 81.5466 39.1919 81.5343 39.1919 81.5281C39.1919 81.5097 39.1919 81.5035 39.1919 81.5035C39.1981 81.3928 39.1733 81.3006 39.1053 81.2452C38.9382 81.1099 38.5732 81.276 38.301 81.6143C38.0288 81.9526 37.9422 82.3401 38.1092 82.4754C38.1773 82.5307 38.2763 82.5369 38.3876 82.5C38.4124 82.4938 38.4433 82.4815 38.4742 82.4692C38.5547 82.4385 38.6784 82.4016 38.7959 82.377C38.8949 82.3524 38.9197 82.4323 38.7959 82.5553C38.7526 82.5984 38.7093 82.6415 38.6722 82.6722V82.6661Z" fill="#1A1A1A"/>
<path d="M54.8811 82.377C54.9677 82.5861 54.9182 82.6415 54.8316 82.5923C54.7017 82.5185 54.5717 82.4139 54.5099 82.3708C54.5099 82.3708 54.4975 82.3647 54.4975 82.3585C54.4851 82.3462 54.4789 82.3401 54.4789 82.3401C54.3861 82.2724 54.2933 82.2478 54.2129 82.2909C54.0149 82.3954 53.9902 82.8875 54.1944 83.3488C54.3985 83.8101 54.7388 84.0623 54.9182 83.9332C54.9924 83.884 55.0295 83.7855 55.0419 83.6502C55.0419 83.6502 55.0419 83.6502 55.0419 83.6441C55.0419 83.6133 55.0419 83.5764 55.0419 83.5457C55.0419 83.4472 55.0543 83.3058 55.079 83.1766C55.0976 83.0659 55.178 83.072 55.2399 83.2627C55.2646 83.3304 55.2832 83.3857 55.3018 83.4411C55.5121 84.1054 55.6358 84.5913 55.6358 84.5913C55.6729 84.7389 55.7472 84.8989 55.8524 85.0526C56.1308 85.4586 56.5143 85.6308 56.6937 85.4832C56.8731 85.3356 56.7865 84.9419 56.5267 84.5544C56.4277 84.4068 56.3163 84.2776 56.1988 84.1854C56.1988 84.1854 55.7286 83.7794 55.4564 83.3673C55.4193 83.3119 55.3884 83.2566 55.3512 83.2012C55.2461 83.0228 55.2956 82.9552 55.4007 83.029C55.5307 83.1212 55.6606 83.1766 55.7224 83.2135C55.7224 83.2135 55.7348 83.2135 55.7348 83.2197C55.7472 83.2258 55.7596 83.232 55.7596 83.232C55.8585 83.2873 55.9513 83.2996 56.0256 83.2566C56.2174 83.152 56.2112 82.7583 56.0441 82.3401C55.8771 81.9218 55.5987 81.6327 55.3946 81.7188C55.3141 81.7558 55.2584 81.848 55.2337 81.971C55.2337 81.971 55.2337 81.971 55.2337 81.9772C55.2275 82.0079 55.2151 82.0448 55.209 82.0817C55.1966 82.174 55.1842 82.3032 55.1533 82.42C55.1223 82.5431 55.0419 82.5246 54.9739 82.3216C54.8934 82.0633 54.8316 81.7988 54.7883 81.5651C54.6027 80.5625 54.7821 80.1811 54.7821 80.1811C54.646 80.3903 54.5779 80.4948 54.4542 80.7162C54.2562 80.624 54.1634 80.5809 53.9655 80.4825C53.9655 80.4825 54.2624 80.8885 54.5841 81.6573C54.6769 81.8788 54.7821 82.1248 54.8873 82.3708L54.8811 82.377Z" fill="#1A1A1A"/>
<path d="M57.7144 94.3774C57.8814 94.5127 58.0608 94.6726 58.2341 94.8326C58.3825 94.974 58.3454 95.0355 58.2526 95.0232C58.1041 95.0048 57.9495 94.9679 57.8752 94.9494C57.8752 94.9494 57.8629 94.9494 57.8567 94.9494C57.8381 94.9494 57.8319 94.9494 57.8319 94.9494C57.7206 94.931 57.6278 94.9494 57.5659 95.0048C57.4112 95.1524 57.5288 95.5338 57.8319 95.8475C58.1351 96.1612 58.5063 96.2965 58.6671 96.1427C58.729 96.0812 58.7475 95.9889 58.729 95.8721C58.729 95.8413 58.7166 95.8167 58.7104 95.786C58.6919 95.6999 58.6671 95.5768 58.6547 95.46C58.6486 95.3616 58.7228 95.3431 58.8342 95.4846C58.8713 95.5338 58.9084 95.583 58.9393 95.6199C59.3043 96.1427 59.4899 96.5733 59.4899 96.5733C59.5518 96.7024 59.6446 96.8378 59.7621 96.9608C60.0838 97.2929 60.4798 97.4344 60.6468 97.2745C60.8139 97.1146 60.6901 96.7147 60.3684 96.3826C60.2447 96.2534 60.1086 96.155 59.9787 96.0874C59.9787 96.0874 59.4343 95.8044 59.0693 95.5153C59.0198 95.4784 58.9764 95.4415 58.927 95.3985C58.7785 95.2754 58.8094 95.2016 58.927 95.2324C59.0816 95.2754 59.2177 95.2877 59.2858 95.3062C59.2858 95.3062 59.2982 95.3062 59.3043 95.3062C59.3229 95.3062 59.3291 95.3062 59.3291 95.3062C59.4404 95.3246 59.5332 95.3062 59.5951 95.2508C59.756 95.1032 59.6322 94.7219 59.3291 94.4082C59.0259 94.0945 58.6547 93.9591 58.4939 94.1129C58.432 94.1744 58.4135 94.2667 58.432 94.3836C58.432 94.4143 58.4382 94.4512 58.4506 94.4758C58.4692 94.5558 58.5001 94.6665 58.5063 94.7772C58.5186 94.8879 58.432 94.9002 58.3083 94.7588C58.1474 94.5742 57.999 94.3897 57.8752 94.2175C57.3308 93.504 57.2999 93.178 57.2999 93.178L57.2318 93.7131L56.6936 93.7562C56.6936 93.7562 57.1452 93.8915 57.7206 94.3713L57.7144 94.3774Z" fill="#1A1A1A"/>
<path d="M28.9902 102.429C28.9902 102.429 28.5881 101.955 28.4149 101.506C28.3901 101.451 28.3716 101.389 28.353 101.328C28.2911 101.137 28.353 101.088 28.4272 101.186C28.5262 101.303 28.6252 101.389 28.6747 101.439C28.6747 101.439 28.6809 101.445 28.6871 101.451C28.6995 101.463 28.7056 101.469 28.7056 101.469C28.7861 101.543 28.8665 101.574 28.9345 101.549C29.1201 101.494 29.1696 101.15 29.1078 100.762C29.0459 100.375 28.8912 100.061 28.6995 100.061C28.6252 100.061 28.551 100.116 28.5015 100.215C28.4891 100.239 28.4706 100.27 28.4582 100.295C28.4272 100.368 28.3839 100.473 28.3344 100.565C28.285 100.657 28.2107 100.614 28.2045 100.418C28.1983 100.165 28.2169 99.9132 28.2478 99.698C28.3778 98.7815 28.6809 98.5723 28.6809 98.5723C28.5077 98.6708 28.4149 98.7261 28.2478 98.843C28.1303 98.6708 28.0746 98.5846 27.9694 98.4001C27.9694 98.4001 28.0189 98.8983 28.056 99.6918C28.0684 99.9194 28.087 100.172 28.1179 100.424C28.1427 100.639 28.087 100.67 28.0251 100.596C27.9323 100.479 27.8457 100.338 27.8086 100.27C27.8086 100.27 27.8086 100.258 27.8024 100.252C27.7962 100.239 27.79 100.227 27.79 100.227C27.7282 100.129 27.6601 100.067 27.5859 100.067C27.3941 100.067 27.2394 100.504 27.3198 101.02C27.4003 101.537 27.6787 101.906 27.8581 101.851C27.9323 101.832 27.9818 101.746 28.0066 101.629C28.0066 101.629 28.0066 101.629 28.0066 101.623C28.0127 101.592 28.0189 101.562 28.0251 101.531C28.0437 101.445 28.0746 101.316 28.1179 101.205C28.155 101.113 28.2169 101.143 28.2416 101.334C28.2478 101.402 28.2602 101.463 28.2664 101.512C28.353 102.183 28.4458 102.675 28.4458 102.675C28.4706 102.829 28.5386 103.001 28.6314 103.167C28.8912 103.622 29.2934 103.856 29.4542 103.733C29.6151 103.61 29.4975 103.21 29.2686 102.81C29.182 102.657 29.083 102.521 28.984 102.411L28.9902 102.429Z" fill="#1A1A1A"/>
</svg>
