<svg width="61" height="91" viewBox="0 0 61 91" fill="none" xmlns="http://www.w3.org/2000/svg">
<path d="M56.3035 90.9961H4.70426C2.31672 90.9961 0.372925 89.0635 0.372925 86.6897V4.30638C0.372925 1.9326 2.31672 0 4.70426 0H56.3035C58.6911 0 60.6349 1.9326 60.6349 4.30638V86.6936C60.6349 89.0674 58.6911 91 56.3035 91V90.9961Z" fill="white"/>
<path d="M9.94275 6.5547C9.94275 6.5547 9.94657 6.5547 9.95038 6.55088C9.95038 6.54325 9.95038 6.53943 9.95038 6.53179C9.95038 6.53943 9.95037 6.54707 9.94656 6.5547H9.94275Z" fill="#ED1C24"/>
<path d="M51.057 86.3144C51.057 86.3144 51.057 86.2991 51.0609 86.2915C51.0609 86.2915 51.057 86.2915 51.0532 86.2953C51.0532 86.3029 51.0532 86.3068 51.0532 86.3144H51.057Z" fill="#ED1C24"/>
<path d="M9.94275 6.48443C9.94275 6.48443 9.94657 6.48443 9.95038 6.48061C9.95038 6.47297 9.95038 6.46915 9.95038 6.46152C9.95038 6.46915 9.95037 6.47679 9.94656 6.48443H9.94275Z" fill="#ED1C24"/>
<path d="M51.0572 86.2441C51.0572 86.2441 51.0572 86.2288 51.061 86.2212C51.061 86.2212 51.0572 86.2212 51.0533 86.225C51.0533 86.2327 51.0533 86.2365 51.0533 86.2441H51.0572Z" fill="#ED1C24"/>
<path d="M11.6313 5.56744C11.4625 4.96229 10.846 4.5133 10.1156 4.5133C9.38516 4.5133 8.71757 5.00133 8.58013 5.64163C8.44269 4.99743 7.80655 4.5133 7.04473 4.5133C6.33004 4.5133 5.79597 4.96619 5.54073 5.5245C4.75928 7.24627 6.70701 9.91677 7.57485 11.1505C8.43876 12.3842 8.58799 13.1573 8.58799 13.1573C8.58799 13.1573 8.7215 12.3101 9.56578 11.1505C10.4022 9.99876 12.3696 7.43758 11.6274 5.56744H11.6313ZM8.58013 5.8954C8.58013 5.8954 8.58013 5.88369 8.58013 5.87978C8.58013 5.88369 8.58013 5.88759 8.58013 5.8915C8.58013 5.8915 8.58015 5.8915 8.57622 5.8915L8.58013 5.8954Z" fill="#ED1C24"/>
<path d="M52.7773 77.6006C52.7773 77.6006 52.6438 78.4479 51.7995 79.6074C50.9631 80.7592 48.9957 83.3204 49.7379 85.1905C49.9067 85.7956 50.5232 86.2446 51.2536 86.2446C51.984 86.2446 52.6516 85.7566 52.789 85.1163C52.9265 85.7605 53.5626 86.2446 54.3245 86.2446C55.0392 86.2446 55.5732 85.7917 55.8284 85.2334C56.6099 83.5117 54.6622 80.8412 53.7943 79.6074C52.9304 78.3737 52.7812 77.6006 52.7812 77.6006H52.7773ZM52.7851 84.8781C52.7851 84.8781 52.7851 84.8703 52.7851 84.8664C52.7851 84.8664 52.7851 84.8664 52.789 84.8664C52.789 84.8703 52.789 84.8782 52.789 84.8821L52.7851 84.8781Z" fill="#ED1C24"/>
<path d="M7.79082 19.4626H8.59583V18.7638H6.22791V18.1547L8.50942 15.4686H9.32622V18.1547H9.80922C9.80922 18.1547 9.81709 18.1547 9.82101 18.1547C9.82101 18.1547 9.82101 18.1508 9.82101 18.143V17.6081H10.4257V19.0605H9.82101V18.7638H9.32229V19.4626H10.0174V20.0912H7.78689V19.4626H7.79082ZM8.65865 18.1586V16.1714L6.93867 18.1586H8.65865Z" fill="#ED1C24"/>
<path d="M53.217 71.389H52.4159V72.0879H54.7838V72.6969L52.5023 75.383H51.6855V72.6969H51.2025C51.2025 72.6969 51.1946 72.6969 51.1907 72.6969C51.1867 72.6969 51.1907 72.7008 51.1907 72.7086V73.2435H50.5859V71.7911H51.1907V72.0879H51.6894V71.389H50.9943V70.7604H53.2248V71.389H53.217ZM52.3491 72.6969V74.6842L54.0691 72.6969H52.3491Z" fill="#ED1C24"/>
<path d="M22.9564 23.0701C22.7129 22.2073 21.8411 21.5709 20.7966 21.5709C19.752 21.5709 18.8057 22.2659 18.6132 23.1795C18.4169 22.262 17.5137 21.5709 16.4299 21.5709C15.4128 21.5709 14.651 22.2151 14.2897 23.0116C13.1784 25.4634 15.9508 29.2662 17.1838 31.0231C18.4169 32.78 18.6289 33.881 18.6289 33.881C18.6289 33.881 18.8213 32.6746 20.023 31.0231C21.2128 29.3833 24.0166 25.7367 22.9603 23.0701H22.9564ZM18.6093 23.5426C18.6093 23.5426 18.6093 23.5269 18.6132 23.5191C18.6132 23.5269 18.6132 23.5308 18.6132 23.5387C18.6132 23.5387 18.6093 23.5387 18.6054 23.5426H18.6093Z" fill="#ED1C24"/>
<path d="M18.5898 56.9707C18.5898 56.9707 18.3973 58.1771 17.1957 59.8286C16.0059 61.4683 13.2021 65.1149 14.2584 67.7815C14.5019 68.6443 15.3736 69.2807 16.4182 69.2807C17.4627 69.2807 18.4091 68.5858 18.6015 67.6722C18.7979 68.5897 19.7011 69.2807 20.7849 69.2807C21.8019 69.2807 22.5638 68.6365 22.925 67.8401C24.0363 65.3882 21.264 61.5855 20.0309 59.8247C18.7979 58.0677 18.5858 56.9668 18.5858 56.9668L18.5898 56.9707ZM18.6055 67.3364C18.6055 67.3364 18.6055 67.3247 18.6055 67.3169C18.6055 67.3169 18.6094 67.3169 18.6133 67.313C18.6133 67.3208 18.6133 67.3286 18.6094 67.3364H18.6055Z" fill="#ED1C24"/>
<path d="M47.1068 23.0701C46.8633 22.2073 45.9915 21.5709 44.947 21.5709C43.9024 21.5709 42.956 22.2659 42.7636 23.1795C42.5673 22.262 41.6641 21.5709 40.5803 21.5709C39.5632 21.5709 38.8014 22.2151 38.4401 23.0116C37.3288 25.4634 40.1012 29.2662 41.3342 31.0231C42.5673 32.78 42.7793 33.881 42.7793 33.881C42.7793 33.881 42.9717 32.6746 44.1734 31.0231C45.3632 29.3833 48.167 25.7367 47.1107 23.0701H47.1068ZM42.7558 23.5426C42.7558 23.5426 42.7558 23.5269 42.7597 23.5191C42.7597 23.5269 42.7597 23.5308 42.7597 23.5387C42.7597 23.5387 42.7558 23.5387 42.7518 23.5426H42.7558Z" fill="#ED1C24"/>
<path d="M42.7402 56.9707C42.7402 56.9707 42.5477 58.1771 41.3461 59.8286C40.1563 61.4683 37.3525 65.1149 38.4088 67.7815C38.6523 68.6443 39.524 69.2807 40.5686 69.2807C41.6131 69.2807 42.5595 68.5858 42.7519 67.6722C42.9483 68.5897 43.8515 69.2807 44.9353 69.2807C45.9523 69.2807 46.7142 68.6365 47.0754 67.8401C48.1867 65.3882 45.4144 61.5855 44.1813 59.8247C42.9483 58.0677 42.7362 56.9668 42.7362 56.9668L42.7402 56.9707ZM42.7559 67.3364C42.7559 67.3364 42.7559 67.3247 42.7559 67.3169C42.7559 67.3169 42.7598 67.3169 42.7637 67.313C42.7637 67.3208 42.7637 67.3286 42.7598 67.3364H42.7559Z" fill="#ED1C24"/>
</svg>
