<svg width="14" height="15" viewBox="0 0 14 15" fill="none" xmlns="http://www.w3.org/2000/svg">
<path d="M7 10.125C3.13359 10.125 0 8.36133 0 6.1875C0 4.01367 3.13359 2.25 7 2.25C10.8664 2.25 14 4.01367 14 6.1875C14 8.36133 10.8664 10.125 7 10.125ZM2.36797 7.28672C2.69609 7.59844 3.12539 7.83633 3.58203 8.01953C4.50078 8.38594 5.70937 8.59375 7 8.59375C8.29062 8.59375 9.49922 8.38594 10.418 8.01953C10.8746 7.83633 11.3039 7.59844 11.632 7.28672C11.9629 6.97227 12.25 6.5293 12.25 5.96875C12.25 5.4082 11.9629 4.96523 11.632 4.65078C11.3039 4.33906 10.8746 4.10117 10.418 3.91797C9.49922 3.55156 8.29062 3.34375 7 3.34375C5.70937 3.34375 4.50078 3.55156 3.58203 3.91797C3.12539 4.10117 2.69609 4.33906 2.36797 4.65078C2.03711 4.96523 1.75 5.4082 1.75 5.96875C1.75 6.5293 2.03711 6.97227 2.36797 7.28672ZM2.625 5.96875C2.625 5.00352 4.58281 4.21875 7 4.21875C9.41719 4.21875 11.375 5.00352 11.375 5.96875C11.375 6.93398 9.41719 7.71875 7 7.71875C4.58281 7.71875 2.625 6.93398 2.625 5.96875ZM0 8.43242C0.360938 8.85898 0.812109 9.23359 1.3125 9.55078V11.2926C0.486719 10.7156 0 10.0129 0 9.25V8.43242ZM2.1875 11.793V10.0238C2.96406 10.3848 3.85273 10.6527 4.8125 10.8168V12.575C3.82266 12.4109 2.92852 12.1402 2.1875 11.7902V11.793ZM5.6875 12.6898V10.9371C6.1168 10.9809 6.5543 11.0027 7 11.0027C7.4457 11.0027 7.8832 10.9809 8.3125 10.9371V12.6898C7.88867 12.7309 7.44844 12.75 7 12.75C6.55156 12.75 6.11133 12.7281 5.6875 12.6898ZM9.1875 12.5777V10.8195C10.1473 10.6555 11.0359 10.3848 11.8125 10.0266V11.7957C11.0715 12.1457 10.1773 12.4164 9.1875 12.5805V12.5777ZM12.6875 11.2926V9.55078C13.1879 9.23633 13.6391 8.86172 14 8.43242V9.25C14 10.0129 13.5133 10.7156 12.6875 11.2898V11.2926Z" fill="white"/>
</svg>
