<svg width="61" height="91" viewBox="0 0 61 91" fill="none" xmlns="http://www.w3.org/2000/svg">
<g clip-path="url(#clip0_15_2193)">
<path d="M55.8544 91H4.32298C1.93871 91 0 89.0697 0 86.6958V4.30418C0 1.93211 1.94055 0 4.32298 0H55.8526C58.2369 0 60.1756 1.93211 60.1756 4.30418V86.694C60.1756 89.0679 58.235 90.9982 55.8526 90.9982L55.8544 91Z" fill="#0F172A"/>
<path d="M14.6185 45.4982L5.2969 36.217L5.29321 45.5L5.2969 54.7793L14.6185 45.4982Z" fill="#22D3EE"/>
<path d="M5.97807 10.5808C5.75714 10.6193 5.53436 10.6431 5.30422 10.6523L5.30054 20.498L26.6153 41.7201C26.7773 41.5734 26.9467 41.4378 27.1216 41.315L25.6064 39.0107L25.9396 38.7944L27.4549 41.0986C27.6243 40.9978 27.7973 40.9098 27.9741 40.8292L25.9341 35.8999L26.3023 35.7496L28.3442 40.6807C28.5283 40.6147 28.7142 40.5579 28.9039 40.5139L28.1232 36.7303L28.5135 36.6515L29.2942 40.4369C29.5096 40.4021 29.7287 40.3819 29.9459 40.3727V30.4739L8.64035 9.26276C8.48017 9.40941 8.31079 9.54689 8.13404 9.67521L10.2698 12.9015L9.93835 13.1197L7.80264 9.89518C7.63693 9.99601 7.46571 10.0877 7.28896 10.1702L9.34735 15.0939L8.98096 15.2461L6.92257 10.3241C6.7403 10.392 6.55435 10.4506 6.36471 10.5001L6.92994 13.1966L6.54146 13.2773L5.97623 10.5808H5.97807ZM25.7021 34.3014L26.0059 35.0347L25.6377 35.185L25.3339 34.4517L25.7021 34.3014ZM9.64929 15.8088L9.95492 16.5421L9.58853 16.6942L9.28291 15.961L9.64929 15.8088Z" fill="#22D3EE"/>
<path d="M54.9412 45.5L54.9375 36.2225L45.6213 45.4981L54.9375 54.7756L54.9412 45.5Z" fill="#22D3EE"/>
<path d="M20.1051 85.3393H40.1348L30.119 75.3689L20.1051 85.3393Z" fill="#22D3EE"/>
<path d="M54.9319 70.7018L33.5711 49.4339C33.433 49.553 33.2931 49.6667 33.1477 49.7693L34.6629 52.0736L34.3297 52.2899L32.8144 49.9856C32.645 50.0865 32.472 50.1744 32.2952 50.2551L34.3352 55.1844L33.967 55.3347L31.9251 50.4036C31.741 50.4696 31.5551 50.5264 31.3654 50.5704L32.1461 54.354L31.7558 54.4328L30.9751 50.6474C30.7597 50.6822 30.5406 50.7042 30.3234 50.7116V60.5536L44.13 74.3002L44.1245 74.3057L51.5903 81.739C51.7505 81.5905 51.9198 81.4531 52.0966 81.3247L49.9609 78.0984L50.2923 77.8803L52.428 81.1048C52.5937 81.0039 52.7649 80.9123 52.9417 80.8298L50.8833 75.906L51.2497 75.7539L53.3081 80.6758C53.4903 80.608 53.6763 80.5493 53.8659 80.4998L53.3007 77.8033L53.691 77.7227L54.2562 80.4192C54.4772 80.3807 54.7 80.3569 54.9301 80.3477C54.9669 80.3477 55.0056 80.3459 55.0424 80.344C55.0056 80.344 54.9669 80.344 54.9301 80.3477L54.9338 70.7036L54.9319 70.7018ZM34.569 56.7847L34.2652 56.0514L34.6335 55.9011L34.9372 56.6344L34.569 56.7847ZM50.585 75.1911L50.2794 74.4579L50.6458 74.3057L50.9514 75.039L50.585 75.1911Z" fill="#22D3EE"/>
<path d="M54.2563 10.5808L53.691 13.2773L53.3007 13.1966L53.866 10.5001C53.6763 10.4525 53.4904 10.3938 53.3081 10.3241L51.2497 15.2461L50.8833 15.0939L52.9417 10.1702C52.765 10.0877 52.5937 9.99601 52.428 9.89519L50.2923 13.1197L49.9609 12.9015L52.0966 9.67521C51.9199 9.54689 51.7505 9.40941 51.5903 9.26093L51.594 9.26459L30.34 30.4262V40.3746C30.5425 40.3819 30.7469 40.4039 30.9475 40.4351L31.6324 36.9668L32.0228 37.0438L31.3379 40.512C31.5367 40.5597 31.7319 40.6184 31.9233 40.688L33.9596 35.7313L34.3279 35.8816L32.2916 40.8383C32.483 40.9245 32.669 41.0235 32.8513 41.1353L34.9999 37.9182L35.3313 38.1381L33.1827 41.3553C33.3447 41.4726 33.5012 41.6009 33.6522 41.7384L54.9301 20.553L54.9264 10.6578C55.0001 10.6614 55.0719 10.6633 55.1455 10.6633C55.0719 10.6633 54.9983 10.6614 54.9264 10.6578C54.6981 10.6486 54.4735 10.6229 54.2526 10.5863L54.2563 10.5808ZM34.6096 35.1538L34.2413 35.0035L34.6961 33.8926L35.0643 34.0429L34.6096 35.1538ZM50.6477 16.6924L50.2813 16.5403L50.5869 15.807L50.9533 15.9592L50.6477 16.6924Z" fill="#22D3EE"/>
<path d="M40.1809 5.65884H20.0536L30.1172 15.6805L40.1809 5.65884Z" fill="#22D3EE"/>
<path d="M28.6369 54.1193L28.2466 54.0423L28.9315 50.5741C28.7326 50.5264 28.5375 50.4677 28.346 50.3981L26.3097 55.3549L25.9415 55.2045L27.9778 50.2478C27.7863 50.1616 27.6003 50.0626 27.4181 49.9508L25.2694 53.1679L24.938 52.948L27.0866 49.7308C26.9173 49.608 26.5288 49.2726 26.5288 49.2726L5.30237 70.4066L5.30605 80.3459C5.53435 80.355 5.75897 80.3807 5.9799 80.4173L6.54513 77.7208L6.93361 77.8015L6.36838 80.498C6.55802 80.5457 6.74397 80.6043 6.92625 80.674L8.98463 75.752L9.35102 75.9042L7.29263 80.828C7.46938 80.9105 7.64061 81.0021 7.80631 81.1029L9.94202 77.8785L10.2734 78.0966L8.13771 81.3229C8.31446 81.4512 8.48385 81.5887 8.64402 81.7372L15.5022 74.9088L15.4986 74.9051L29.9312 60.5353V50.7079C29.7287 50.7006 29.5243 50.6786 29.3236 50.6474L28.6387 54.1157L28.6369 54.1193ZM9.64928 75.1911L9.2829 75.039L9.58853 74.3057L9.95491 74.4579L9.64928 75.1911ZM25.5751 57.1935L25.2069 57.0432L25.6616 55.9323L26.0298 56.0826L25.5751 57.1935Z" fill="#22D3EE"/>
<path d="M16.5848 80.4974L15.4752 80.9629L15.6296 81.3278L16.7393 80.8623L16.5848 80.4974Z" fill="white"/>
<path d="M9.56368 74.3034L9.25745 75.0363L9.62462 75.1884L9.93086 74.4555L9.56368 74.3034Z" fill="white"/>
<path d="M44.5603 9.66654L43.4507 10.1321L43.6051 10.497L44.7147 10.0314L44.5603 9.66654Z" fill="white"/>
<path d="M50.5589 15.8065L50.2527 16.5393L50.6199 16.6914L50.9261 15.9586L50.5589 15.8065Z" fill="white"/>
<path d="M34.6703 33.8956L34.2159 35.0058L34.5842 35.1552L35.0386 34.045L34.6703 33.8956Z" fill="white"/>
<path d="M25.6766 34.3026L25.309 34.4535L25.6129 35.1873L25.9805 35.0364L25.6766 34.3026Z" fill="white"/>
<path d="M25.6361 55.9374L25.1815 57.0475L25.5498 57.197L26.0043 56.0868L25.6361 55.9374Z" fill="white"/>
<path d="M34.6068 55.8991L34.2391 56.05L34.5431 56.7838L34.9107 56.6329L34.6068 55.8991Z" fill="white"/>
<path d="M40.6945 49.6273L40.5446 49.9941L41.6598 50.4461L41.8097 50.0794L40.6945 49.6273Z" fill="white"/>
<path d="M41.2493 40.7611L40.5123 41.0637L40.6639 41.4297L41.4009 41.1271L41.2493 40.7611Z" fill="white"/>
<path d="M18.561 40.6393L18.411 41.006L19.5262 41.4582L19.6762 41.0915L18.561 40.6393Z" fill="white"/>
<path d="M19.5593 49.6542L18.8223 49.9568L18.9739 50.3228L19.7109 50.0202L19.5593 49.6542Z" fill="white"/>
<path d="M55.304 75.6531H55.3224L55.3132 45.5L55.3224 15.3469H55.304V10.6596H55.3242L55.3021 5.47188V5.26474H49.9058V5.46272C49.9058 5.52871 49.9076 5.5947 49.9113 5.6607C49.9187 5.87334 49.9389 6.08231 49.9721 6.28762L46.1683 7.0502L46.2474 7.43883L50.0512 6.67625C50.1009 6.88339 50.1617 7.08503 50.2353 7.27934L45.2753 9.35078L45.43 9.71557L50.3918 7.64414C50.4784 7.82928 50.5741 8.00893 50.6809 8.18124L47.7332 10.1519L47.9542 10.48L50.9018 8.50937C51.0215 8.67435 51.1504 8.83017 51.2885 8.98049L51.2811 8.97315L30.3198 29.8433V16.0398L40.7443 5.6607H47.9928H49.9131C49.9113 5.5947 49.9076 5.52871 49.9076 5.46272V5.26474H4.88456V5.46272V5.47188L4.86247 10.6596H4.88272V15.3469H4.86247V20.6538L4.8551 20.663L4.86431 20.6722L4.87167 45.5018L4.86431 70.238L4.8551 70.2472L4.86431 70.2564V75.6549H4.88088V80.3422H4.86063L4.88272 85.53V85.7371H55.3003V85.53L55.3224 80.3422H55.3021V75.6549L55.304 75.6531ZM53.8421 80.4999C53.6525 80.5475 53.4665 80.6062 53.2843 80.6758L51.2259 75.7539L50.8595 75.9061L52.9179 80.8298C52.7411 80.9123 52.5699 81.004 52.4042 81.1048L50.2685 77.8803L49.9371 78.0985L52.0728 81.3248C51.896 81.4531 51.7267 81.5906 51.5665 81.7391L44.1007 74.3057L44.1062 74.3002L30.2996 60.5536V50.7116C30.5187 50.7043 30.7359 50.6823 30.9513 50.6474L31.732 54.4328L32.1223 54.354L31.3416 50.5704C31.5313 50.5246 31.7172 50.4696 31.9013 50.4036L33.9432 55.3347L34.3114 55.1844L32.2714 50.2551C32.4482 50.1763 32.6212 50.0865 32.7906 49.9857L34.3059 52.2899L34.6391 52.0736L33.1239 49.7694C33.2693 49.6667 33.4111 49.553 33.5473 49.4339L54.9081 70.7018L54.9044 80.3459C54.9413 80.3459 54.9799 80.344 55.0168 80.3422C54.9799 80.3422 54.9413 80.3422 54.9044 80.3459C54.6761 80.355 54.4515 80.3807 54.2306 80.4174L53.6654 77.7208L53.275 77.8015L53.8403 80.498L53.8421 80.4999ZM40.1091 85.3393H20.0794L30.0933 75.3689L40.1073 85.3393H40.1091ZM15.4711 74.9088L15.4748 74.9125L8.61654 81.7409C8.45636 81.5924 8.28697 81.4549 8.11022 81.3266L10.2459 78.1003L9.91453 77.8822L7.77882 81.1066C7.61312 81.0058 7.44189 80.9142 7.26514 80.8317L9.32353 75.9079L8.95715 75.7557L6.89876 80.6777C6.71649 80.6098 6.53053 80.5512 6.3409 80.5017L6.90612 77.8052L6.51765 77.7245L5.95242 80.421C5.73148 80.3825 5.5087 80.3587 5.2804 80.3495C5.24358 80.3495 5.20676 80.3495 5.16994 80.3459C5.20676 80.3459 5.24358 80.3459 5.2804 80.3495L5.27672 70.4103L26.7793 49.0013L26.5676 48.7905H26.5694C26.4332 48.6401 26.3098 48.4862 26.1957 48.3267C26.1183 48.2185 26.0465 48.1067 25.9784 47.9949C25.8919 47.8482 25.8127 47.6979 25.7428 47.5439C25.6875 47.423 25.6378 47.3001 25.5936 47.1773C25.5365 47.0178 25.4868 46.8565 25.4482 46.6915C25.4169 46.5632 25.3911 46.4331 25.3708 46.3029C25.3414 46.1141 25.3211 45.9235 25.3138 45.7328C25.3082 45.6008 25.3082 45.4688 25.3138 45.3369C25.3211 45.1609 25.3395 44.9831 25.3672 44.8089C25.3874 44.6788 25.4132 44.5486 25.4445 44.4203C25.4868 44.248 25.5384 44.0775 25.5991 43.9107C25.6433 43.786 25.6949 43.665 25.7501 43.5441C25.8274 43.3772 25.914 43.2141 26.0097 43.0564C26.0778 42.9446 26.1515 42.8346 26.2306 42.7265C26.3393 42.5798 26.4553 42.435 26.5823 42.2994L26.4424 42.1601L26.3025 42.0207C26.157 42.1765 26.0226 42.3397 25.9011 42.5083L22.6699 40.3691L22.449 40.6991L25.6802 42.8383C25.5697 43.0198 25.4684 43.2049 25.3819 43.3956L20.4035 41.3681L20.2525 41.7348L25.2328 43.7622C25.1628 43.9547 25.1039 44.149 25.056 44.3451L21.5726 43.6632L21.4953 44.0518L24.9787 44.7338C24.9474 44.9336 24.9271 45.137 24.9179 45.3387H15.0145L5.29145 35.658L5.26936 35.68L5.27304 21.0846L26.5805 42.2994L26.8732 42.0079L26.8677 42.0024C27.0094 41.8741 27.1567 41.7568 27.3096 41.6486C27.4182 41.5716 27.5305 41.5001 27.6428 41.4323C27.7901 41.3461 27.9411 41.2673 28.0957 41.1977C28.2172 41.1427 28.3406 41.0932 28.4639 41.0492C28.6241 40.9923 28.7861 40.9429 28.9518 40.9044C29.0807 40.8732 29.2114 40.8475 29.3422 40.8274C29.5318 40.798 29.7233 40.7779 29.9148 40.7724C30.0473 40.7669 30.1799 40.7669 30.3124 40.7724C30.4892 40.7797 30.6678 40.798 30.8427 40.8255C30.9734 40.8457 31.1041 40.8714 31.233 40.9025C31.4061 40.9447 31.5773 40.996 31.7448 41.0565C31.87 41.1005 31.9916 41.1518 32.1131 41.2068C32.2806 41.2838 32.4445 41.37 32.6028 41.4653C32.7151 41.5331 32.8256 41.6083 32.9342 41.6853C33.0815 41.7934 33.227 41.9089 33.3632 42.0354L33.3706 42.0281L33.6449 42.3012L54.9026 21.1359L54.9063 35.6433L45.1501 45.357H35.2964C35.289 45.1389 35.2669 44.9226 35.2319 44.7081L39.0339 43.9308L38.9547 43.5422L35.1546 44.3195C35.1086 44.1307 35.0534 43.9455 34.9871 43.7622L39.9397 41.7293L39.7887 41.3626L34.8379 43.3937C34.7588 43.2178 34.6686 43.0454 34.5673 42.8768L36.8816 41.3681L36.6643 41.0363L34.35 42.545C34.2212 42.3635 34.0794 42.1875 33.9247 42.0207L33.7848 42.1601L33.6449 42.2994C33.7811 42.4479 33.9045 42.6018 34.0186 42.7613C34.096 42.8695 34.1678 42.9813 34.2359 43.0931C34.3224 43.2398 34.4016 43.3901 34.4716 43.5441C34.5268 43.665 34.5765 43.7879 34.6207 43.9107C34.6778 44.0702 34.7275 44.2315 34.7661 44.3965C34.7974 44.5248 34.8232 44.6549 34.8435 44.7851C34.8729 44.9739 34.8932 45.1645 34.9005 45.3552C34.9061 45.4872 34.9061 45.6192 34.9005 45.7511C34.8932 45.9271 34.8748 46.1049 34.8472 46.2791C34.8269 46.4092 34.8011 46.5394 34.7698 46.6677C34.7275 46.84 34.6759 47.0105 34.6152 47.1773C34.571 47.302 34.5194 47.423 34.4642 47.5439C34.3869 47.7108 34.3003 47.8739 34.2046 48.0315C34.1365 48.1434 34.061 48.2534 33.9837 48.3615C33.875 48.5082 33.759 48.653 33.632 48.7886L33.7719 48.9279L33.9119 49.0673C34.0573 48.9115 34.1917 48.7483 34.3132 48.5797L37.5444 50.7189L37.7653 50.389L34.5342 48.2497C34.6446 48.0682 34.7459 47.8831 34.8324 47.6924L39.8108 49.7199L39.9618 49.3532L34.9816 47.3258C35.0515 47.1333 35.1104 46.939 35.1583 46.7429L38.6417 47.4248L38.7191 47.0362L35.2356 46.3542C35.2669 46.1544 35.2872 45.951 35.2964 45.7493H45.2569L54.9081 55.3586L54.9044 70.1189L33.5639 48.8711L33.3669 49.0673C33.2177 49.2011 33.0631 49.3239 32.9029 49.4376C32.7943 49.5145 32.682 49.586 32.5697 49.6539C32.4224 49.74 32.2714 49.8188 32.1168 49.8885C31.9952 49.9435 31.8719 49.993 31.7485 50.037C31.5883 50.0938 31.4263 50.1433 31.2606 50.1818C31.1317 50.213 31.001 50.2386 30.8703 50.2588C30.6807 50.2881 30.4892 50.3083 30.2977 50.3156C30.1652 50.3211 30.0326 50.3211 29.9 50.3156C29.7233 50.3083 29.5447 50.29 29.3698 50.2625C29.2391 50.2423 29.1083 50.2166 28.9795 50.1855C28.8064 50.1433 28.6352 50.092 28.4676 50.0315C28.3424 49.9875 28.2209 49.9362 28.0994 49.8812C27.9319 49.8042 27.768 49.718 27.6097 49.6227C27.4974 49.5549 27.3869 49.4816 27.2783 49.4027C27.131 49.2946 26.9855 49.1791 26.8493 49.0526L26.7093 49.1919L26.5694 49.3312C26.7259 49.4761 26.8898 49.6099 27.0592 49.7309L24.9106 52.948L25.242 53.168L27.3906 49.9508C27.5728 50.0608 27.7588 50.1616 27.9503 50.2478L25.914 55.2046L26.2822 55.3549L28.3185 50.3963C28.5118 50.4659 28.707 50.5246 28.904 50.5723L28.2191 54.0405L28.6094 54.1175L29.2943 50.6493C29.495 50.6804 29.6993 50.7006 29.9019 50.7097V60.5371L15.4692 74.907L15.4711 74.9088ZM24.9824 46.3817L21.1804 47.159L21.2596 47.5476L25.0597 46.7704C25.1057 46.9592 25.161 47.1443 25.2272 47.3276L20.2746 49.3606L20.4256 49.7272L25.3764 47.6961C25.4555 47.8721 25.5457 48.0444 25.647 48.213L23.3327 49.7217L23.55 50.0535L25.8643 48.5448C25.9711 48.6951 26.0889 48.84 26.2122 48.9811L5.27488 69.8274L5.2712 55.3659L14.9427 45.7365H24.9179C24.9253 45.9546 24.9474 46.1709 24.9824 46.3854V46.3817ZM5.2712 54.7793L5.26752 45.5L5.2712 36.2171L14.5929 45.4982L5.2712 54.7793ZM54.9118 54.7756L45.5957 45.5L54.9118 36.2244L54.9155 45.5018L54.9118 54.7775V54.7756ZM51.2295 8.2894C51.1522 8.18308 51.0767 8.07309 51.0086 7.96127C50.9166 7.81095 50.8319 7.6533 50.7545 7.49199C50.6993 7.37283 50.6478 7.25185 50.6017 7.1272C50.5373 6.95488 50.4821 6.7789 50.4379 6.59926C50.4066 6.47094 50.3808 6.34262 50.3605 6.21063C50.3329 6.03099 50.3127 5.84767 50.3053 5.6607H54.9026V5.70469V5.75968V5.83301V5.93933V6.11898L54.9044 6.44344L54.9081 7.34167L54.921 10.26C54.921 10.26 54.9081 10.26 54.9008 10.26C54.7001 10.2508 54.5031 10.2288 54.3098 10.1958C54.179 10.1738 54.0483 10.1464 53.9213 10.1134C53.7556 10.0712 53.5936 10.0199 53.4352 9.96121C53.31 9.91538 53.1885 9.86405 53.0688 9.80722C52.9142 9.7339 52.7651 9.65507 52.6214 9.56708C52.5073 9.49743 52.3987 9.4241 52.29 9.34711C52.1354 9.23529 51.9863 9.1143 51.8463 8.98415C51.7487 8.89433 51.6548 8.80084 51.5665 8.70368C51.4468 8.57353 51.3345 8.43605 51.2295 8.29123V8.2894ZM51.572 9.26462L51.5683 9.26095C51.7285 9.40944 51.8979 9.54692 52.0746 9.67524L49.9389 12.9015L50.2703 13.1197L52.406 9.89521C52.5717 9.99604 52.743 10.0877 52.9197 10.1702L50.8613 15.094L51.2277 15.2461L53.2861 10.3242C53.4684 10.392 53.6543 10.4507 53.844 10.5001L53.2787 13.1967L53.669 13.2773L54.2343 10.5808C54.4552 10.6193 54.678 10.6431 54.9081 10.6523C54.9818 10.656 55.0536 10.6578 55.1272 10.6578C55.0536 10.6578 54.9799 10.656 54.9081 10.6523L54.9118 20.5475L33.6338 41.7329C33.4829 41.5954 33.3264 41.4671 33.1644 41.3498L35.313 38.1327L34.9816 37.9127L32.833 41.1298C32.6507 41.0198 32.4647 40.919 32.2732 40.8329L34.3095 35.8761L33.9413 35.7258L31.905 40.6826C31.7117 40.6129 31.5165 40.5542 31.3195 40.5066L32.0044 37.0383L31.6141 36.9613L30.9292 40.4296C30.7285 40.3984 30.5242 40.3783 30.3216 40.3691V30.4207L51.5757 9.25912L51.572 9.26462ZM30.0915 15.6806L20.0279 5.6607H40.1551L30.0915 15.6806ZM10.1355 6.67625L13.9392 7.43883L14.0184 7.0502L10.2146 6.28762C10.2478 6.08231 10.268 5.87334 10.2754 5.6607H19.4424L29.9184 16.093V29.8928L8.90744 8.97132L8.89823 8.98049C9.03631 8.83017 9.16519 8.67435 9.28487 8.50937L12.2325 10.48L12.4535 10.1519L9.5058 8.18124C9.61259 8.00893 9.70833 7.82928 9.79486 7.64414L14.7567 9.71557L14.9114 9.35078L9.94952 7.27934C10.0232 7.0832 10.0839 6.88156 10.1336 6.67625H10.1355ZM5.27304 7.33984L5.27672 6.44161V6.11714L5.27856 5.9375V5.83118V5.75785V5.70286V5.65886H9.87587C9.86851 5.84584 9.84825 6.02732 9.82064 6.2088C9.80038 6.34078 9.77461 6.4691 9.74331 6.59742C9.69912 6.77707 9.64389 6.95488 9.57945 7.12536C9.53342 7.25001 9.48187 7.371 9.42663 7.49015C9.35115 7.65147 9.26646 7.80912 9.17256 7.95943C9.10259 8.07309 9.02895 8.18124 8.95162 8.28756C8.84668 8.43055 8.73437 8.56803 8.6147 8.70002C8.52448 8.79717 8.43058 8.89066 8.33484 8.98049C8.19492 9.11064 8.04579 9.23162 7.89113 9.34344C7.78434 9.42043 7.67388 9.49376 7.55973 9.56342C7.41612 9.65141 7.26515 9.73023 7.11233 9.80356C6.99266 9.86038 6.87114 9.91171 6.74595 9.95754C6.58761 10.0162 6.42559 10.0675 6.25989 10.1097C6.13285 10.1427 6.00213 10.1702 5.87141 10.1922C5.67809 10.2252 5.48109 10.2472 5.2804 10.2563C5.27304 10.2563 5.26752 10.2563 5.26015 10.2563L5.27304 7.338V7.33984ZM5.2804 10.6523C5.5087 10.6431 5.73332 10.6175 5.95242 10.5808L6.51765 13.2773L6.90612 13.1967L6.3409 10.5001C6.53053 10.4525 6.71649 10.3938 6.89876 10.3242L8.95715 15.2461L9.32353 15.094L7.26514 10.1702C7.44189 10.0877 7.61312 9.99604 7.77882 9.89521L9.91453 13.1197L10.2459 12.9015L8.11022 9.67524C8.28697 9.54692 8.45636 9.40944 8.61654 9.26095L29.9203 30.4739V40.3728C29.7012 40.3801 29.4839 40.4021 29.2685 40.4369L28.4879 36.6515L28.0976 36.7303L28.8782 40.5139C28.6886 40.5597 28.5026 40.6147 28.3185 40.6807L26.2767 35.7496L25.9085 35.8999L27.9484 40.8292C27.7717 40.908 27.5986 40.9978 27.4292 41.0987L25.914 38.7944L25.5807 39.0107L27.096 41.315C26.9211 41.4378 26.7517 41.5734 26.5897 41.7201L5.27672 20.498L5.2804 10.6523C5.20676 10.656 5.13495 10.6578 5.06131 10.6578C5.13495 10.6578 5.2086 10.656 5.2804 10.6523ZM7.07919 85.3393H5.2804V85.2953V85.2403V85.167V85.0607V84.881L5.27856 84.5566L5.27488 83.6583L5.26199 80.74C5.26199 80.74 5.27488 80.74 5.28225 80.74C5.48293 80.7492 5.67993 80.7712 5.87325 80.8042C6.00397 80.8262 6.13469 80.8537 6.26173 80.8867C6.42743 80.9288 6.58945 80.9801 6.74779 81.0388C6.87298 81.0846 6.9945 81.136 7.11417 81.1928C7.26883 81.2643 7.41796 81.3449 7.56157 81.4329C7.67572 81.5026 7.78434 81.5759 7.89297 81.6529C8.04763 81.7647 8.19676 81.8857 8.33668 82.0159C8.43426 82.1057 8.52816 82.1992 8.61654 82.2963C8.73621 82.4265 8.84852 82.564 8.95346 82.7088C9.03079 82.8151 9.10628 82.9251 9.1744 83.0369C9.26646 83.1872 9.35115 83.3449 9.42848 83.5062C9.48371 83.6253 9.53526 83.7463 9.58129 83.871C9.64573 84.0433 9.70096 84.2193 9.74515 84.3989C9.77645 84.5272 9.80223 84.6556 9.82248 84.7875C9.85009 84.9672 9.87035 85.1505 9.87771 85.3375H7.07919V85.3393ZM10.2754 85.3393C10.268 85.1267 10.2478 84.9177 10.2146 84.7124L14.0184 83.9498L13.9392 83.5612L10.1355 84.3238C10.0858 84.1185 10.025 83.915 9.95136 83.7207L14.9132 81.6492L14.7586 81.2844L9.7967 83.3559C9.71017 83.1707 9.61443 82.9911 9.50764 82.8188L12.4553 80.8482L12.2344 80.52L9.28671 82.4906C9.16703 82.3257 9.03816 82.1698 8.90007 82.0195L15.7583 75.1911L15.7675 75.2003L29.9056 61.1237V74.9767L19.4958 85.3411H10.2772L10.2754 85.3393ZM50.0494 84.3238L46.2456 83.5612L46.1664 83.9498L49.9702 84.7124C49.9371 84.9177 49.9168 85.1267 49.9095 85.3393C49.9076 85.4053 49.9039 85.4713 49.9039 85.5373C49.9039 85.4713 49.9058 85.4053 49.9095 85.3393H40.6946L30.3014 74.9913V61.1384L43.8153 74.5935L43.8227 74.5862L51.2885 82.0195C51.1504 82.168 51.0215 82.3257 50.9018 82.4906L47.9542 80.52L47.7332 80.8482L50.6809 82.8188C50.5741 82.9911 50.4784 83.1707 50.3918 83.3559L45.43 81.2844L45.2753 81.6492L50.2372 83.7207C50.1635 83.9168 50.1028 84.1185 50.0531 84.3238H50.0494ZM54.9118 83.6602L54.9081 84.5584V84.8829L54.9063 85.0625V85.1688V85.2422V85.2971V85.3411H50.309C50.3163 85.1542 50.3366 84.9727 50.3642 84.7912C50.3845 84.6592 50.4102 84.5309 50.4415 84.4026C50.4857 84.2229 50.541 84.0451 50.6054 83.8746C50.6514 83.75 50.703 83.629 50.7582 83.5099C50.8337 83.3485 50.9184 83.1909 51.0123 83.0406C51.0823 82.9269 51.1559 82.8188 51.2332 82.7124C51.3382 82.5695 51.4505 82.432 51.5702 82.3C51.6604 82.2028 51.7543 82.1093 51.85 82.0195C51.9899 81.8894 52.1391 81.7684 52.2937 81.6566C52.4005 81.5796 52.511 81.5062 52.6251 81.4366C52.7687 81.3486 52.9197 81.2698 53.0725 81.1964C53.1922 81.1396 53.3137 81.0883 53.4389 81.0425C53.5972 80.9838 53.7593 80.9325 53.925 80.8903C54.052 80.8573 54.1827 80.8298 54.3134 80.8078C54.5068 80.7748 54.7038 80.7528 54.9044 80.7437C54.9118 80.7437 54.9173 80.7437 54.9247 80.7437L54.9118 83.662V83.6602Z" fill="white"/>
<path d="M43.6057 80.5095L43.4513 80.8744L44.5609 81.3399L44.7153 80.9751L43.6057 80.5095Z" fill="white"/>
<path d="M50.6201 74.3065L50.2529 74.4586L50.5592 75.1914L50.9263 75.0393L50.6201 74.3065Z" fill="white"/>
<path d="M15.6235 9.66887L15.4691 10.0338L16.5787 10.4993L16.7332 10.1344L15.6235 9.66887Z" fill="white"/>
<path d="M9.62252 15.8092L9.25537 15.9613L9.56174 16.6941L9.92888 16.542L9.62252 15.8092Z" fill="white"/>
</g>
<defs>
<clipPath id="clip0_15_2193">
<rect width="60.1774" height="91" fill="white"/>
</clipPath>
</defs>
</svg>
