<svg width="14" height="15" viewBox="0 0 14 15" fill="none" xmlns="http://www.w3.org/2000/svg">
<path d="M8.75 3.125H5.25L3.95391 1.18086C3.75977 0.888281 3.96758 0.5 4.31758 0.5H9.68242C10.0324 0.5 10.2402 0.888281 10.0461 1.18086L8.75 3.125ZM5.25 4H8.75C8.85391 4.06836 8.97148 4.14492 9.10547 4.22969C10.6559 5.22227 14 7.36055 14 11.875C14 13.3242 12.8242 14.5 11.375 14.5H2.625C1.17578 14.5 0 13.3242 0 11.875C0 7.36055 3.34414 5.22227 4.89453 4.22969C5.02578 4.14492 5.14609 4.06836 5.25 4ZM7.54688 6.40625C7.54688 6.10547 7.30078 5.85938 7 5.85938C6.69922 5.85938 6.45312 6.10547 6.45312 6.40625V6.78906C6.24531 6.83555 6.0375 6.90938 5.84609 7.02148C5.46602 7.24844 5.13789 7.64492 5.14062 8.22187C5.14336 8.77695 5.46875 9.12695 5.81602 9.33477C6.1168 9.51523 6.49141 9.63008 6.78945 9.71758L6.83594 9.73125C7.18047 9.83516 7.43203 9.91719 7.60156 10.0238C7.74102 10.1113 7.76016 10.1715 7.76289 10.248C7.76562 10.3848 7.71367 10.4668 7.60156 10.5352C7.46484 10.6199 7.24883 10.6719 7.01641 10.6637C6.71289 10.6527 6.42852 10.557 6.05664 10.4313C5.99375 10.4094 5.92812 10.3875 5.85977 10.3656C5.57266 10.2699 5.26367 10.4258 5.16797 10.7102C5.07227 10.9945 5.22813 11.3063 5.5125 11.402C5.56445 11.4184 5.62187 11.4375 5.6793 11.4594C5.90625 11.5387 6.16875 11.6289 6.45039 11.6891V12.0938C6.45039 12.3945 6.69648 12.6406 6.99727 12.6406C7.29805 12.6406 7.54414 12.3945 7.54414 12.0938V11.7164C7.76289 11.6699 7.98164 11.5934 8.17852 11.4703C8.56953 11.227 8.86484 10.8113 8.85664 10.2398C8.84844 9.68477 8.53672 9.32656 8.18398 9.10234C7.86953 8.90547 7.47578 8.78516 7.16953 8.69219L7.15039 8.68672C6.80039 8.58008 6.55156 8.50352 6.37656 8.39961C6.23438 8.31484 6.23164 8.26563 6.23164 8.21641C6.23164 8.11523 6.26992 8.03867 6.40117 7.96211C6.54883 7.87461 6.77305 7.82266 6.98906 7.82539C7.25156 7.82812 7.54141 7.88555 7.84219 7.96758C8.13477 8.04414 8.43281 7.87187 8.51211 7.5793C8.59141 7.28672 8.41641 6.98867 8.12383 6.90937C7.94609 6.86289 7.74922 6.81641 7.54688 6.78086V6.40625Z" fill="white"/>
</svg>
