<svg width="91" height="35" viewBox="0 0 91 35" fill="none" xmlns="http://www.w3.org/2000/svg">
<g clip-path="url(#clip0_2_306)">
<path d="M9.34086 3.4273C9.00466 3.4273 8.73369 3.53563 8.52796 3.74982C8.31971 3.96647 8.21685 4.22498 8.21685 4.53027V34.1184H5.23369V6.01484C5.23369 5.40673 5.0129 4.88726 4.57383 4.45641C4.13477 4.02556 3.60538 3.80891 2.98566 3.80891V34.1209H0V0.879146H2.36344C3.96416 0.879146 5.27133 1.57589 6.27742 2.97183C6.53584 2.2357 6.95484 1.6399 7.53692 1.18443C8.119 0.728964 8.78387 0.5 9.53405 0.5C10.5677 0.5 11.4785 0.898841 12.2663 1.69899C13.0541 2.49667 13.448 3.44207 13.448 4.53273V31.1936H23.0197V34.1209H10.4624V4.53027C10.4624 4.25206 10.352 3.99848 10.1337 3.76951C9.9129 3.54055 9.64946 3.4273 9.33835 3.4273H9.34086Z" fill="#22D3EE"/>
<path d="M15.3473 4.49334C15.3473 3.40268 15.7487 2.46466 16.5491 1.67929C17.3494 0.893917 18.3179 0.5 19.457 0.5C20.596 0.5 21.562 0.893917 22.3649 1.67929C23.1652 2.46466 23.5666 3.40268 23.5666 4.49334V25.4104C23.5666 26.501 23.1602 27.444 22.3448 28.2441C21.5294 29.0442 20.5684 29.4431 19.457 29.4431C18.3455 29.4431 17.3846 29.0442 16.5692 28.2441C15.7537 27.444 15.3473 26.501 15.3473 25.4104V4.49334ZM18.333 25.4104C18.333 25.7156 18.4433 25.9741 18.6616 26.1908C18.8799 26.4075 19.1459 26.5133 19.457 26.5133C19.7681 26.5133 20.0315 26.405 20.2523 26.1908C20.4731 25.9766 20.581 25.7156 20.581 25.4104V4.49334C20.581 4.18805 20.4706 3.92954 20.2523 3.71289C20.0315 3.4987 19.7681 3.39037 19.457 3.39037C19.1459 3.39037 18.8824 3.4987 18.6616 3.71289C18.4408 3.92954 18.333 4.18805 18.333 4.49334V25.4104Z" fill="#22D3EE"/>
<path d="M25.3857 34.1209V9.55025C25.3857 8.43497 25.7871 7.48957 26.5875 6.71651C27.3878 5.94345 28.3563 5.55692 29.4954 5.55692C30.6344 5.55692 31.6004 5.95083 32.4032 6.73621C33.2036 7.52158 33.605 8.45959 33.605 9.55025V34.1184H30.6219V9.55025C30.6219 9.24497 30.5115 8.98646 30.2932 8.7698C30.0724 8.55561 29.809 8.44728 29.4979 8.44728C29.1868 8.44728 28.9233 8.55561 28.7025 8.7698C28.4817 8.98646 28.3739 9.24497 28.3739 9.55025V34.1184H25.3907L25.3857 34.1209Z" fill="#22D3EE"/>
<path d="M42.4567 33.3207C41.6438 34.1061 40.6803 34.5 39.5688 34.5C38.4574 34.5 37.4964 34.1012 36.681 33.301C35.8656 32.5009 35.4592 31.5579 35.4592 30.4673V0.842224H38.4423V7.83918H40.6903V10.7296H38.4423V30.4673C38.4423 30.7726 38.5527 31.0311 38.771 31.2477C38.9893 31.4644 39.2552 31.5702 39.5663 31.5702C39.8774 31.5702 40.1409 31.4619 40.3617 31.2477C40.5825 31.0335 40.6903 30.7726 40.6903 30.4673V25.7895H43.6735V30.4673C43.6735 31.5826 43.2671 32.5329 42.4516 33.3207H42.4567Z" fill="#22D3EE"/>
<path d="M45.229 0.87915H48.2122V15.4073C48.2122 15.7126 48.3226 15.9785 48.5408 16.205C48.7591 16.434 49.0251 16.5472 49.3362 16.5472C49.6473 16.5472 49.9107 16.434 50.1315 16.205C50.3498 15.976 50.4602 15.7101 50.4602 15.4073V0.87915H53.4434V25.4104C53.4434 26.501 53.0369 27.444 52.2215 28.2441C51.4061 29.0442 50.4451 29.4431 49.3337 29.4431C48.2222 29.4431 47.2613 29.0442 46.4459 28.2441C45.6304 27.444 45.224 26.501 45.224 25.4104V20.9616H48.2072V25.4104C48.2072 25.7156 48.3175 25.9742 48.5358 26.1908C48.7541 26.4075 49.0201 26.5133 49.3312 26.5133C49.6423 26.5133 49.9057 26.405 50.1265 26.1908C50.3473 25.9766 50.4552 25.7156 50.4552 25.4104V18.9058C50.0161 19.2603 49.4993 19.4376 48.9046 19.4376C47.9487 19.4376 47.0957 19.0387 46.348 18.2386C45.5978 17.4409 45.224 16.4955 45.224 15.4049V0.87915H45.229Z" fill="#22D3EE"/>
<path d="M65.8451 34.0815V26.0579H63.5971V34.1209H60.614V0.87915H63.5971V23.1281H65.8451V0.87915H68.8283V31.1911H78.3623V34.1184H65.805L65.8426 34.0815H65.8451Z" fill="#22D3EE"/>
<path d="M70.7301 14.5333C70.7301 13.4426 71.1115 12.4997 71.8742 11.6996C72.6369 10.9019 73.495 10.5006 74.4509 10.5006C75.0455 10.5006 75.5498 10.7049 75.9613 11.1087V4.49087C75.9613 4.18558 75.8509 3.92707 75.6326 3.71042C75.4118 3.49622 75.1484 3.3879 74.8373 3.3879C74.5262 3.3879 74.2627 3.49622 74.0419 3.71042C73.8211 3.92707 73.7133 4.18558 73.7133 4.49087V8.93967H70.7301V4.49087C70.7301 3.40021 71.1315 2.46219 71.9319 1.67682C72.7323 0.891446 73.7007 0.497528 74.8398 0.497528C75.9788 0.497528 76.9448 0.891446 77.7477 1.67682C78.548 2.46219 78.9495 3.40021 78.9495 4.49087V25.4079C78.9495 26.4985 78.548 27.4415 77.7477 28.2416C76.9473 29.0393 75.9763 29.4406 74.8398 29.4406C73.7032 29.4406 72.7348 29.0418 71.9319 28.2416C71.1315 27.4439 70.7301 26.4985 70.7301 25.4079V14.5308V14.5333ZM73.7133 25.4103C73.7133 25.7156 73.8236 25.9741 74.0419 26.1908C74.2602 26.4074 74.5262 26.5133 74.8373 26.5133C75.1484 26.5133 75.4118 26.405 75.6326 26.1908C75.8534 25.9766 75.9613 25.7156 75.9613 25.4103V14.5333C75.9613 14.228 75.8509 13.9695 75.6326 13.7528C75.4118 13.5387 75.1484 13.4303 74.8373 13.4303C74.5262 13.4303 74.2627 13.5387 74.0419 13.7528C73.8211 13.967 73.7133 14.228 73.7133 14.5333V25.4103Z" fill="#22D3EE"/>
<path d="M88.6742 34.1209H80.7684V0.87915H83.7516V31.1911H88.6742V34.1184V34.1209Z" fill="#22D3EE"/>
<path d="M88.4032 0.87915V26.1317H91V29.059H85.42V0.87915H88.4032Z" fill="#22D3EE"/>
</g>
<defs>
<clipPath id="clip0_2_306">
<rect width="91" height="34" fill="white" transform="translate(0 0.5)"/>
</clipPath>
</defs>
</svg>
