<svg width="14" height="13" viewBox="0 0 14 13" fill="none" xmlns="http://www.w3.org/2000/svg">
<path d="M3.15 0.899994C3.61413 0.899994 4.05925 1.08437 4.38744 1.41256C4.71563 1.74075 4.9 2.18587 4.9 2.64999C4.9 3.11412 4.71563 3.55924 4.38744 3.88743C4.05925 4.21562 3.61413 4.39999 3.15 4.39999C2.68587 4.39999 2.24075 4.21562 1.91256 3.88743C1.58437 3.55924 1.4 3.11412 1.4 2.64999C1.4 2.18587 1.58437 1.74075 1.91256 1.41256C2.24075 1.08437 2.68587 0.899994 3.15 0.899994ZM11.2 0.899994C11.6641 0.899994 12.1092 1.08437 12.4374 1.41256C12.7656 1.74075 12.95 2.18587 12.95 2.64999C12.95 3.11412 12.7656 3.55924 12.4374 3.88743C12.1092 4.21562 11.6641 4.39999 11.2 4.39999C10.7359 4.39999 10.2908 4.21562 9.96256 3.88743C9.63437 3.55924 9.45 3.11412 9.45 2.64999C9.45 2.18587 9.63437 1.74075 9.96256 1.41256C10.2908 1.08437 10.7359 0.899994 11.2 0.899994ZM0 7.43406C0 6.14562 1.04562 5.09999 2.33406 5.09999H3.26812C3.61594 5.09999 3.94625 5.17656 4.24375 5.31218C4.21531 5.46968 4.20219 5.63374 4.20219 5.79999C4.20219 6.63562 4.56969 7.38593 5.14937 7.89999C5.145 7.89999 5.14062 7.89999 5.13406 7.89999H0.465937C0.21 7.89999 0 7.68999 0 7.43406ZM8.86594 7.89999C8.86156 7.89999 8.85719 7.89999 8.85063 7.89999C9.4325 7.38593 9.79781 6.63562 9.79781 5.79999C9.79781 5.63374 9.7825 5.47187 9.75625 5.31218C10.0538 5.17437 10.3841 5.09999 10.7319 5.09999H11.6659C12.9544 5.09999 14 6.14562 14 7.43406C14 7.69218 13.79 7.89999 13.5341 7.89999H8.86594ZM4.9 5.79999C4.9 5.24304 5.12125 4.7089 5.51508 4.31507C5.9089 3.92124 6.44305 3.69999 7 3.69999C7.55695 3.69999 8.0911 3.92124 8.48492 4.31507C8.87875 4.7089 9.1 5.24304 9.1 5.79999C9.1 6.35695 8.87875 6.89109 8.48492 7.28492C8.0911 7.67874 7.55695 7.89999 7 7.89999C6.44305 7.89999 5.9089 7.67874 5.51508 7.28492C5.12125 6.89109 4.9 6.35695 4.9 5.79999ZM2.8 11.5159C2.8 9.90593 4.10594 8.59999 5.71594 8.59999H8.28406C9.89406 8.59999 11.2 9.90593 11.2 11.5159C11.2 11.8375 10.9397 12.1 10.6159 12.1H3.38406C3.0625 12.1 2.8 11.8397 2.8 11.5159Z" fill="white"/>
</svg>
