<svg width="81" height="85" viewBox="0 0 81 85" fill="none" xmlns="http://www.w3.org/2000/svg">
<mask id="mask0_15_1926" style="mask-type:luminance" maskUnits="userSpaceOnUse" x="0" y="0" width="81" height="85">
<path d="M40.1173 81.0337C62.2735 81.0337 80.2347 63.0898 80.2347 40.9547C80.2347 18.8197 62.2735 0.875732 40.1173 0.875732C17.9611 0.875732 0 18.8197 0 40.9547C0 63.0898 17.9611 81.0337 40.1173 81.0337Z" fill="white"/>
<path d="M0 2.12424H73V84.1242H40C17.9086 84.1242 0 66.2156 0 44.1242V2.12424Z" fill="white"/>
</mask>
<g mask="url(#mask0_15_1926)">
<path d="M81.7814 127.807L74.9647 122.818L65.9381 80.4734C66.8719 79.5982 67.3254 78.923 67.3655 78.8652L67.5033 78.6564L67.4144 78.4254C67.361 78.2922 66.0671 75.1025 60.202 72.6814C58.6323 72.0329 57.3472 71.6064 56.3067 71.3265C56.2889 70.94 56.16 70.0738 55.3729 69.1587C54.4881 68.128 53.1096 67.8793 51.2687 68.4035C51.2243 68.2968 51.1798 68.1947 51.1264 68.1058C50.8152 67.5594 50.3527 67.2218 49.7924 67.1285C49.2322 67.0308 48.583 67.1862 47.8493 67.5727C47.2312 66.9686 47.0044 66.4133 47.04 65.627L47.1912 63.7123C47.2267 63.2503 47.0489 62.815 46.6976 62.5173C46.3997 62.2641 46.0262 62.1442 45.6438 62.1797L46.3908 53.2017C46.6176 53.295 46.8488 53.3838 47.0933 53.446C47.5158 53.5526 47.9382 53.6104 48.3606 53.6104C49.2944 53.6104 50.2104 53.3438 51.0242 52.8285C53.6032 51.1937 57.2583 48.8837 60.0241 47.1734C61.1758 46.4582 61.9717 45.2854 62.2074 43.9527C62.4431 42.62 62.1007 41.2428 61.2647 40.1767L61.0691 39.9279L63.3013 34.606C64.0972 32.7046 63.528 30.4834 61.9006 29.1907L59.864 27.6936L62.6787 17.3518L47.3335 6.29922L38.9427 11.7145L38.8627 11.6123C37.382 9.72429 35.172 8.67145 32.7619 8.71143C31.8014 8.7292 30.8766 8.92466 30.0228 9.27117C30.0095 9.26672 29.9961 9.25784 29.9783 9.24895C27.8795 8.40935 25.0871 12.0965 23.5219 15.9969C22.6903 18.0759 22.2012 20.1594 22.1523 21.8564C22.0989 23.7177 22.5881 24.9527 23.5352 25.3303C23.6286 25.3658 23.7175 25.3925 23.8153 25.4103L24.3178 29.0619L23.4952 30.7633C22.5525 32.4559 21.3919 34.4727 20.7827 35.5255C20.4092 36.1697 20.4715 36.9604 20.9339 37.529L21.0318 37.6579C21.2541 37.9333 21.2763 38.3242 21.0851 38.6219L15.1533 47.8575C14.8287 48.3595 14.7798 48.9903 15.0199 49.5412C15.2778 50.1365 15.8426 50.5452 16.4918 50.6073L17.5011 50.7051C17.3099 50.9716 17.181 51.2781 17.1499 51.6158C17.0876 52.2555 17.3633 52.8552 17.8257 53.2372C17.7902 53.2594 17.7546 53.2817 17.7235 53.3039C17.4078 53.5615 17.2121 53.9302 17.1721 54.3345L17.141 54.6543C17.0921 55.1519 17.2833 55.6139 17.6212 55.9382C17.5945 56.4224 17.4656 57.6663 16.803 58.7013C16.7008 58.8613 16.5807 59.039 16.4473 59.2389C15.3534 60.8514 13.3213 63.85 14.0017 67.5861C14.7798 71.8507 17.6835 72.4149 17.8035 72.4327C17.8302 72.4371 17.8613 72.4416 17.888 72.4416C18.097 72.4416 18.2837 72.3083 18.346 72.1039C18.4171 71.8729 18.3015 71.6242 18.0836 71.5264C18.0748 71.5264 17.3411 71.1888 17.1232 70.5713C17.012 70.2559 17.052 69.9139 17.2477 69.5274C17.8213 68.3901 19.1242 68.0614 21.4898 67.4661C23.0149 67.0841 24.9581 66.5954 27.3415 65.7025L27.2615 66.5421L26.5544 66.7109C25.9764 66.8486 25.5406 67.3373 25.4695 67.9281L25.0115 71.6997C24.927 72.3883 24.6602 73.0368 24.2378 73.5788L18.1281 81.2286L-9.0407 61.3445L-9.32528 61.731L-9.60986 62.1175L81.5057 128.788L82.0749 128.016L81.7814 127.802V127.807ZM54.8527 100.153V108.096L40.5969 97.6697V86.4705C40.997 86.1152 41.4061 85.8397 41.8152 85.6309V96.688H42.7712V85.24C43.2204 85.1023 43.6339 85.0268 43.9896 84.9868V91.8502H44.9456V84.9202C45.3503 84.9024 45.7549 84.8935 46.164 84.8846V88.9272H47.12V84.8669C47.5291 84.8624 47.9338 84.858 48.3384 84.858V87.4301H49.2989V84.8535C49.3522 84.8535 49.4011 84.8535 49.4501 84.8535C49.8058 84.8535 50.1615 84.8535 50.5128 84.8535V89.2914H51.4733V84.8491C51.8824 84.8491 52.287 84.8402 52.6872 84.8313V92.1967H53.6432V84.8047C54.0567 84.7913 54.4614 84.7691 54.8616 84.7469V97.723H55.8176V84.6758C56.1467 84.6492 56.4668 84.6136 56.7781 84.5781L56.7603 109.504L55.8043 108.802V100.157H54.8483L54.8527 100.153ZM37.462 95.373L37.3108 95.262C37.3597 95.0443 37.4086 94.8266 37.462 94.6134V95.373ZM38.4225 90.6019C38.6359 89.7712 38.8049 89.1626 38.9071 88.9272C39.125 88.4118 39.374 87.9632 39.6453 87.5722V96.9634L38.4225 96.0705V90.5975V90.6019ZM54.6437 69.7806C55.0884 70.3003 55.2529 70.7757 55.3151 71.0866C53.5054 70.709 52.665 70.8556 52.4471 70.9134C51.869 71.0067 45.6971 72.1617 40.4679 79.2561C43.1581 74.8449 46.5108 71.6997 49.1299 70.3181C51.8601 68.8788 53.7144 68.6966 54.6437 69.7761V69.7806ZM49.6279 68.0703C49.9081 68.1191 50.1171 68.2791 50.2905 68.5811C50.3127 68.6211 50.3305 68.6656 50.3527 68.71C49.828 68.9143 49.2722 69.1675 48.6852 69.4785C46.1062 70.8379 42.8513 73.8187 40.1477 77.9723C41.8641 74.685 44.0785 71.8241 46.702 69.5496C48.3606 68.1147 49.2455 68.0081 49.6324 68.0703H49.6279ZM47.3023 7.44535L61.576 17.7294L59.0325 27.0762L58.0454 26.352V26.3298L57.6363 26.0189L57.2227 25.7079L55.244 24.2286L55.8176 23.4601L57.494 24.7128L57.9075 25.0238L58.3211 25.3347L58.7924 23.6111L58.3789 23.3001L57.9653 22.9892L56.0177 21.5321L56.5913 20.7636L58.2321 21.9896L58.6457 22.3006L59.0592 22.6116L59.5305 20.8879L59.117 20.577L58.7035 20.266L56.7914 18.8356L57.365 18.067L58.9747 19.2709L59.3882 19.5819L59.8018 19.8929L60.242 18.2758L47.249 8.87579L40.3256 13.3448L40.0899 13.1716L39.5341 12.4608L47.2979 7.4498L47.3023 7.44535ZM32.7797 9.65765C34.8607 9.61323 36.8128 10.5417 38.1067 12.1898L47.8137 24.5707L48.5696 23.9798L42.2955 15.9747L57.1872 26.9073L57.7786 27.3516V27.3427L61.3181 29.9415C62.5942 30.9588 63.0478 32.718 62.4164 34.2239L60.3887 39.0528L55.8265 33.2333L55.0706 33.8241L60.5088 40.7586C61.1758 41.6116 61.4515 42.7088 61.2603 43.775C61.0691 44.8412 60.4332 45.7785 59.5172 46.3471C56.747 48.0619 53.0874 50.3719 50.5084 52.0111C49.5523 52.6153 48.4229 52.793 47.329 52.5087C47.0267 52.4287 46.7421 52.3177 46.4708 52.1799L45.8572 51.789C45.4259 51.4514 45.0612 51.0294 44.79 50.5318L32.1305 27.3294L31.2856 27.7869L33.2822 31.443L25.2516 28.8309L24.7714 25.3436C26.6345 24.7706 28.7155 21.7409 29.9872 18.5735C30.8187 16.4944 31.3079 14.411 31.3568 12.714C31.3924 11.5323 31.2056 10.6039 30.8232 9.98639C31.4457 9.78204 32.0994 9.67098 32.7753 9.65765H32.7797ZM16.3761 69.0876C16.1894 69.4607 16.0916 69.825 16.0871 70.1804C15.6113 69.5718 15.1711 68.6878 14.9354 67.4084C14.3218 64.0588 16.1449 61.3756 17.2299 59.7719C17.3677 59.5676 17.4967 59.381 17.6034 59.2166C17.6879 59.0878 17.7635 58.9545 17.8346 58.8213C18.3371 57.8573 18.5061 56.8444 18.555 56.2447L18.9863 56.2847C18.9863 56.2847 19.0263 56.2936 19.0441 56.298C19.1997 56.3336 19.3643 56.4535 19.5066 56.6001C19.3243 56.7023 19.1375 56.8444 18.973 57.0354C18.6617 57.3864 18.4127 57.8928 18.3415 58.6258C18.2793 59.2566 18.3905 59.7986 18.6617 60.2428C18.7818 60.4383 18.9285 60.6204 19.1153 60.7804C19.2175 60.8648 19.3243 60.9447 19.4399 61.0158L19.1286 62.2552L18.8529 63.3525L18.555 64.5253C18.4883 64.7829 18.6439 65.045 18.9018 65.1072C18.9418 65.1161 18.9819 65.1205 19.0219 65.1205C19.2353 65.1205 19.431 64.9739 19.4888 64.7563L19.7067 63.8945L19.9468 62.9393L20.3336 61.4023C20.7427 61.5222 21.2052 61.5889 21.7032 61.62L21.303 63.2103L21.0584 64.1832L20.8761 64.8984C20.8094 65.1561 20.965 65.4182 21.223 65.4804C21.263 65.4893 21.303 65.4937 21.343 65.4937C21.5565 65.4937 21.7521 65.3471 21.8099 65.1294L22.09 64.0277L22.3791 62.886L22.6948 61.6333C23.1261 61.62 23.5797 61.5844 24.0466 61.5356L23.8598 62.2686L23.5663 63.4324L23.1973 64.8984C23.1306 65.1561 23.2862 65.4182 23.5441 65.4804C23.5841 65.4893 23.6241 65.4937 23.6641 65.4937C23.8776 65.4937 24.0732 65.3471 24.131 65.1294L24.678 62.966L24.9714 61.8021L25.0737 61.389C25.4962 61.3223 25.9275 61.2468 26.3632 61.1624L26.3455 61.229L26.052 62.3929L25.5139 64.5208C25.4472 64.7785 25.6029 65.0406 25.8608 65.1028C25.9008 65.1117 25.9408 65.1161 25.9808 65.1161C26.1943 65.1161 26.3899 64.9695 26.4477 64.7518L27.1592 61.9309L27.3949 60.9936C27.3949 60.9936 27.3993 60.9625 27.4037 60.9492C27.5327 60.9225 27.6617 60.8914 27.7906 60.8603C28.0841 60.7937 28.3731 60.7226 28.6621 60.656L28.4798 61.3801L27.8351 63.9389C27.7906 64.1166 27.8529 64.2898 27.9774 64.4053C27.795 64.4764 27.6172 64.5475 27.4393 64.6186C24.9003 65.6003 22.846 66.1201 21.2541 66.5199C18.7862 67.1418 17.1587 67.5505 16.385 69.0787L16.3761 69.0876ZM33.5223 61.7888L34.2293 58.9812L34.3405 58.5414C34.3405 58.5414 34.3449 58.5059 34.3494 58.4881C34.8118 58.2171 35.2698 57.9239 35.71 57.6041L35.4966 58.457L34.8563 60.9847C34.4472 61.2557 34.0025 61.5222 33.5223 61.7888ZM29.5781 60.927L29.7026 60.425C29.7026 60.425 29.7026 60.4116 29.7026 60.4028C30.0895 60.305 30.4852 60.1895 30.8854 60.0563L30.7921 60.4161L30.134 63.0238C30.0984 63.1703 30.134 63.3214 30.2229 63.4324C30.0139 63.5302 29.796 63.6279 29.5781 63.7256C29.3069 63.85 29.0401 63.9655 28.7733 64.0766L29.5692 60.927H29.5781ZM31.9082 59.9541L31.9838 59.652C32.3928 59.4876 32.8019 59.3055 33.211 59.1011L33.1265 59.4432L32.464 62.0642C32.4373 62.1619 32.4462 62.2597 32.4773 62.3441C32.0549 62.5617 31.6102 62.7794 31.1389 63.0015L31.9082 59.9452V59.9541ZM36.6038 57.9861L36.9151 56.7467L36.9506 56.6001C37.4353 56.1647 37.8889 55.6983 38.3068 55.1919L38.1512 55.836L37.791 57.3286L37.4442 58.7635C37.0396 59.2389 36.586 59.6787 36.0613 60.1007L36.5949 57.9817L36.6038 57.9861ZM23.1172 21.8741C23.1528 20.7191 23.4062 19.3642 23.8465 17.956C23.9754 17.5428 24.1177 17.1297 24.2778 16.7121C24.3667 17.0586 24.469 17.5784 24.5046 18.267C24.5268 18.6579 24.509 19.0888 24.4734 19.5241C24.4245 20.1327 24.3311 20.7502 24.2333 21.3011C24.0554 22.3095 23.8554 23.078 23.8554 23.078C23.8554 23.078 24.0466 22.736 24.3534 22.2384C24.8959 21.3588 25.8119 19.995 26.7101 19.1465C27.6705 18.2359 28.3909 17.9338 28.3909 17.9338C28.3909 17.9338 28.0796 17.2186 28.0129 15.8947C27.924 14.2111 28.4843 11.8122 28.631 11.2169C28.6532 11.1281 28.6666 11.0792 28.6666 11.0792C28.6666 11.0792 28.6221 11.1592 28.5421 11.2969C28.2041 11.8833 27.1948 13.5492 26.1409 14.6775C26.0297 14.7975 25.9186 14.9085 25.8119 15.0151C25.3094 15.4905 24.8781 15.797 24.5757 15.9836C26.0875 12.4075 28.1997 10.0841 29.3603 10.0841C29.4581 10.0841 29.547 10.1019 29.6315 10.133C29.7427 10.1774 29.836 10.2574 29.925 10.364C30.2629 10.7638 30.4408 11.5856 30.4097 12.6873C30.3607 14.2777 29.8983 16.2412 29.1068 18.2181C27.7728 21.5454 25.9008 23.8599 24.6513 24.3752C24.3623 24.4951 24.1088 24.5174 23.8998 24.4329C23.8153 24.3974 23.7353 24.3397 23.6641 24.2686C23.2862 23.8954 23.0861 23.0469 23.1217 21.883L23.1172 21.8741ZM25.0381 29.7682L33.9536 32.6691L34.4116 33.5087L24.7625 30.3324L25.0381 29.7638V29.7682ZM16.5762 49.6478C16.2739 49.6167 16.0115 49.4301 15.8915 49.1503C15.7803 48.8926 15.8025 48.6038 15.9537 48.3684L21.8899 39.1283C22.3079 38.4797 22.259 37.6401 21.7832 37.0493L21.6854 36.9204C21.4675 36.6539 21.4408 36.2852 21.6098 35.9875C22.219 34.9303 23.384 32.909 24.3311 31.212L24.2555 31.1676L35.083 34.7303L40.9215 45.4276C40.8414 45.7652 40.3701 47.7509 39.5741 50.7628C38.2757 55.6805 33.2466 58.5414 29.3336 59.4965L28.9289 59.5987C26.8702 60.1096 21.3964 61.4734 19.7378 60.0474C19.3821 59.7408 19.2353 59.3055 19.2931 58.7147C19.4176 57.4219 20.2314 57.3286 20.3158 57.3242C20.4848 57.3198 20.636 57.2265 20.7205 57.0799C20.8005 56.9333 20.8005 56.7556 20.7205 56.609C20.6493 56.489 20.0135 55.4184 19.0797 55.3251L18.2882 55.2496C18.1503 55.1252 18.0748 54.9387 18.0925 54.7387L18.1237 54.4189C18.137 54.2679 18.2126 54.1301 18.3282 54.0324C18.4438 53.9347 18.595 53.8903 18.7551 53.908L20.0179 54.0058C20.5293 54.2812 20.9962 54.6988 21.4008 55.2674C21.9033 55.9693 22.886 56.4268 23.8331 56.4268C23.9443 56.4268 24.0554 56.4224 24.1666 56.4091C24.9492 56.3158 25.554 55.8849 25.8252 55.223C25.8252 55.223 25.8252 55.2185 25.8296 55.2141C25.8474 55.1741 25.8652 55.1386 25.883 55.0941C25.9364 54.9475 25.963 54.8009 25.9764 54.6455C25.9764 54.6321 25.9808 54.6144 25.9853 54.601V54.5921C25.9853 54.5877 25.9853 54.5833 25.9853 54.5788C25.9853 54.5788 25.9853 54.5611 25.9853 54.5522C25.9853 54.5522 25.9853 54.5522 25.9853 54.5477C25.9853 54.5344 25.9853 54.5211 25.9853 54.5122C25.9853 54.5122 25.9853 54.5077 25.9853 54.5033C26.0209 53.5171 25.1315 52.9263 24.5935 52.7264C24.3489 52.6375 24.0777 52.7619 23.9843 53.0018C23.8909 53.2461 24.0065 53.5215 24.2467 53.6193C24.2555 53.6193 25.0248 53.9569 25.0248 54.5077C25.0115 54.6232 24.9848 54.7299 24.9403 54.8454C24.7891 55.1697 24.4468 55.3473 24.0421 55.3074C23.4418 55.2496 22.6859 54.7032 22.3613 53.3394C22.0945 52.2377 21.423 51.0383 20.4448 50.3941L20.4982 50.3586C21.2052 49.8655 21.4631 48.937 21.1118 48.1507L20.8494 47.5643L19.9735 47.9597L20.2358 48.5461C20.4003 48.9104 20.2803 49.3413 19.9512 49.5723L19.6978 49.7455C19.5377 49.8566 19.3376 49.9099 19.1419 49.8921L16.5807 49.6434L16.5762 49.6478ZM28.3286 65.3027C28.8578 65.0895 29.4092 64.8584 29.9783 64.6008C37.5909 61.1757 39.4985 59.2122 41.2372 52.673C41.2727 52.5309 41.3128 52.3887 41.3483 52.2421C41.3528 52.2199 41.3617 52.1977 41.3661 52.1799C41.7041 50.8606 42.0865 49.1725 42.3355 48.0397L43.9452 50.9894C44.3231 51.678 44.8434 52.251 45.4614 52.6864L44.6522 62.3929L28.2308 66.3022L28.3242 65.3071L28.3286 65.3027ZM23.0016 76.6352L29.129 81.1886L28.133 82.5213L21.9611 77.9323L23.0016 76.6307V76.6352ZM21.3608 78.6875L28.3286 83.8673L30.4675 80.9931L23.5974 75.8844L24.9714 74.1608C25.505 73.4766 25.843 72.6637 25.9453 71.8019L26.4033 68.0303C26.4255 67.8393 26.5678 67.6793 26.759 67.6305L45.6526 63.1304C45.7994 63.0948 45.9506 63.1304 46.0662 63.2281C46.1818 63.3258 46.2396 63.468 46.2263 63.619L46.0751 65.5515C46.0306 66.5465 46.3152 67.3284 47.0089 68.0747C46.7065 68.2879 46.3952 68.5323 46.0662 68.8121C41.9931 72.3438 38.8671 77.2215 37.0351 82.9255C36.8573 83.4808 36.2792 85.9863 35.67 88.6384C35.4699 89.5002 35.2698 90.3798 35.0786 91.2017C35.0786 91.2017 35.0786 91.2061 35.0786 91.2105L35.5455 91.3172L36.0079 91.4415C36.7639 88.5895 37.4486 86.5994 38.3024 84.7824C43.6828 73.33 52.5271 71.8596 52.616 71.8463L52.6783 71.833C52.6783 71.833 54.5459 71.3709 59.8285 73.5521C64.3951 75.4402 65.9959 77.8079 66.4006 78.5365C65.8625 79.2295 63.9238 81.4418 60.2865 82.7878L58.6857 83.2587C56.0266 83.8718 52.8161 83.8806 49.4456 83.8895C47.8982 83.8895 46.3019 83.8984 44.7366 83.9606C41.5129 84.0939 39.2495 85.6354 38.0178 88.5407C37.7644 89.136 37.1641 91.6015 36.4615 94.6356L18.884 81.775L21.3564 78.6786L21.3608 78.6875Z" fill="#22D3EE"/>
<path d="M45.3093 63.7105L27.16 68.0335L27.3828 68.9669L45.5321 64.6439L45.3093 63.7105Z" fill="#22D3EE"/>
<path d="M64.4174 77.3726L63.5503 76.955C63.5236 77.0083 60.7 82.4635 49.1211 82.2548L49.1033 83.2143C49.3389 83.2143 49.5657 83.2187 49.7925 83.2187C61.4649 83.2187 64.2973 77.6125 64.413 77.3682L64.4174 77.3726Z" fill="#22D3EE"/>
<path d="M24.5447 38.8884L25.2161 38.955C25.0427 39.2438 24.9093 39.6569 24.8648 40.1278C24.7759 41.0518 25.0516 41.8337 25.4829 41.8737C25.9142 41.9136 26.3367 41.2029 26.4256 40.2789C26.4701 39.8124 26.4256 39.3815 26.3055 39.0616L27.6573 39.1905L27.7507 38.2354L24.6381 37.9333L24.5447 38.8884ZM25.7097 39.3726C25.6297 39.497 25.5229 39.7191 25.4785 40.1811C25.4696 40.2655 25.3984 40.3277 25.3184 40.3277C25.3139 40.3277 25.3095 40.3277 25.3006 40.3277C25.2117 40.3188 25.1494 40.2389 25.1583 40.1545C25.2117 39.6214 25.3406 39.3593 25.434 39.2082C25.4829 39.1327 25.5807 39.1105 25.6563 39.1549C25.7319 39.1994 25.7542 39.3015 25.7097 39.3771V39.3726Z" fill="#22D3EE"/>
<path d="M24.358 36.5517C24.727 36.5517 25.1272 36.5073 25.5363 36.3607C25.9365 36.2185 26.3812 36.0719 26.9503 35.8854L27.6218 35.6632L27.3194 34.7526L26.648 34.9747C26.0744 35.1613 25.6208 35.3123 25.2073 35.4589C24.647 35.6632 24.0334 35.5877 23.5842 35.53C23.4998 35.5211 23.4197 35.5122 23.353 35.5033L23.2596 36.4584C23.3219 36.4629 23.393 36.4718 23.4686 36.4806C23.7132 36.5117 24.02 36.5473 24.358 36.5473V36.5517Z" fill="#22D3EE"/>
<path d="M33.1222 59.4476L33.2066 59.1056C32.7976 59.3055 32.3885 59.4876 31.9794 59.6564L31.9038 59.9585L31.1345 63.0148C31.6059 62.7883 32.055 62.5706 32.473 62.3574C32.4418 62.2685 32.4329 62.1708 32.4596 62.0775L33.1222 59.4565V59.4476Z" fill="#020617"/>
<path d="M35.7101 57.6041C35.2699 57.9239 34.8119 58.2171 34.3494 58.4881C34.3494 58.5059 34.3494 58.5237 34.3405 58.5414L34.2293 58.9812L33.5223 61.7888C34.0026 61.5223 34.4472 61.2513 34.8563 60.9847L35.4966 58.457L35.7101 57.6041Z" fill="#020617"/>
<path d="M37.7954 57.3287L38.1556 55.836L38.3112 55.1919C37.8932 55.6939 37.4397 56.1648 36.955 56.6001L36.9194 56.7467L36.6082 57.9861L36.0746 60.1051C36.5948 59.6831 37.0528 59.2389 37.4575 58.768L37.8043 57.3331L37.7954 57.3287Z" fill="#020617"/>
<path d="M24.7625 30.3324L34.4116 33.5087L33.9536 32.6691L25.0381 29.7682L24.7625 30.3324Z" fill="#020617"/>
<path d="M29.1025 18.2136C29.894 16.2368 30.3564 14.2732 30.4053 12.6829C30.4364 11.5812 30.2586 10.7593 29.9206 10.3595C29.8317 10.2529 29.7383 10.1729 29.6272 10.1285C29.5427 10.0974 29.4537 10.0797 29.3559 10.0797C28.1953 10.0797 26.0832 12.403 24.5714 15.9791C24.8737 15.7925 25.3051 15.486 25.8075 15.0107C25.9187 14.9041 26.0298 14.793 26.1366 14.6731C27.1904 13.5447 28.1953 11.8788 28.5377 11.2924C28.6178 11.1591 28.6622 11.0747 28.6622 11.0747C28.6622 11.0747 28.6489 11.1236 28.6267 11.2125C28.4799 11.8033 27.9241 14.2022 28.0086 15.8903C28.0753 17.2096 28.3866 17.9293 28.3866 17.9293C28.3866 17.9293 27.6662 18.2314 26.7057 19.1421C25.8075 19.9906 24.8915 21.3588 24.349 22.234C24.0422 22.7315 23.851 23.0736 23.851 23.0736C23.851 23.0736 24.0511 22.305 24.229 21.2966C24.3268 20.7458 24.4202 20.1283 24.4691 19.5197C24.5047 19.0843 24.5224 18.6534 24.5002 18.2625C24.4646 17.5739 24.3624 17.0542 24.2734 16.7077C24.1134 17.1252 23.9711 17.5428 23.8421 17.9515C23.4019 19.3642 23.1484 20.7147 23.1129 21.8697C23.0773 23.0336 23.2818 23.8865 23.6554 24.2552C23.7265 24.3263 23.8065 24.3885 23.891 24.424C24.1 24.5085 24.3535 24.4862 24.6425 24.3663C25.892 23.8554 27.7685 21.5365 29.098 18.2092L29.1025 18.2136Z" fill="#020617"/>
<path d="M40.1477 77.9723C42.8468 73.8143 46.1017 70.8379 48.6852 69.4785C49.2722 69.1676 49.828 68.9143 50.3527 68.71C50.3349 68.6656 50.3127 68.6211 50.2904 68.5812C50.117 68.2791 49.908 68.1192 49.6323 68.0703C49.2499 68.0081 48.3606 68.1103 46.702 69.5496C44.0785 71.8241 41.8641 74.685 40.1477 77.9723Z" fill="#020617"/>
<path d="M28.2354 66.2978L44.6567 62.3885L45.466 52.6819C44.8435 52.2466 44.3232 51.6735 43.9497 50.9849L42.34 48.0352C42.091 49.168 41.7086 50.8561 41.3706 52.1755C41.3662 52.1977 41.3573 52.2199 41.3529 52.2377C41.3173 52.3843 41.2773 52.5264 41.2417 52.6686C39.5031 59.2078 37.5955 61.1713 29.9829 64.5963C29.4137 64.854 28.8623 65.085 28.3332 65.2982L28.2398 66.2933L28.2354 66.2978Z" fill="#020617"/>
<path d="M40.468 79.2606C45.6972 72.1661 51.8691 71.0111 52.4472 70.9178C52.6651 70.8601 53.5055 70.709 55.3152 71.0911C55.2574 70.7801 55.0929 70.3048 54.6438 69.785C53.7189 68.7055 51.8602 68.8877 49.13 70.327C46.5065 71.7086 43.1538 74.8538 40.468 79.2606Z" fill="#020617"/>
<path d="M25.3051 40.3277C25.3051 40.3277 25.314 40.3277 25.3229 40.3277C25.4029 40.3277 25.474 40.2655 25.4829 40.1811C25.5274 39.7191 25.6341 39.497 25.7142 39.3726C25.7586 39.2971 25.7364 39.1994 25.6608 39.1505C25.5852 39.1061 25.4874 39.1283 25.4385 39.2038C25.3451 39.3549 25.2117 39.6214 25.1628 40.15C25.1539 40.2389 25.2206 40.3144 25.3051 40.3233V40.3277Z" fill="#020617"/>
<path d="M31.3613 12.7095C31.3124 14.411 30.8233 16.49 29.9918 18.569C28.72 21.7364 26.639 24.7661 24.7759 25.3392L25.2561 28.8264L33.2867 31.4386L31.2902 27.7825L32.135 27.3249L44.7945 50.5274C45.0658 51.0249 45.4304 51.4514 45.8617 51.7846L46.4753 52.1755C46.7466 52.3132 47.0312 52.4287 47.3335 52.5042C48.4274 52.7886 49.5569 52.6109 50.5129 52.0067C53.0964 50.3719 56.7515 48.0619 59.5217 46.3427C60.4422 45.7741 61.078 44.8367 61.2648 43.7705C61.456 42.7044 61.1803 41.6071 60.5133 40.7542L55.0751 33.8197L55.831 33.2288L60.3932 39.0483L62.4209 34.2195C63.0523 32.7135 62.6032 30.9543 61.3226 29.937L57.7831 27.3382V27.3471L57.1917 26.9029L42.3 15.9702L48.5742 23.9754L47.8182 24.5662L38.1113 12.1853C36.8218 10.5372 34.8652 9.60877 32.7842 9.6532C32.1083 9.66652 31.4547 9.77758 30.8322 9.98193C31.2146 10.5994 31.4013 11.5279 31.3658 12.7095H31.3613Z" fill="#020617"/>
<path d="M40.3301 13.3404L47.2579 8.87137L60.2465 18.2714L59.8062 19.8929L59.3927 19.5819L58.9792 19.2754L57.3695 18.0715L56.7959 18.84L58.7079 20.2705L59.1215 20.577L59.535 20.888L59.0681 22.6116L58.6546 22.3051L58.241 21.9941L56.5958 20.768L56.0222 21.5365L57.9698 22.9892L58.3833 23.3002L58.7969 23.6111L58.3255 25.3348L57.912 25.0238L57.4984 24.7173L55.8221 23.4645L55.2485 24.2331L57.2272 25.7124L57.6407 26.0233L58.0543 26.3299L58.0498 26.3521L59.0325 27.0762L61.5804 17.7294L47.3024 7.44537L39.5386 12.4564L40.0944 13.1671L40.3301 13.3404Z" fill="#020617"/>
<path d="M30.801 60.4161L30.8944 60.0563C30.4942 60.1895 30.0984 60.305 29.7116 60.4028C29.7116 60.4117 29.7116 60.4161 29.7116 60.425L29.5871 60.927L28.7911 64.0766C29.0535 63.9656 29.3203 63.8501 29.596 63.7257C29.8183 63.6279 30.0317 63.5302 30.2407 63.4325C30.1518 63.3214 30.1162 63.1704 30.1518 63.0238L30.8099 60.4161H30.801Z" fill="#020617"/>
<path d="M59.833 73.5655C54.546 71.3843 52.7006 71.8419 52.6828 71.8463L52.6206 71.8596C52.5316 71.873 43.6873 73.3434 38.3069 84.7958C37.4532 86.6083 36.7684 88.5985 36.0125 91.4549L35.55 91.3305L35.0831 91.2239C35.0831 91.2239 35.0831 91.2195 35.0831 91.215C35.2743 90.3887 35.4744 89.5136 35.6745 88.6518C36.2837 85.9997 36.8618 83.4942 37.0396 82.9389C38.8761 77.2393 41.9976 72.3572 46.0707 68.8255C46.3953 68.5412 46.711 68.3013 47.0134 68.0881C46.3197 67.3417 46.0351 66.5643 46.0796 65.5648L46.2308 63.6324C46.2441 63.4813 46.1819 63.3392 46.0707 63.2415C45.9551 63.1437 45.8084 63.1082 45.6572 63.1437L26.7635 67.6438C26.5723 67.6883 26.43 67.8482 26.4078 68.0436L25.9498 71.8152C25.8431 72.677 25.5096 73.49 24.976 74.1741L23.602 75.8977L30.4764 81.0065L28.3376 83.8807L21.3698 78.7009L18.8975 81.7972L36.4749 94.6623C37.173 91.6282 37.7778 89.1626 38.0312 88.5674C39.2674 85.6621 41.5263 84.1206 44.7501 83.9873C46.3153 83.9207 47.9116 83.9162 49.459 83.9162C52.8251 83.9073 56.04 83.8984 58.6991 83.2854L60.2999 82.8145C63.9372 81.4685 65.8715 79.2562 66.414 78.5632C66.0093 77.8346 64.413 75.4668 59.8419 73.5788L59.833 73.5655ZM27.3772 68.9677L27.1548 68.0348L45.3014 63.7123L45.5238 64.6452L27.3772 68.9677ZM49.797 83.2188C49.5702 83.2188 49.339 83.2188 49.1077 83.2143L49.1255 82.2548C60.7045 82.4636 63.5281 77.0083 63.5548 76.955L64.4219 77.3726C64.3063 77.6169 61.4738 83.2232 49.8014 83.2232L49.797 83.2188Z" fill="#020617"/>
<path d="M29.1291 81.1886L23.0017 76.6352L21.9612 77.9368L28.1331 82.5257L29.1291 81.1886Z" fill="#020617"/>
<path d="M19.6934 49.75L19.9468 49.5767C20.2759 49.3502 20.3959 48.9193 20.2314 48.5505L19.9691 47.9641L20.845 47.5688L21.1074 48.1552C21.4631 48.9415 21.2052 49.8699 20.4938 50.3586L20.4404 50.3941C21.4186 51.0383 22.0945 52.2377 22.3569 53.3394C22.6859 54.7032 23.4419 55.2496 24.0377 55.3074C24.4423 55.3429 24.7847 55.1652 24.9359 54.8454C24.9804 54.7299 25.0115 54.6232 25.0204 54.5077C25.0204 53.9569 24.2511 53.6237 24.2422 53.6193C24.0021 53.5171 23.8821 53.2461 23.9799 53.0018C24.0733 52.7575 24.3445 52.6375 24.5891 52.7264C25.1271 52.9218 26.0164 53.5171 25.9809 54.5033C25.9809 54.5033 25.9809 54.5077 25.9809 54.5122C25.9809 54.5166 25.9809 54.5344 25.9809 54.5477C25.9809 54.5477 25.9809 54.5477 25.9809 54.5522C25.9809 54.5611 25.9809 54.5699 25.9809 54.5788C25.9809 54.5788 25.9809 54.5877 25.9809 54.5921V54.601C25.9809 54.6144 25.9809 54.6321 25.972 54.6455C25.9586 54.7965 25.932 54.9475 25.8786 55.0941C25.8653 55.1341 25.8475 55.1741 25.8252 55.2141C25.8252 55.2141 25.8252 55.2185 25.8208 55.223C25.5496 55.8849 24.9448 56.3158 24.1622 56.4091C24.051 56.4224 23.9443 56.4268 23.8287 56.4268C22.8816 56.4268 21.8989 55.9693 21.3964 55.2674C20.9873 54.6988 20.5249 54.2812 20.0135 54.0058L18.7507 53.908C18.5906 53.8947 18.4394 53.9391 18.3238 54.0324C18.2082 54.1301 18.1326 54.2679 18.1193 54.4189L18.0881 54.7387C18.0704 54.9387 18.1504 55.1208 18.2838 55.2496L19.0753 55.3251C20.0091 55.414 20.6449 56.4846 20.7161 56.609C20.8006 56.7556 20.8006 56.9333 20.7161 57.0799C20.636 57.2265 20.4804 57.3198 20.3114 57.3242C20.227 57.3286 19.4177 57.4219 19.2887 58.7147C19.2309 59.3055 19.3777 59.7408 19.7334 60.0474C21.3875 61.4734 26.8613 60.114 28.9245 59.5987L29.3292 59.4965C33.2377 58.5414 38.2669 55.6805 39.5697 50.7628C40.3657 47.7509 40.837 45.7652 40.917 45.4276L35.0786 34.7303L24.2511 31.1676L24.3267 31.212C23.3796 32.909 22.2146 34.9347 21.6054 35.9875C21.432 36.2852 21.4631 36.6494 21.681 36.9204L21.7788 37.0493C22.2546 37.6401 22.3035 38.4797 21.8855 39.1283L15.9493 48.3684C15.7981 48.6038 15.7759 48.8926 15.8871 49.1503C16.0071 49.4257 16.2695 49.6167 16.5718 49.6478L19.1331 49.8966C19.3287 49.9143 19.5288 49.8655 19.6889 49.75H19.6934ZM27.6572 39.1905L26.3055 39.0616C26.4211 39.3771 26.47 39.808 26.4255 40.2789C26.3366 41.2029 25.9142 41.9181 25.4829 41.8737C25.0515 41.8337 24.7758 41.0518 24.8648 40.1278C24.9092 39.6614 25.0426 39.2482 25.2161 38.955L24.5446 38.8884L24.638 37.9333L27.7506 38.2354L27.6572 39.1905ZM23.3529 35.5078C23.4196 35.5166 23.4997 35.5255 23.5841 35.5344C24.0333 35.5877 24.6469 35.6632 25.2072 35.4633C25.6207 35.3123 26.0743 35.1657 26.6479 34.9791L27.3193 34.757L27.6217 35.6677L26.9502 35.8898C26.3855 36.0764 25.9364 36.223 25.5362 36.3651C25.1316 36.5117 24.7269 36.5562 24.3579 36.5562C24.0199 36.5562 23.7131 36.5206 23.4685 36.4895C23.3929 36.4806 23.3218 36.4718 23.2595 36.4673L23.3529 35.5122V35.5078Z" fill="#020617"/>
<path d="M27.9642 64.4142C27.8397 64.2987 27.7774 64.121 27.8219 63.9478L28.4666 61.389L28.6489 60.6649C28.3599 60.7359 28.0664 60.8026 27.7774 60.8692C27.6484 60.9003 27.5195 60.927 27.3905 60.9581C27.3905 60.9714 27.3905 60.9892 27.3817 61.0025L27.146 61.9398L26.4345 64.7607C26.3812 64.9784 26.1855 65.125 25.9676 65.125C25.9276 65.125 25.8876 65.1206 25.8476 65.1117C25.5897 65.045 25.434 64.7874 25.5007 64.5297L26.0388 62.4018L26.3323 61.2379L26.35 61.1713C25.9143 61.2557 25.4829 61.3312 25.0605 61.3979L24.9582 61.811L24.6648 62.9749L24.1178 65.1383C24.0645 65.356 23.8688 65.5026 23.6509 65.5026C23.6109 65.5026 23.5709 65.4982 23.5309 65.4893C23.273 65.4226 23.1174 65.165 23.1841 64.9073L23.5531 63.4413L23.8466 62.2774L24.0334 61.5445C23.5665 61.5978 23.1129 61.6333 22.6816 61.6422L22.3659 62.8949L22.0768 64.0366L21.7967 65.1383C21.7433 65.356 21.5477 65.5026 21.3298 65.5026C21.2898 65.5026 21.2498 65.4982 21.2098 65.4893C20.9519 65.4226 20.7962 65.165 20.8629 64.9073L21.0452 64.1921L21.2898 63.2192L21.69 61.6289C21.192 61.5978 20.7295 61.5311 20.3204 61.4112L19.9336 62.9482L19.6935 63.9034L19.4756 64.7652C19.4222 64.9828 19.2266 65.1294 19.0087 65.1294C18.9687 65.1294 18.9286 65.125 18.8886 65.1161C18.6307 65.0495 18.4751 64.7918 18.5418 64.5342L18.8397 63.3614L19.1154 62.2641L19.4267 61.0247C19.3111 60.9536 19.1999 60.8781 19.1021 60.7893C18.9197 60.6293 18.7686 60.4516 18.6485 60.2517C18.3773 59.8075 18.2661 59.2655 18.3284 58.6347C18.3995 57.9017 18.6485 57.3908 18.9598 57.0443C19.1287 56.8578 19.3111 56.7112 19.4934 56.609C19.3511 56.4624 19.1865 56.3424 19.0309 56.3069C19.0131 56.3025 18.9909 56.2936 18.9731 56.2936L18.5418 56.2536C18.4884 56.8533 18.3239 57.8662 17.8214 58.8302C17.7503 58.9634 17.6747 59.0967 17.5902 59.2255C17.4835 59.3899 17.359 59.5765 17.2167 59.7808C16.1317 61.3845 14.3086 64.0677 14.9222 67.4173C15.1579 68.6967 15.5981 69.5807 16.0739 70.1893C16.0739 69.8339 16.1762 69.4696 16.3629 69.0965C17.1367 67.5683 18.7641 67.1596 21.232 66.5377C22.8239 66.1379 24.8827 65.6181 27.4172 64.6363C27.5951 64.5697 27.773 64.4986 27.9553 64.4231L27.9642 64.4142Z" fill="#020617"/>
</g>
</svg>
