<svg width="13" height="14" viewBox="0 0 13 14" fill="none" xmlns="http://www.w3.org/2000/svg">
<path fill-rule="evenodd" clip-rule="evenodd" d="M8.60731 3.38502C8.65503 3.38501 8.70224 3.37531 8.74609 3.3565C8.78994 3.33769 8.82951 3.31017 8.8624 3.2756L9.37394 2.74423C9.40538 2.71128 9.44315 2.68502 9.48498 2.66704C9.52682 2.64906 9.57186 2.63973 9.6174 2.63959H9.6386C9.73503 2.63959 9.82804 2.68063 9.89164 2.7538L10.3225 3.23935C10.4045 3.33168 10.5215 3.38502 10.6453 3.38502H11.799C11.2382 2.63815 10.5111 2.03215 9.67545 1.61503C8.83978 1.19791 7.91846 0.981132 6.98447 0.981875C6.05037 0.981025 5.12891 1.19775 4.29312 1.61488C3.45733 2.032 2.73018 2.63806 2.16929 3.38502H8.60731ZM9.21596 5.00786H12.6675C12.833 5.47974 12.941 5.9776 12.9841 6.49393H8.50678C8.44563 6.49391 8.38517 6.48092 8.32941 6.45581C8.27365 6.4307 8.22385 6.39405 8.18331 6.34826L7.75247 5.86271C7.72081 5.8268 7.68188 5.79805 7.63825 5.77835C7.59462 5.75866 7.5473 5.74849 7.49943 5.7485H7.47892C7.43326 5.7485 7.38807 5.75778 7.34611 5.77576C7.30414 5.79375 7.26626 5.82007 7.23477 5.85314L6.72392 6.38519C6.691 6.41973 6.65143 6.44723 6.60758 6.46603C6.56374 6.48484 6.51654 6.49456 6.46883 6.49461H0.984131C1.02581 5.98783 1.13198 5.48845 1.30008 5.00855H7.10962C7.29222 5.00855 7.46524 4.9299 7.58697 4.79381L7.95626 4.37664C7.9879 4.34071 8.02683 4.31193 8.07046 4.29221C8.11409 4.2725 8.16142 4.2623 8.2093 4.2623C8.25717 4.2623 8.3045 4.2725 8.34813 4.29221C8.39176 4.31193 8.43069 4.34071 8.46233 4.37664L8.89317 4.8622C8.97524 4.95452 9.09287 5.00786 9.21596 5.00786ZM4.55876 9.50778C4.52571 9.54227 4.48599 9.56969 4.44203 9.58839C4.39806 9.60708 4.35076 9.61665 4.30299 9.61651H1.55927C1.32941 9.14063 1.16383 8.63629 1.06688 8.11677H4.97182C5.15442 8.11677 5.32744 8.03881 5.44848 7.90203L5.81778 7.48487C5.84942 7.44894 5.88835 7.42015 5.93198 7.40044C5.97561 7.38072 6.02293 7.37053 6.07081 7.37053C6.11869 7.37053 6.16602 7.38072 6.20965 7.40044C6.25328 7.42015 6.29221 7.44894 6.32385 7.48487L6.75469 7.97042C6.83675 8.06343 6.95438 8.11609 7.07816 8.11609H12.9014C12.8044 8.63582 12.6388 9.14037 12.409 9.61651H6.34163C6.28047 9.6165 6.22002 9.60351 6.16426 9.5784C6.10849 9.55329 6.0587 9.51663 6.01815 9.47085L5.58731 8.9853C5.55566 8.94939 5.51672 8.92063 5.47309 8.90094C5.42947 8.88125 5.38214 8.87107 5.33428 8.87109H5.31376C5.2681 8.87109 5.22292 8.88036 5.18095 8.89835C5.13898 8.91633 5.1011 8.94266 5.06961 8.97572L4.55876 9.50778ZM4.71195 11.1039H11.3866C10.8238 11.7086 10.1423 12.1907 9.38475 12.52C8.6272 12.8494 7.80984 13.019 6.98379 13.0181C6.15778 13.019 5.34046 12.8496 4.58291 12.5204C3.82535 12.1911 3.14385 11.7092 2.58098 11.1046H2.60561C2.7882 11.1046 2.96122 11.026 3.08227 10.8899L3.45156 10.4727C3.4832 10.4368 3.52213 10.408 3.56576 10.3883C3.60939 10.3686 3.65672 10.3584 3.7046 10.3584C3.75247 10.3584 3.7998 10.3686 3.84343 10.3883C3.88706 10.408 3.92599 10.4368 3.95763 10.4727L4.38847 10.9583C4.47054 11.0506 4.58817 11.1039 4.71195 11.1039Z" fill="white"/>
</svg>
